<svg width="33" height="33" viewBox="0 0 33 33" fill="none" xmlns="http://www.w3.org/2000/svg">
<path d="M32.6873 16.5C32.6873 12.2068 30.9819 8.08946 27.9461 5.05372C24.9104 2.01797 20.793 0.312507 16.4998 0.312507C12.4237 0.308743 8.49618 1.8429 5.50181 4.60853C2.50745 7.37415 0.666672 11.1676 0.347191 15.2312C0.0277098 19.2949 1.25304 23.3294 3.77842 26.529C6.3038 29.7286 9.94332 31.8577 13.97 32.4909V21.1782H9.86297V16.5H13.9723V12.9341C13.9723 8.87801 16.3888 6.63488 20.0865 6.63488C21.8579 6.63488 23.7102 6.95169 23.7102 6.95169V10.9361H21.6683C19.6564 10.9361 19.032 12.1849 19.032 13.4637V16.5H23.5206L22.8037 21.1782H19.0297V32.4909C22.8373 31.888 26.3047 29.9462 28.8083 27.0149C31.312 24.0835 32.6874 20.355 32.6873 16.5Z" fill="#1877F2"/>
</svg>
