<svg width="14" height="14" viewBox="0 0 14 14" fill="none" xmlns="http://www.w3.org/2000/svg">
<path fill-rule="evenodd" clip-rule="evenodd" d="M7.00058 0C5.0995 0 4.86092 0.0083125 4.11425 0.0422917C3.36904 0.0764167 2.86038 0.194396 2.41529 0.3675C1.9549 0.546292 1.56435 0.785458 1.17527 1.17469C0.785896 1.56377 0.546729 1.95431 0.367354 2.41456C0.193813 2.85979 0.0756875 3.3686 0.0421458 4.11352C0.00875 4.86019 0 5.09892 0 7C0 8.90108 0.00845834 9.13894 0.0422917 9.8856C0.0765625 10.6308 0.194542 11.1395 0.3675 11.5846C0.546438 12.045 0.785604 12.4355 1.17483 12.8246C1.56377 13.214 1.95431 13.4537 2.41442 13.6325C2.85979 13.8056 3.3686 13.9236 4.11367 13.9577C4.86033 13.9917 5.09877 14 6.99971 14C8.90094 14 9.13879 13.9917 9.88546 13.9577C10.6307 13.9236 11.1399 13.8056 11.5853 13.6325C12.0455 13.4537 12.4355 13.214 12.8244 12.8246C13.2138 12.4355 13.453 12.045 13.6324 11.5847C13.8044 11.1395 13.9226 10.6307 13.9576 9.88575C13.9911 9.13908 13.9999 8.90108 13.9999 7C13.9999 5.09892 13.9911 4.86033 13.9576 4.11367C13.9226 3.36846 13.8044 2.85979 13.6324 2.41471C13.453 1.95431 13.2138 1.56377 12.8244 1.17469C12.4351 0.785313 12.0457 0.546146 11.5849 0.3675C11.1386 0.194396 10.6296 0.0764167 9.88444 0.0422917C9.13777 0.0083125 8.90006 0 6.9984 0H7.00058ZM6.3726 1.26144C6.55897 1.26115 6.76693 1.26144 7.00055 1.26144C8.86955 1.26144 9.09107 1.26815 9.82914 1.30169C10.5116 1.3329 10.8821 1.44694 11.1288 1.54275C11.4555 1.66963 11.6884 1.82129 11.9332 2.06629C12.1782 2.31129 12.3299 2.54463 12.4571 2.87129C12.5529 3.11775 12.6671 3.48817 12.6981 4.17067C12.7317 4.90859 12.7389 5.13025 12.7389 6.99838C12.7389 8.8665 12.7317 9.08817 12.6981 9.82609C12.6669 10.5086 12.5529 10.879 12.4571 11.1255C12.3302 11.4521 12.1782 11.6847 11.9332 11.9296C11.6882 12.1746 11.4556 12.3263 11.1288 12.4531C10.8823 12.5494 10.5116 12.6631 9.82914 12.6943C9.09122 12.7279 8.86955 12.7352 7.00055 12.7352C5.13141 12.7352 4.90989 12.7279 4.17197 12.6943C3.48947 12.6628 3.11905 12.5488 2.87216 12.453C2.54549 12.3261 2.31216 12.1744 2.06716 11.9294C1.82216 11.6844 1.67049 11.4517 1.54332 11.1249C1.44751 10.8784 1.33332 10.508 1.30226 9.8255C1.26872 9.08759 1.26201 8.86592 1.26201 6.99663C1.26201 5.12734 1.26872 4.90684 1.30226 4.16892C1.33347 3.48642 1.44751 3.116 1.54332 2.86925C1.6702 2.54258 1.82216 2.30925 2.06716 2.06425C2.31216 1.81925 2.54549 1.66758 2.87216 1.54042C3.11891 1.44417 3.48947 1.33042 4.17197 1.29906C4.81772 1.2699 5.06797 1.26115 6.3726 1.25969V1.26144ZM10.7371 2.42373C10.2734 2.42373 9.8971 2.79955 9.8971 3.26344C9.8971 3.72719 10.2734 4.10344 10.7371 4.10344C11.2009 4.10344 11.5771 3.72719 11.5771 3.26344C11.5771 2.79969 11.2009 2.42373 10.7371 2.42373ZM7.0006 3.40519C5.01537 3.40519 3.4058 5.01475 3.4058 6.99998C3.4058 8.98521 5.01537 10.594 7.0006 10.594C8.98583 10.594 10.5948 8.98521 10.5948 6.99998C10.5948 5.01475 8.98583 3.40519 7.0006 3.40519ZM7.00057 4.66665C8.28915 4.66665 9.3339 5.71125 9.3339 6.99998C9.3339 8.28857 8.28915 9.33331 7.00057 9.33331C5.71184 9.33331 4.66723 8.28857 4.66723 6.99998C4.66723 5.71125 5.71184 4.66665 7.00057 4.66665Z" fill="#17191C"/>
</svg>
