<svg width="40" height="40" viewBox="0 0 40 40" fill="none" xmlns="http://www.w3.org/2000/svg">
<path d="M20 39.1667C30.5855 39.1667 39.1667 30.5855 39.1667 20C39.1667 9.41455 30.5855 0.833344 20 0.833344C9.41455 0.833344 0.833344 9.41455 0.833344 20C0.833344 30.5855 9.41455 39.1667 20 39.1667Z" fill="#0077B5"/>
<path fill-rule="evenodd" clip-rule="evenodd" d="M14.9924 10.6887C14.9924 11.882 14.0839 12.8476 12.6632 12.8476C11.2977 12.8476 10.3891 11.882 10.4173 10.6887C10.3891 9.43754 11.2976 8.5 12.6904 8.5C14.0839 8.5 14.9652 9.43754 14.9924 10.6887ZM10.5316 28.4516V14.553H14.851V28.4507L10.5316 28.4516Z" fill="white"/>
<path fill-rule="evenodd" clip-rule="evenodd" d="M18.3127 18.9886C18.3127 17.2551 18.2555 15.7771 18.1984 14.5549H21.9503L22.1497 16.459H22.235C22.8035 15.5777 24.2242 14.243 26.5263 14.243C29.3679 14.243 31.4995 16.1189 31.4995 20.2099V28.4535H27.18V20.7511C27.18 18.9596 26.5554 17.7382 24.9922 17.7382C23.7982 17.7382 23.0881 18.5624 22.8044 19.3576C22.6901 19.6424 22.6339 20.0395 22.6339 20.4383V28.4535H18.3144V18.9886H18.3127Z" fill="white"/>
</svg>
