<svg width="30" height="30" viewBox="0 0 30 30" fill="none" xmlns="http://www.w3.org/2000/svg">
<rect x="1" y="1" width="28" height="28" rx="14" stroke="#A7A8AE" stroke-width="1.16667"/>
<g clip-path="url(#clip0_6412_638)">
<path d="M11.4539 20.2505H8.90317V12.072H11.4539V20.2505ZM10.1771 10.9564C9.36151 10.9564 8.69995 10.2837 8.69995 9.47161C8.69995 9.08153 8.85558 8.70742 9.13261 8.43159C9.40964 8.15575 9.78536 8.00079 10.1771 8.00079C10.5689 8.00079 10.9446 8.15575 11.2217 8.43159C11.4987 8.70742 11.6543 9.08153 11.6543 9.47161C11.6543 10.2837 10.9925 10.9564 10.1771 10.9564ZM21.0002 20.2505H18.455V16.2693C18.455 15.3204 18.4358 14.1036 17.1289 14.1036C15.8028 14.1036 15.5995 15.1345 15.5995 16.2009V20.2505H13.0516V12.072H15.4979V13.1876H15.5336C15.8742 12.5451 16.706 11.8669 17.947 11.8669C20.5284 11.8669 21.003 13.5595 21.003 15.7579V20.2505H21.0002Z" fill="#17191C"/>
</g>
<defs>
<clipPath id="clip0_6412_638">
<rect width="12.303" height="14" fill="white" transform="translate(8.69995 8)"/>
</clipPath>
</defs>
</svg>
