<svg width="34" height="34" viewBox="0 0 34 34" fill="none" xmlns="http://www.w3.org/2000/svg">
<g clip-path="url(#clip0_1145_9650)">
<path fill-rule="evenodd" clip-rule="evenodd" d="M17 0C26.3888 0 34 7.61115 34 17C34 26.3888 26.3888 34 17 34C7.61115 34 0 26.3888 0 17C0 7.61115 7.61115 0 17 0Z" fill="black"/>
<path d="M21.1596 10.4624H23.3776L18.5318 16.0011L24.2328 23.5379H19.7688L16.2727 18.9668L12.2723 23.5379H10.0528L15.2359 17.6137L9.76709 10.4624H14.3441L17.5043 14.6405L21.1596 10.4624ZM20.3811 22.2102H21.6102L13.6763 11.7204H12.3575L20.3811 22.2102Z" fill="white"/>
</g>
<defs>
<clipPath id="clip0_1145_9650">
<rect width="34" height="34" fill="white"/>
</clipPath>
</defs>
</svg>
