<svg width="30" height="30" viewBox="0 0 30 30" fill="none" xmlns="http://www.w3.org/2000/svg">
<rect x="1" y="1" width="28" height="28" rx="14" stroke="#A7A8AE" stroke-width="1.16667"/>
<g clip-path="url(#clip0_6412_647)">
<path d="M20.0048 12.5629C20.0128 12.671 20.0128 12.7791 20.0128 12.8872C20.0128 16.1838 17.4145 19.9824 12.6654 19.9824C11.2024 19.9824 9.84323 19.5732 8.69995 18.8629C8.90783 18.8861 9.10768 18.8938 9.32356 18.8938C10.5308 18.8938 11.6421 18.5001 12.5295 17.8284C11.3942 17.8052 10.4428 17.0872 10.115 16.0989C10.275 16.1221 10.4348 16.1375 10.6028 16.1375C10.8346 16.1375 11.0665 16.1066 11.2823 16.0526C10.0991 15.821 9.21161 14.8173 9.21161 13.6052V13.5743C9.55538 13.7596 9.95516 13.8754 10.3789 13.8908C9.6833 13.443 9.2276 12.6787 9.2276 11.814C9.2276 11.3508 9.3555 10.9261 9.57937 10.5555C10.8506 12.0688 12.7614 13.057 14.904 13.1651C14.864 12.9798 14.84 12.7868 14.84 12.5938C14.84 11.2195 15.9913 10.1 17.4224 10.1C18.1659 10.1 18.8375 10.4011 19.3092 10.8875C19.8928 10.7795 20.4525 10.571 20.9482 10.2853C20.7563 10.8644 20.3485 11.3508 19.8129 11.6596C20.3326 11.6056 20.8363 11.4666 21.3 11.2736C20.9482 11.7677 20.5085 12.2077 20.0048 12.5629Z" fill="#17191C"/>
</g>
<defs>
<clipPath id="clip0_6412_647">
<rect width="12.6" height="10.5" fill="white" transform="translate(8.69995 10.1)"/>
</clipPath>
</defs>
</svg>
