<svg width="459" height="293" viewBox="0 0 459 293" fill="none" xmlns="http://www.w3.org/2000/svg">
<rect x="85.4934" y="110.706" width="148.641" height="40.617" rx="20.3085" fill="#9FC0F7"/>
<rect x="222.036" y="156.508" width="110.617" height="34.5677" rx="17.2838" fill="white"/>
<rect x="220.307" y="156.217" width="110.617" height="34.5677" rx="17.2838" transform="rotate(-3.43228 220.307 156.217)" fill="#FFE386"/>
<path d="M99.6453 138.919V114.722H102.411L115.201 131.418V114.722H119.176V138.919H116.411L103.621 122.223V138.919H99.6453ZM131.613 139.265C126.636 139.265 122.833 135.566 122.833 130.623C122.833 125.749 126.601 121.981 131.406 121.981C136.003 121.981 139.322 125.472 139.322 130.243C139.322 130.796 139.253 131.349 139.115 132.04H126.739C127.292 134.322 129.09 135.704 131.579 135.704C133.273 135.704 134.794 135.117 135.796 133.941L138.216 136.396C136.591 138.297 134.206 139.265 131.613 139.265ZM131.337 125.472C128.986 125.472 127.292 126.786 126.739 128.929H135.589C135.105 126.717 133.653 125.472 131.337 125.472ZM144.489 138.919V125.783H140.513V122.327H144.489V115.413H148.291V122.327H152.266V125.783H148.291V138.919H144.489ZM159.869 138.919L153.197 122.327H157.138L161.044 132.801L164.846 122.327H167.059L170.861 132.801L174.767 122.327H178.708L172.037 138.919H169.824L165.953 129.033L162.081 138.919H159.869ZM188.29 139.265C183.45 139.265 179.613 135.428 179.613 130.588C179.613 125.783 183.416 121.981 188.29 121.981C193.164 121.981 197.001 125.749 197.001 130.588C197.001 135.462 193.198 139.265 188.29 139.265ZM188.29 135.601C191.124 135.601 193.095 133.527 193.095 130.588C193.095 127.685 191.09 125.645 188.29 125.645C185.49 125.645 183.519 127.719 183.519 130.588C183.519 133.527 185.49 135.601 188.29 135.601ZM200.163 138.919V122.327H203.965V124.055C204.899 122.741 206.351 121.981 208.286 121.981C209.946 121.981 211.259 122.569 212.4 123.882L209.911 126.44C209.289 125.818 208.597 125.541 207.63 125.541C205.486 125.541 203.965 126.855 203.965 129.689V138.919H200.163ZM214.24 138.919V114.03H218.042V130.139L224.748 122.327H229.277L222.294 130.277L229.622 138.919H224.783L218.042 130.796V138.919H214.24ZM243.655 138.919L236.983 122.327H240.924L244.83 132.801L248.633 122.327H250.845L254.647 132.801L258.553 122.327H262.494L255.823 138.919H253.61L249.739 129.033L245.867 138.919H243.655ZM266.542 119.285C265.228 119.285 264.295 118.282 264.295 117.003C264.295 115.724 265.228 114.722 266.542 114.722C267.855 114.722 268.789 115.724 268.789 117.003C268.789 118.282 267.855 119.285 266.542 119.285ZM264.641 138.919V122.327H268.443V138.919H264.641ZM275.231 138.919V125.783H271.256V122.327H275.231V115.413H279.034V122.327H283.009V125.783H279.034V138.919H275.231ZM285.772 138.919V114.03H289.574V124.228C290.715 122.811 292.478 121.981 294.518 121.981C298.216 121.981 300.947 124.677 300.947 128.514V138.919H297.145V129.344C297.145 127.131 295.589 125.541 293.377 125.541C291.165 125.541 289.574 127.131 289.574 129.344V138.919H285.772ZM314.255 138.919V125.783H310.28V122.327H314.255V115.413H318.057V122.327H322.033V125.783H318.057V138.919H314.255ZM331.928 139.265C327.088 139.265 323.251 135.428 323.251 130.588C323.251 125.783 327.054 121.981 331.928 121.981C336.802 121.981 340.639 125.749 340.639 130.588C340.639 135.462 336.837 139.265 331.928 139.265ZM331.928 135.601C334.762 135.601 336.733 133.527 336.733 130.588C336.733 127.685 334.728 125.645 331.928 125.645C329.128 125.645 327.158 127.719 327.158 130.588C327.158 133.527 329.128 135.601 331.928 135.601ZM343.801 145.833V122.327H347.604V124.159C348.779 122.811 350.576 121.981 352.685 121.981C357.179 121.981 360.67 125.783 360.67 130.657C360.67 135.497 357.179 139.265 352.685 139.265C350.576 139.265 348.779 138.47 347.604 137.122V145.833H343.801ZM352.063 135.67C354.828 135.67 356.764 133.596 356.764 130.623C356.764 127.65 354.828 125.576 352.063 125.576C349.263 125.576 347.362 127.65 347.362 130.623C347.362 133.596 349.263 135.67 352.063 135.67ZM25.7159 163.285C24.4023 163.285 23.469 162.282 23.469 161.003C23.469 159.724 24.4023 158.722 25.7159 158.722C27.0294 158.722 27.9628 159.724 27.9628 161.003C27.9628 162.282 27.0294 163.285 25.7159 163.285ZM23.8146 182.919V166.327H27.6171V182.919H23.8146ZM31.8819 182.919V166.327H35.6843V168.228C36.8251 166.811 38.588 165.981 40.6275 165.981C44.3608 165.981 47.0571 169.265 47.0571 172.514V182.919H43.2546V173.344C43.2546 171.131 41.6991 169.541 39.4868 169.541C37.2744 169.541 35.6843 171.131 35.6843 173.344V182.919H31.8819ZM53.242 182.919V169.783H49.2667V166.327H53.242V159.413H57.0444V166.327H61.0197V169.783H57.0444V182.919H53.242ZM71.0187 183.265C66.041 183.265 62.2385 179.566 62.2385 174.623C62.2385 169.749 66.0064 165.981 70.8113 165.981C75.4088 165.981 78.7273 169.472 78.7273 174.243C78.7273 174.796 78.6582 175.349 78.5199 176.04H66.1447C66.6977 178.322 68.4953 179.704 70.9841 179.704C72.6779 179.704 74.1989 179.117 75.2014 177.941L77.6211 180.396C75.9964 182.297 73.6113 183.265 71.0187 183.265ZM70.7422 169.472C68.3916 169.472 66.6977 170.786 66.1447 172.929H74.994C74.51 170.717 73.0582 169.472 70.7422 169.472ZM81.7755 182.919V166.327H85.5779V168.055C86.5112 166.741 87.9631 165.981 89.8989 165.981C91.5581 165.981 92.8717 166.569 94.0124 167.882L91.5235 170.44C90.9013 169.818 90.21 169.541 89.2421 169.541C87.0989 169.541 85.5779 170.855 85.5779 173.689V182.919H81.7755ZM95.8523 182.919V166.327H99.6548V168.228C100.796 166.811 102.558 165.981 104.598 165.981C108.331 165.981 111.028 169.265 111.028 172.514V182.919H107.225V173.344C107.225 171.131 105.67 169.541 103.457 169.541C101.245 169.541 99.6548 171.131 99.6548 173.344V182.919H95.8523ZM121.84 183.265C117.346 183.265 113.855 179.497 113.855 174.657C113.855 169.783 117.346 165.981 121.84 165.981C123.948 165.981 125.746 166.811 126.921 168.159V166.327H130.724V182.919H126.921V181.122C125.746 182.47 123.948 183.265 121.84 183.265ZM122.462 179.67C125.262 179.67 127.163 177.596 127.163 174.623C127.163 171.65 125.262 169.576 122.462 169.576C119.696 169.576 117.761 171.65 117.761 174.623C117.761 177.596 119.696 179.67 122.462 179.67ZM137.467 182.919V169.783H133.492V166.327H137.467V159.413H141.269V166.327H145.245V169.783H141.269V182.919H137.467ZM149.943 163.285C148.63 163.285 147.697 162.282 147.697 161.003C147.697 159.724 148.63 158.722 149.943 158.722C151.257 158.722 152.19 159.724 152.19 161.003C152.19 162.282 151.257 163.285 149.943 163.285ZM148.042 182.919V166.327H151.845V182.919H148.042ZM163.714 183.265C158.875 183.265 155.038 179.428 155.038 174.588C155.038 169.783 158.84 165.981 163.714 165.981C168.588 165.981 172.425 169.749 172.425 174.588C172.425 179.462 168.623 183.265 163.714 183.265ZM163.714 179.601C166.549 179.601 168.519 177.527 168.519 174.588C168.519 171.685 166.514 169.645 163.714 169.645C160.914 169.645 158.944 171.719 158.944 174.588C158.944 177.527 160.914 179.601 163.714 179.601ZM175.588 182.919V166.327H179.39V168.228C180.531 166.811 182.294 165.981 184.333 165.981C188.066 165.981 190.763 169.265 190.763 172.514V182.919H186.96V173.344C186.96 171.131 185.405 169.541 183.192 169.541C180.98 169.541 179.39 171.131 179.39 173.344V182.919H175.588ZM201.575 183.265C197.081 183.265 193.59 179.497 193.59 174.657C193.59 169.783 197.081 165.981 201.575 165.981C203.684 165.981 205.481 166.811 206.656 168.159V166.327H210.459V182.919H206.656V181.122C205.481 182.47 203.684 183.265 201.575 183.265ZM202.197 179.67C204.997 179.67 206.898 177.596 206.898 174.623C206.898 171.65 204.997 169.576 202.197 169.576C199.432 169.576 197.496 171.65 197.496 174.623C197.496 177.596 199.432 179.67 202.197 179.67ZM214.679 182.919V158.03H218.481V182.919H214.679ZM235.06 183.265C232.26 183.265 229.772 182.159 228.181 180.223L230.601 177.803C231.742 179.151 233.228 179.808 235.13 179.808C236.823 179.808 237.722 179.289 237.722 178.322C237.722 175.314 229.115 177.112 229.115 171.097C229.115 167.917 231.431 165.981 235.233 165.981C237.895 165.981 239.969 166.949 241.352 168.815L238.932 171.235C237.964 170.025 236.754 169.438 235.13 169.438C233.609 169.438 232.744 169.922 232.744 170.786C232.744 173.517 241.352 171.892 241.352 178.01C241.352 181.26 238.932 183.265 235.06 183.265ZM252.126 183.265C247.183 183.265 243.415 179.497 243.415 174.623C243.415 169.749 247.183 165.981 252.126 165.981C254.684 165.981 257.035 167.018 258.59 168.85L256.101 171.373C255.133 170.233 253.751 169.645 252.126 169.645C249.291 169.645 247.321 171.685 247.321 174.623C247.321 177.561 249.291 179.601 252.126 179.601C253.751 179.601 255.133 179.013 256.101 177.872L258.59 180.396C257.035 182.228 254.684 183.265 252.126 183.265ZM268.599 183.265C263.759 183.265 259.922 179.428 259.922 174.588C259.922 169.783 263.725 165.981 268.599 165.981C273.473 165.981 277.31 169.749 277.31 174.588C277.31 179.462 273.508 183.265 268.599 183.265ZM268.599 179.601C271.433 179.601 273.404 177.527 273.404 174.588C273.404 171.685 271.399 169.645 268.599 169.645C265.799 169.645 263.829 171.719 263.829 174.588C263.829 177.527 265.799 179.601 268.599 179.601ZM287.282 183.265C283.03 183.265 280.057 180.257 280.057 175.971V166.327H283.86V175.798C283.86 178.218 285.104 179.601 287.282 179.601C289.494 179.601 290.704 178.252 290.704 175.798V166.327H294.507V175.971C294.507 180.326 291.568 183.265 287.282 183.265ZM300.853 182.919V169.783H296.878V166.327H300.853V159.413H304.656V166.327H308.631V169.783H304.656V182.919H300.853ZM316.484 183.265C313.684 183.265 311.195 182.159 309.605 180.223L312.024 177.803C313.165 179.151 314.651 179.808 316.553 179.808C318.246 179.808 319.145 179.289 319.145 178.322C319.145 175.314 310.538 177.112 310.538 171.097C310.538 167.917 312.854 165.981 316.656 165.981C319.318 165.981 321.392 166.949 322.775 168.815L320.355 171.235C319.387 170.025 318.177 169.438 316.553 169.438C315.032 169.438 314.167 169.922 314.167 170.786C314.167 173.517 322.775 171.892 322.775 178.01C322.775 181.26 320.355 183.265 316.484 183.265ZM340.677 183.265C335.664 183.265 332.45 180.188 332.45 175.867C332.45 173.136 333.867 170.89 336.632 169.403C335.457 167.951 334.904 166.569 334.904 164.84C334.904 161.211 337.808 158.341 341.818 158.341C344.859 158.341 347.106 160.001 348.351 161.936L345.62 164.356C344.583 162.974 343.511 162.006 341.818 162.006C340.055 162.006 338.706 163.181 338.706 164.736C338.706 166.292 339.363 167.122 340.539 168.435L353.501 182.919H348.938L347.141 180.949C345.585 182.331 343.235 183.265 340.677 183.265ZM336.252 175.764C336.252 178.252 338.084 179.67 340.815 179.67C342.509 179.67 343.788 179.082 344.652 178.252L338.637 171.65C337.116 172.549 336.252 173.793 336.252 175.764ZM369.197 183.265C364.254 183.265 360.486 179.497 360.486 174.623C360.486 169.749 364.254 165.981 369.197 165.981C371.755 165.981 374.106 167.018 375.661 168.85L373.172 171.373C372.204 170.233 370.822 169.645 369.197 169.645C366.362 169.645 364.392 171.685 364.392 174.623C364.392 177.561 366.362 179.601 369.197 179.601C370.822 179.601 372.204 179.013 373.172 177.872L375.661 180.396C374.106 182.228 371.755 183.265 369.197 183.265ZM378.403 182.919V158.03H382.205V182.919H378.403ZM393.247 183.265C388.995 183.265 386.022 180.257 386.022 175.971V166.327H389.824V175.798C389.824 178.218 391.069 179.601 393.247 179.601C395.459 179.601 396.669 178.252 396.669 175.798V166.327H400.471V175.971C400.471 180.326 397.533 183.265 393.247 183.265ZM404.295 182.919V158.03H408.097V168.159C409.272 166.811 411.07 165.981 413.178 165.981C417.672 165.981 421.164 169.783 421.164 174.657C421.164 179.497 417.672 183.265 413.178 183.265C411.07 183.265 409.272 182.47 408.097 181.122V182.919H404.295ZM412.556 179.67C415.322 179.67 417.257 177.596 417.257 174.623C417.257 171.65 415.322 169.576 412.556 169.576C409.756 169.576 407.855 171.65 407.855 174.623C407.855 177.596 409.756 179.67 412.556 179.67ZM429.774 183.265C426.974 183.265 424.485 182.159 422.895 180.223L425.314 177.803C426.455 179.151 427.942 179.808 429.843 179.808C431.537 179.808 432.435 179.289 432.435 178.322C432.435 175.314 423.828 177.112 423.828 171.097C423.828 167.917 426.144 165.981 429.946 165.981C432.608 165.981 434.682 166.949 436.065 168.815L433.645 171.235C432.677 170.025 431.467 169.438 429.843 169.438C428.322 169.438 427.458 169.922 427.458 170.786C427.458 173.517 436.065 171.892 436.065 178.01C436.065 181.26 433.645 183.265 429.774 183.265Z" fill="#061B5C"/>
</svg>
