<svg width="152" height="152" viewBox="0 0 152 152" fill="none" xmlns="http://www.w3.org/2000/svg">
<circle cx="76" cy="76" r="76" fill="#F3F5F6"/>
<path fill-rule="evenodd" clip-rule="evenodd" d="M38.686 60.0004C38.686 46.7454 49.4314 36 62.6865 36C75.9417 36 86.6869 46.7454 86.6869 60.0004C86.6869 73.2556 75.9417 84.0009 62.6865 84.0009C49.4314 84.0009 38.686 73.2556 38.686 60.0004Z" fill="#D6D9DD"/>
<path d="M88.6477 73.6755C88.4051 74.1353 88.508 74.7086 88.9256 75.018C92.0275 77.314 95.866 78.6719 100.021 78.6719C110.331 78.6719 118.688 70.3144 118.688 60.0049C118.688 49.6954 110.331 41.3379 100.021 41.3379C95.866 41.3379 92.0275 42.6958 88.9256 44.992C88.508 45.3013 88.4051 45.8744 88.6477 46.3342C90.8019 50.4164 92.0211 55.0683 92.0211 60.0049C92.0211 64.9415 90.8019 69.5933 88.6477 73.6755Z" fill="#D6D9DD"/>
<path fill-rule="evenodd" clip-rule="evenodd" d="M36.7723 93.0637C43.345 90.2108 51.9688 89.334 62.6863 89.334C73.4132 89.334 82.0432 90.2124 88.6183 93.0717C95.7805 96.1858 100.134 101.49 102.415 108.98C103.485 112.491 100.848 116.001 97.2142 116.001H28.1687C24.5307 116.001 21.8883 112.485 22.9609 108.968C25.2456 101.478 29.6054 96.1746 36.7723 93.0637Z" fill="#D6D9DD"/>
<path d="M91.0517 84.1922C88.8436 84.3293 88.714 87.2958 90.7429 88.1779C96.3024 90.5956 100.489 94.1546 103.491 98.697C105.954 102.425 109.78 105.332 114.248 105.332H123.745C127.516 105.332 130.268 101.584 128.941 97.9226C128.865 97.712 128.786 97.5029 128.704 97.2954C126.877 92.6841 123.747 89.2894 119.112 87.1256C114.761 85.0941 109.313 84.2557 102.896 84.0024L102.79 83.9981H102.685C98.9046 83.9981 94.9563 83.9496 91.0517 84.1922Z" fill="#D6D9DD"/>
<circle cx="123" cy="132" r="20" fill="#E5E8EB"/>
<path d="M117 132H129" stroke="#9DA2AA" stroke-width="3" stroke-linecap="round" stroke-linejoin="round"/>
<path d="M123 138L123 126" stroke="#9DA2AA" stroke-width="3" stroke-linecap="round" stroke-linejoin="round"/>
</svg>
