<svg width="65" height="65" viewBox="0 0 65 65" fill="none" xmlns="http://www.w3.org/2000/svg">
<path d="M46.0415 5.41797H18.9582C11.4832 5.41797 5.4165 11.4576 5.4165 18.9055V35.1013V37.8096C5.4165 45.2575 11.4832 51.2971 18.9582 51.2971H23.0207C23.7519 51.2971 24.7269 51.7846 25.1873 52.3805L29.2498 57.7701C31.0373 60.1534 33.9623 60.1534 35.7498 57.7701L39.8123 52.3805C40.3269 51.7034 41.1394 51.2971 41.979 51.2971H46.0415C53.5165 51.2971 59.5832 45.2575 59.5832 37.8096V18.9055C59.5832 11.4576 53.5165 5.41797 46.0415 5.41797ZM35.2082 37.2409H18.9582C17.8478 37.2409 16.9269 36.3201 16.9269 35.2096C16.9269 34.0992 17.8478 33.1784 18.9582 33.1784H35.2082C36.3186 33.1784 37.2394 34.0992 37.2394 35.2096C37.2394 36.3201 36.3186 37.2409 35.2082 37.2409ZM46.0415 23.6992H18.9582C17.8478 23.6992 16.9269 22.7784 16.9269 21.668C16.9269 20.5576 17.8478 19.6367 18.9582 19.6367H46.0415C47.1519 19.6367 48.0728 20.5576 48.0728 21.668C48.0728 22.7784 47.1519 23.6992 46.0415 23.6992Z" fill="#1D69D8"/>
</svg>
