<svg width="188" height="191" viewBox="0 0 188 191" fill="none" xmlns="http://www.w3.org/2000/svg">
<circle cx="21.5" cy="21.5" r="21.5" fill="#1D69D8"/>
<circle cx="21.5" cy="95.5" r="21" fill="#CEDEFF" stroke="#1D69D8"/>
<path opacity="0.5" d="M42.5 170C42.5 181.311 33.1091 190.5 21.5 190.5C9.89086 190.5 0.5 181.311 0.5 170C0.5 158.689 9.89086 149.5 21.5 149.5C33.1091 149.5 42.5 158.689 42.5 170Z" fill="#CEDEFF" stroke="#1D69D8"/>
<path d="M69.7125 27.16C68.8378 27.16 68.0912 27 67.4725 26.68C66.8538 26.36 66.3045 25.896 65.8245 25.288L66.8485 24.264C67.2005 24.7547 67.6058 25.128 68.0645 25.384C68.5232 25.6293 69.0885 25.752 69.7605 25.752C70.4218 25.752 70.9498 25.608 71.3445 25.32C71.7498 25.032 71.9525 24.6373 71.9525 24.136C71.9525 23.72 71.8565 23.384 71.6645 23.128C71.4725 22.872 71.2112 22.664 70.8805 22.504C70.5605 22.3333 70.2085 22.184 69.8245 22.056C69.4405 21.9173 69.0565 21.7733 68.6725 21.624C68.2885 21.464 67.9365 21.272 67.6165 21.048C67.2965 20.8133 67.0352 20.5093 66.8325 20.136C66.6405 19.7627 66.5445 19.2933 66.5445 18.728C66.5445 18.0987 66.6938 17.5653 66.9925 17.128C67.3018 16.68 67.7178 16.3387 68.2405 16.104C68.7738 15.8587 69.3712 15.736 70.0325 15.736C70.7578 15.736 71.4085 15.88 71.9845 16.168C72.5605 16.4453 73.0298 16.8133 73.3925 17.272L72.3685 18.296C72.0378 17.912 71.6805 17.624 71.2965 17.432C70.9232 17.24 70.4912 17.144 70.0005 17.144C69.4032 17.144 68.9285 17.2773 68.5765 17.544C68.2245 17.8 68.0485 18.1627 68.0485 18.632C68.0485 19.0053 68.1445 19.3093 68.3365 19.544C68.5392 19.768 68.8005 19.96 69.1205 20.12C69.4405 20.28 69.7925 20.4293 70.1765 20.568C70.5712 20.696 70.9605 20.84 71.3445 21C71.7285 21.16 72.0805 21.3627 72.4005 21.608C72.7205 21.8533 72.9765 22.1733 73.1685 22.568C73.3712 22.952 73.4725 23.4373 73.4725 24.024C73.4725 25.0053 73.1312 25.7733 72.4485 26.328C71.7765 26.8827 70.8645 27.16 69.7125 27.16ZM75.2595 27V19.4H76.6995V27H75.2595ZM75.9795 17.88C75.7128 17.88 75.4942 17.7947 75.3235 17.624C75.1528 17.4427 75.0675 17.2187 75.0675 16.952C75.0675 16.696 75.1528 16.4827 75.3235 16.312C75.4942 16.1307 75.7128 16.04 75.9795 16.04C76.2462 16.04 76.4648 16.1307 76.6355 16.312C76.8062 16.4827 76.8915 16.696 76.8915 16.952C76.8915 17.2187 76.8062 17.4427 76.6355 17.624C76.4648 17.7947 76.2462 17.88 75.9795 17.88ZM81.9736 30.344C81.195 30.344 80.5016 30.2 79.8936 29.912C79.2963 29.624 78.8163 29.2187 78.4536 28.696L79.3816 27.752C79.691 28.1467 80.059 28.4453 80.4856 28.648C80.9123 28.8613 81.419 28.968 82.0056 28.968C82.7843 28.968 83.3976 28.76 83.8456 28.344C84.3043 27.9387 84.5336 27.3893 84.5336 26.696V24.808L84.7896 23.096L84.5336 21.4V19.4H85.9736V26.696C85.9736 27.4213 85.803 28.056 85.4616 28.6C85.131 29.144 84.6616 29.5707 84.0536 29.88C83.4563 30.1893 82.763 30.344 81.9736 30.344ZM81.9736 26.872C81.2803 26.872 80.6563 26.7067 80.1016 26.376C79.5576 26.0453 79.1256 25.592 78.8056 25.016C78.4856 24.4293 78.3256 23.7733 78.3256 23.048C78.3256 22.3227 78.4856 21.6773 78.8056 21.112C79.1256 20.536 79.5576 20.0827 80.1016 19.752C80.6563 19.4107 81.2803 19.24 81.9736 19.24C82.571 19.24 83.099 19.3573 83.5576 19.592C84.0163 19.8267 84.379 20.1573 84.6456 20.584C84.923 21 85.0723 21.4907 85.0936 22.056V24.072C85.0616 24.6267 84.907 25.1173 84.6296 25.544C84.363 25.96 84.0003 26.2853 83.5416 26.52C83.083 26.7547 82.5603 26.872 81.9736 26.872ZM82.2616 25.512C82.731 25.512 83.1416 25.4107 83.4936 25.208C83.8563 25.0053 84.1336 24.7227 84.3256 24.36C84.5176 23.9867 84.6136 23.5547 84.6136 23.064C84.6136 22.5733 84.5123 22.1467 84.3096 21.784C84.1176 21.4107 83.8456 21.1227 83.4936 20.92C83.1416 20.7067 82.7256 20.6 82.2456 20.6C81.7656 20.6 81.3443 20.7067 80.9816 20.92C80.619 21.1227 80.331 21.4107 80.1176 21.784C79.915 22.1467 79.8136 22.568 79.8136 23.048C79.8136 23.528 79.915 23.9547 80.1176 24.328C80.331 24.7013 80.619 24.9947 80.9816 25.208C81.355 25.4107 81.7816 25.512 82.2616 25.512ZM93.4633 27V22.568C93.4633 21.992 93.2819 21.5173 92.9193 21.144C92.5566 20.7707 92.0873 20.584 91.5113 20.584C91.1273 20.584 90.7859 20.6693 90.4873 20.84C90.1886 21.0107 89.9539 21.2453 89.7833 21.544C89.6126 21.8427 89.5273 22.184 89.5273 22.568L88.9353 22.232C88.9353 21.656 89.0633 21.144 89.3193 20.696C89.5753 20.248 89.9326 19.896 90.3913 19.64C90.8499 19.3733 91.3673 19.24 91.9433 19.24C92.5193 19.24 93.0259 19.384 93.4633 19.672C93.9113 19.96 94.2633 20.3387 94.5193 20.808C94.7753 21.2667 94.9033 21.7573 94.9033 22.28V27H93.4633ZM88.0872 27V19.4H89.5273V27H88.0872ZM103.237 27.16C102.618 27.16 102.058 27.0213 101.557 26.744C101.066 26.456 100.682 26.0613 100.405 25.56C100.128 25.0587 99.989 24.4773 99.989 23.816V19.4H101.429V23.752C101.429 24.168 101.498 24.5307 101.637 24.84C101.786 25.1387 102 25.368 102.277 25.528C102.554 25.688 102.88 25.768 103.253 25.768C103.818 25.768 104.261 25.592 104.581 25.24C104.901 24.8773 105.061 24.3813 105.061 23.752V19.4H106.501V23.816C106.501 24.4773 106.362 25.0587 106.085 25.56C105.808 26.0613 105.424 26.456 104.933 26.744C104.453 27.0213 103.888 27.16 103.237 27.16ZM112.431 27.16C111.855 27.16 111.332 27.0427 110.863 26.808C110.404 26.5627 110.036 26.2267 109.759 25.8C109.482 25.3733 109.327 24.888 109.295 24.344V22.056C109.327 21.5013 109.482 21.016 109.759 20.6C110.047 20.1733 110.42 19.8427 110.879 19.608C111.348 19.3627 111.866 19.24 112.431 19.24C113.124 19.24 113.748 19.416 114.303 19.768C114.868 20.12 115.311 20.5947 115.631 21.192C115.951 21.7893 116.111 22.4613 116.111 23.208C116.111 23.9547 115.951 24.6267 115.631 25.224C115.311 25.8213 114.868 26.296 114.303 26.648C113.748 26.9893 113.124 27.16 112.431 27.16ZM108.431 30.184V19.4H109.871V21.4L109.599 23.24L109.871 25.096V30.184H108.431ZM112.191 25.8C112.671 25.8 113.092 25.688 113.455 25.464C113.818 25.24 114.106 24.936 114.319 24.552C114.532 24.1573 114.639 23.704 114.639 23.192C114.639 22.6907 114.532 22.2427 114.319 21.848C114.106 21.4533 113.818 21.1493 113.455 20.936C113.092 20.712 112.676 20.6 112.207 20.6C111.727 20.6 111.306 20.712 110.943 20.936C110.58 21.1493 110.298 21.4533 110.095 21.848C109.892 22.2427 109.791 22.696 109.791 23.208C109.791 23.7093 109.887 24.1573 110.079 24.552C110.282 24.936 110.564 25.24 110.927 25.464C111.3 25.688 111.722 25.8 112.191 25.8Z" fill="#304C75"/>
<path d="M71.7884 102.16C70.9777 102.16 70.2257 102.016 69.5324 101.728C68.8497 101.429 68.2524 101.019 67.7404 100.496C67.2284 99.9627 66.8337 99.3493 66.5564 98.656C66.279 97.952 66.1404 97.2 66.1404 96.4C66.1404 95.6 66.279 94.8533 66.5564 94.16C66.8337 93.456 67.2284 92.8427 67.7404 92.32C68.2524 91.7973 68.8497 91.3867 69.5324 91.088C70.2257 90.7893 70.9777 90.64 71.7884 90.64C72.695 90.64 73.479 90.7893 74.1404 91.088C74.8017 91.3867 75.3884 91.792 75.9004 92.304L74.6524 93.552C74.3217 93.1893 73.9164 92.9067 73.4364 92.704C72.967 92.5013 72.4177 92.4 71.7884 92.4C71.2337 92.4 70.727 92.496 70.2684 92.688C69.8097 92.88 69.4097 93.1573 69.0684 93.52C68.7377 93.872 68.4817 94.2933 68.3004 94.784C68.119 95.2747 68.0284 95.8133 68.0284 96.4C68.0284 96.9867 68.119 97.5253 68.3004 98.016C68.4817 98.5067 68.7377 98.9333 69.0684 99.296C69.4097 99.648 69.8097 99.92 70.2684 100.112C70.727 100.304 71.2337 100.4 71.7884 100.4C72.471 100.4 73.047 100.299 73.5164 100.096C73.9964 99.8827 74.4017 99.5947 74.7324 99.232L75.9804 100.48C75.4684 101.003 74.8657 101.413 74.1724 101.712C73.479 102.011 72.6844 102.16 71.7884 102.16ZM77.3823 102V94.32H79.1423V102H77.3823ZM79.1423 97.728L78.5343 97.424C78.5343 96.4533 78.7476 95.6693 79.1743 95.072C79.6116 94.464 80.2676 94.16 81.1423 94.16C81.5263 94.16 81.8729 94.2293 82.1823 94.368C82.4916 94.5067 82.7796 94.7307 83.0463 95.04L81.8943 96.224C81.7556 96.0747 81.6009 95.968 81.4303 95.904C81.2596 95.84 81.0623 95.808 80.8383 95.808C80.3476 95.808 79.9423 95.9627 79.6223 96.272C79.3023 96.5813 79.1423 97.0667 79.1423 97.728ZM87.2315 102.16C86.4635 102.16 85.7702 101.989 85.1515 101.648C84.5435 101.296 84.0582 100.816 83.6955 100.208C83.3435 99.6 83.1675 98.9173 83.1675 98.16C83.1675 97.4027 83.3435 96.7253 83.6955 96.128C84.0475 95.52 84.5222 95.04 85.1195 94.688C85.7275 94.336 86.3995 94.16 87.1355 94.16C87.8502 94.16 88.4795 94.3253 89.0235 94.656C89.5782 94.9867 90.0102 95.44 90.3195 96.016C90.6395 96.592 90.7995 97.248 90.7995 97.984C90.7995 98.112 90.7888 98.2453 90.7675 98.384C90.7568 98.512 90.7355 98.656 90.7035 98.816H84.3995V97.376H89.7915L89.1355 97.952C89.1142 97.4827 89.0235 97.088 88.8635 96.768C88.7035 96.448 88.4742 96.2027 88.1755 96.032C87.8875 95.8613 87.5302 95.776 87.1035 95.776C86.6555 95.776 86.2662 95.872 85.9355 96.064C85.6048 96.256 85.3488 96.528 85.1675 96.88C84.9862 97.2213 84.8955 97.632 84.8955 98.112C84.8955 98.592 84.9915 99.0133 85.1835 99.376C85.3755 99.7387 85.6475 100.021 85.9995 100.224C86.3515 100.416 86.7568 100.512 87.2155 100.512C87.6102 100.512 87.9728 100.443 88.3035 100.304C88.6448 100.165 88.9328 99.9627 89.1675 99.696L90.2875 100.832C89.9142 101.269 89.4608 101.6 88.9275 101.824C88.3942 102.048 87.8288 102.16 87.2315 102.16ZM95.4264 102.16C94.733 102.16 94.1037 101.984 93.5384 101.632C92.9837 101.28 92.541 100.805 92.2104 100.208C91.8904 99.6 91.7304 98.9227 91.7304 98.176C91.7304 97.4187 91.8904 96.7413 92.2104 96.144C92.541 95.536 92.9837 95.056 93.5384 94.704C94.1037 94.3413 94.733 94.16 95.4264 94.16C96.013 94.16 96.5304 94.288 96.9784 94.544C97.437 94.7893 97.7997 95.1307 98.0664 95.568C98.333 96.0053 98.4664 96.5013 98.4664 97.056V99.264C98.4664 99.8187 98.333 100.315 98.0664 100.752C97.8104 101.189 97.453 101.536 96.9944 101.792C96.5357 102.037 96.013 102.16 95.4264 102.16ZM95.7144 100.496C96.365 100.496 96.8877 100.277 97.2824 99.84C97.6877 99.4027 97.8904 98.8427 97.8904 98.16C97.8904 97.7013 97.7997 97.296 97.6184 96.944C97.437 96.592 97.181 96.32 96.8504 96.128C96.5304 95.9253 96.1517 95.824 95.7144 95.824C95.2877 95.824 94.909 95.9253 94.5784 96.128C94.2584 96.32 94.0024 96.592 93.8104 96.944C93.629 97.296 93.5384 97.7013 93.5384 98.16C93.5384 98.6187 93.629 99.024 93.8104 99.376C94.0024 99.728 94.2584 100.005 94.5784 100.208C94.909 100.4 95.2877 100.496 95.7144 100.496ZM97.7784 102V99.936L98.0824 98.064L97.7784 96.208V94.32H99.5384V102H97.7784ZM102.66 102V91.12H104.42V102H102.66ZM100.82 95.92V94.32H106.26V95.92H100.82ZM110.888 102.16C110.12 102.16 109.426 101.989 108.808 101.648C108.2 101.296 107.714 100.816 107.352 100.208C107 99.6 106.824 98.9173 106.824 98.16C106.824 97.4027 107 96.7253 107.352 96.128C107.704 95.52 108.178 95.04 108.776 94.688C109.384 94.336 110.056 94.16 110.792 94.16C111.506 94.16 112.136 94.3253 112.68 94.656C113.234 94.9867 113.666 95.44 113.976 96.016C114.296 96.592 114.456 97.248 114.456 97.984C114.456 98.112 114.445 98.2453 114.424 98.384C114.413 98.512 114.392 98.656 114.36 98.816H108.056V97.376H113.448L112.792 97.952C112.77 97.4827 112.68 97.088 112.52 96.768C112.36 96.448 112.13 96.2027 111.832 96.032C111.544 95.8613 111.186 95.776 110.76 95.776C110.312 95.776 109.922 95.872 109.592 96.064C109.261 96.256 109.005 96.528 108.824 96.88C108.642 97.2213 108.552 97.632 108.552 98.112C108.552 98.592 108.648 99.0133 108.84 99.376C109.032 99.7387 109.304 100.021 109.656 100.224C110.008 100.416 110.413 100.512 110.872 100.512C111.266 100.512 111.629 100.443 111.96 100.304C112.301 100.165 112.589 99.9627 112.824 99.696L113.944 100.832C113.57 101.269 113.117 101.6 112.584 101.824C112.05 102.048 111.485 102.16 110.888 102.16ZM120.574 97.776V96.176H123.374C123.758 96.176 124.094 96.1013 124.382 95.952C124.68 95.792 124.915 95.5733 125.086 95.296C125.256 95.008 125.342 94.672 125.342 94.288C125.342 93.904 125.256 93.5733 125.086 93.296C124.915 93.008 124.68 92.7893 124.382 92.64C124.094 92.48 123.758 92.4 123.374 92.4H120.574V90.8H123.47C124.174 90.8 124.803 90.944 125.358 91.232C125.923 91.52 126.366 91.9253 126.686 92.448C127.016 92.9707 127.182 93.584 127.182 94.288C127.182 94.992 127.016 95.6053 126.686 96.128C126.366 96.6507 125.923 97.056 125.358 97.344C124.803 97.632 124.174 97.776 123.47 97.776H120.574ZM119.31 102V90.8H121.15V102H119.31ZM128.726 102V94.32H130.486V102H128.726ZM130.486 97.728L129.878 97.424C129.878 96.4533 130.091 95.6693 130.518 95.072C130.955 94.464 131.611 94.16 132.486 94.16C132.87 94.16 133.217 94.2293 133.526 94.368C133.835 94.5067 134.123 94.7307 134.39 95.04L133.238 96.224C133.099 96.0747 132.945 95.968 132.774 95.904C132.603 95.84 132.406 95.808 132.182 95.808C131.691 95.808 131.286 95.9627 130.966 96.272C130.646 96.5813 130.486 97.0667 130.486 97.728ZM138.527 102.16C137.781 102.16 137.103 101.984 136.495 101.632C135.887 101.269 135.402 100.784 135.039 100.176C134.687 99.568 134.511 98.8907 134.511 98.144C134.511 97.3973 134.687 96.7253 135.039 96.128C135.402 95.5307 135.887 95.056 136.495 94.704C137.103 94.3413 137.781 94.16 138.527 94.16C139.285 94.16 139.967 94.336 140.575 94.688C141.183 95.04 141.663 95.52 142.015 96.128C142.378 96.7253 142.559 97.3973 142.559 98.144C142.559 98.8907 142.378 99.568 142.015 100.176C141.663 100.784 141.183 101.269 140.575 101.632C139.967 101.984 139.285 102.16 138.527 102.16ZM138.527 100.464C138.965 100.464 139.349 100.368 139.679 100.176C140.021 99.9733 140.282 99.696 140.463 99.344C140.655 98.992 140.751 98.592 140.751 98.144C140.751 97.696 140.655 97.3013 140.463 96.96C140.271 96.6187 140.01 96.352 139.679 96.16C139.349 95.9573 138.965 95.856 138.527 95.856C138.101 95.856 137.717 95.9573 137.375 96.16C137.045 96.352 136.783 96.6187 136.591 96.96C136.41 97.3013 136.319 97.696 136.319 98.144C136.319 98.592 136.41 98.992 136.591 99.344C136.783 99.696 137.045 99.9733 137.375 100.176C137.717 100.368 138.101 100.464 138.527 100.464ZM144.86 102V92.992C144.86 92.48 144.972 92.0267 145.196 91.632C145.431 91.2267 145.751 90.9067 146.156 90.672C146.561 90.4373 147.036 90.32 147.58 90.32C147.985 90.32 148.337 90.3893 148.636 90.528C148.945 90.656 149.233 90.8427 149.5 91.088L148.348 92.24C148.241 92.1547 148.124 92.0907 147.996 92.048C147.879 91.9947 147.74 91.968 147.58 91.968C147.271 91.968 147.031 92.0587 146.86 92.24C146.7 92.4213 146.62 92.6667 146.62 92.976V102H144.86ZM143.02 95.92V94.32H150.508V95.92H143.02ZM149.5 102V94.32H151.26V102H149.5ZM150.38 93.648C150.081 93.648 149.831 93.5467 149.628 93.344C149.436 93.1413 149.34 92.8907 149.34 92.592C149.34 92.2933 149.436 92.0427 149.628 91.84C149.831 91.6373 150.081 91.536 150.38 91.536C150.689 91.536 150.94 91.6373 151.132 91.84C151.324 92.0427 151.42 92.2933 151.42 92.592C151.42 92.8907 151.324 93.1413 151.132 93.344C150.94 93.5467 150.689 93.648 150.38 93.648ZM153.226 102V90.48H154.986V102H153.226ZM160.513 102.16C159.745 102.16 159.051 101.989 158.433 101.648C157.825 101.296 157.339 100.816 156.977 100.208C156.625 99.6 156.449 98.9173 156.449 98.16C156.449 97.4027 156.625 96.7253 156.977 96.128C157.329 95.52 157.803 95.04 158.401 94.688C159.009 94.336 159.681 94.16 160.417 94.16C161.131 94.16 161.761 94.3253 162.305 94.656C162.859 94.9867 163.291 95.44 163.601 96.016C163.921 96.592 164.081 97.248 164.081 97.984C164.081 98.112 164.07 98.2453 164.049 98.384C164.038 98.512 164.017 98.656 163.985 98.816H157.681V97.376H163.073L162.417 97.952C162.395 97.4827 162.305 97.088 162.145 96.768C161.985 96.448 161.755 96.2027 161.457 96.032C161.169 95.8613 160.811 95.776 160.385 95.776C159.937 95.776 159.547 95.872 159.217 96.064C158.886 96.256 158.63 96.528 158.449 96.88C158.267 97.2213 158.177 97.632 158.177 98.112C158.177 98.592 158.273 99.0133 158.465 99.376C158.657 99.7387 158.929 100.021 159.281 100.224C159.633 100.416 160.038 100.512 160.497 100.512C160.891 100.512 161.254 100.443 161.585 100.304C161.926 100.165 162.214 99.9627 162.449 99.696L163.569 100.832C163.195 101.269 162.742 101.6 162.209 101.824C161.675 102.048 161.11 102.16 160.513 102.16Z" fill="#14376A"/>
<path opacity="0.5" d="M21.1157 174.16C20.369 174.16 19.6917 174.027 19.0837 173.76C18.4864 173.483 17.9797 173.083 17.5637 172.56L18.8117 171.312C19.0357 171.653 19.3504 171.925 19.7557 172.128C20.161 172.331 20.6037 172.432 21.0837 172.432C21.5424 172.432 21.937 172.347 22.2677 172.176C22.5984 172.005 22.8544 171.765 23.0357 171.456C23.2277 171.147 23.3237 170.789 23.3237 170.384C23.3237 169.957 23.2277 169.595 23.0357 169.296C22.8544 168.997 22.5877 168.768 22.2357 168.608C21.8944 168.437 21.4784 168.352 20.9877 168.352C20.7957 168.352 20.5984 168.368 20.3957 168.4C20.193 168.421 20.0117 168.459 19.8517 168.512L20.6677 167.456C20.8917 167.371 21.1264 167.301 21.3717 167.248C21.6277 167.184 21.873 167.152 22.1077 167.152C22.6837 167.152 23.201 167.291 23.6597 167.568C24.129 167.845 24.497 168.235 24.7637 168.736C25.041 169.227 25.1797 169.808 25.1797 170.48C25.1797 171.205 25.009 171.845 24.6677 172.4C24.3264 172.955 23.8517 173.387 23.2437 173.696C22.6357 174.005 21.9264 174.16 21.1157 174.16ZM19.8517 168.512V167.424L22.8437 163.936L25.0517 163.888L21.9317 167.472L19.8517 168.512ZM18.1237 164.448V162.8H25.0517V163.888L23.4677 164.448H18.1237Z" fill="#1D69D8"/>
<path opacity="0.5" d="M17.6199 99.912L21.7479 95.528C22.0892 95.1653 22.3665 94.84 22.5799 94.552C22.7932 94.264 22.9479 93.992 23.0439 93.736C23.1399 93.48 23.1879 93.2187 23.1879 92.952C23.1879 92.4507 23.0225 92.0613 22.6919 91.784C22.3719 91.496 21.9612 91.352 21.4599 91.352C20.9265 91.352 20.4572 91.4853 20.0519 91.752C19.6465 92.0187 19.2839 92.4347 18.9639 93L17.6839 91.944C18.1212 91.1867 18.6599 90.616 19.2999 90.232C19.9399 89.8373 20.6812 89.64 21.5239 89.64C22.2172 89.64 22.8252 89.7787 23.3479 90.056C23.8705 90.3333 24.2759 90.7227 24.5639 91.224C24.8519 91.7147 24.9959 92.2853 24.9959 92.936C24.9959 93.4053 24.9372 93.8267 24.8199 94.2C24.7132 94.5627 24.5265 94.9307 24.2599 95.304C23.9932 95.6667 23.6252 96.0933 23.1559 96.584L19.9879 99.864L17.6199 99.912ZM17.6199 101V99.912L19.2039 99.352H25.2199V101H17.6199Z" fill="#1D69D8"/>
<path opacity="0.5" d="M70.6048 174.16C69.7835 174.16 69.0475 173.979 68.3968 173.616C67.7568 173.243 67.2501 172.736 66.8768 172.096C66.5035 171.445 66.3168 170.709 66.3168 169.888V162.896H67.8208V169.856C67.8208 170.443 67.9435 170.949 68.1888 171.376C68.4341 171.803 68.7648 172.133 69.1808 172.368C69.6075 172.603 70.0821 172.72 70.6048 172.72C71.1488 172.72 71.6235 172.603 72.0288 172.368C72.4448 172.133 72.7701 171.803 73.0048 171.376C73.2501 170.949 73.3728 170.448 73.3728 169.872V162.896H74.8928V169.904C74.8928 170.725 74.7061 171.456 74.3328 172.096C73.9595 172.736 73.4528 173.243 72.8128 173.616C72.1728 173.979 71.4368 174.16 70.6048 174.16ZM81.1107 174.16C80.5347 174.16 80.012 174.043 79.5427 173.808C79.084 173.563 78.716 173.227 78.4387 172.8C78.1614 172.373 78.0067 171.888 77.9747 171.344V169.056C78.0067 168.501 78.1614 168.016 78.4387 167.6C78.7267 167.173 79.1 166.843 79.5587 166.608C80.028 166.363 80.5454 166.24 81.1107 166.24C81.804 166.24 82.428 166.416 82.9827 166.768C83.548 167.12 83.9907 167.595 84.3107 168.192C84.6307 168.789 84.7907 169.461 84.7907 170.208C84.7907 170.955 84.6307 171.627 84.3107 172.224C83.9907 172.821 83.548 173.296 82.9827 173.648C82.428 173.989 81.804 174.16 81.1107 174.16ZM77.1107 177.184V166.4H78.5507V168.4L78.2787 170.24L78.5507 172.096V177.184H77.1107ZM80.8707 172.8C81.3507 172.8 81.772 172.688 82.1347 172.464C82.4974 172.24 82.7854 171.936 82.9987 171.552C83.212 171.157 83.3187 170.704 83.3187 170.192C83.3187 169.691 83.212 169.243 82.9987 168.848C82.7854 168.453 82.4974 168.149 82.1347 167.936C81.772 167.712 81.356 167.6 80.8867 167.6C80.4067 167.6 79.9854 167.712 79.6227 167.936C79.26 168.149 78.9774 168.453 78.7747 168.848C78.572 169.243 78.4707 169.696 78.4707 170.208C78.4707 170.709 78.5667 171.157 78.7587 171.552C78.9614 171.936 79.244 172.24 79.6067 172.464C79.98 172.688 80.4014 172.8 80.8707 172.8ZM89.5752 177.344C88.7965 177.344 88.1032 177.2 87.4952 176.912C86.8979 176.624 86.4179 176.219 86.0552 175.696L86.9832 174.752C87.2925 175.147 87.6605 175.445 88.0872 175.648C88.5139 175.861 89.0205 175.968 89.6072 175.968C90.3859 175.968 90.9992 175.76 91.4472 175.344C91.9059 174.939 92.1352 174.389 92.1352 173.696V171.808L92.3912 170.096L92.1352 168.4V166.4H93.5752V173.696C93.5752 174.421 93.4045 175.056 93.0632 175.6C92.7325 176.144 92.2632 176.571 91.6552 176.88C91.0579 177.189 90.3645 177.344 89.5752 177.344ZM89.5752 173.872C88.8819 173.872 88.2579 173.707 87.7032 173.376C87.1592 173.045 86.7272 172.592 86.4072 172.016C86.0872 171.429 85.9272 170.773 85.9272 170.048C85.9272 169.323 86.0872 168.677 86.4072 168.112C86.7272 167.536 87.1592 167.083 87.7032 166.752C88.2579 166.411 88.8819 166.24 89.5752 166.24C90.1725 166.24 90.7005 166.357 91.1592 166.592C91.6179 166.827 91.9805 167.157 92.2472 167.584C92.5245 168 92.6739 168.491 92.6952 169.056V171.072C92.6632 171.627 92.5085 172.117 92.2312 172.544C91.9645 172.96 91.6019 173.285 91.1432 173.52C90.6845 173.755 90.1619 173.872 89.5752 173.872ZM89.8632 172.512C90.3325 172.512 90.7432 172.411 91.0952 172.208C91.4579 172.005 91.7352 171.723 91.9272 171.36C92.1192 170.987 92.2152 170.555 92.2152 170.064C92.2152 169.573 92.1139 169.147 91.9112 168.784C91.7192 168.411 91.4472 168.123 91.0952 167.92C90.7432 167.707 90.3272 167.6 89.8472 167.6C89.3672 167.6 88.9459 167.707 88.5832 167.92C88.2205 168.123 87.9325 168.411 87.7192 168.784C87.5165 169.147 87.4152 169.568 87.4152 170.048C87.4152 170.528 87.5165 170.955 87.7192 171.328C87.9325 171.701 88.2205 171.995 88.5832 172.208C88.9565 172.411 89.3832 172.512 89.8632 172.512ZM95.6888 174V166.4H97.1288V174H95.6888ZM97.1288 169.664L96.5848 169.424C96.5848 168.453 96.8088 167.68 97.2568 167.104C97.7048 166.528 98.3501 166.24 99.1928 166.24C99.5768 166.24 99.9235 166.309 100.233 166.448C100.542 166.576 100.83 166.795 101.097 167.104L100.153 168.08C99.9928 167.909 99.8168 167.787 99.6248 167.712C99.4328 167.637 99.2088 167.6 98.9528 167.6C98.4195 167.6 97.9821 167.771 97.6408 168.112C97.2995 168.453 97.1288 168.971 97.1288 169.664ZM105.093 174.16C104.399 174.16 103.77 173.989 103.205 173.648C102.639 173.296 102.191 172.821 101.861 172.224C101.541 171.627 101.381 170.955 101.381 170.208C101.381 169.461 101.541 168.789 101.861 168.192C102.191 167.595 102.634 167.12 103.189 166.768C103.754 166.416 104.389 166.24 105.093 166.24C105.669 166.24 106.181 166.363 106.629 166.608C107.087 166.843 107.455 167.173 107.733 167.6C108.01 168.016 108.165 168.501 108.197 169.056V171.344C108.165 171.888 108.01 172.373 107.733 172.8C107.466 173.227 107.103 173.563 106.645 173.808C106.197 174.043 105.679 174.16 105.093 174.16ZM105.333 172.8C106.047 172.8 106.623 172.56 107.061 172.08C107.498 171.589 107.717 170.965 107.717 170.208C107.717 169.685 107.615 169.232 107.413 168.848C107.221 168.453 106.943 168.149 106.581 167.936C106.218 167.712 105.797 167.6 105.317 167.6C104.837 167.6 104.41 167.712 104.037 167.936C103.674 168.16 103.386 168.469 103.173 168.864C102.97 169.248 102.869 169.691 102.869 170.192C102.869 170.704 102.97 171.157 103.173 171.552C103.386 171.936 103.679 172.24 104.053 172.464C104.426 172.688 104.853 172.8 105.333 172.8ZM107.621 174V171.952L107.893 170.096L107.621 168.256V166.4H109.077V174H107.621ZM114.389 174.16C113.685 174.16 113.056 173.989 112.501 173.648C111.947 173.296 111.504 172.821 111.173 172.224C110.853 171.627 110.693 170.955 110.693 170.208C110.693 169.461 110.853 168.789 111.173 168.192C111.504 167.595 111.947 167.12 112.501 166.768C113.056 166.416 113.685 166.24 114.389 166.24C114.955 166.24 115.467 166.363 115.925 166.608C116.384 166.843 116.752 167.173 117.029 167.6C117.317 168.016 117.477 168.501 117.509 169.056V171.344C117.477 171.888 117.323 172.373 117.045 172.8C116.768 173.227 116.4 173.563 115.941 173.808C115.483 174.043 114.965 174.16 114.389 174.16ZM114.629 172.8C115.109 172.8 115.525 172.688 115.877 172.464C116.24 172.24 116.523 171.936 116.725 171.552C116.928 171.157 117.029 170.709 117.029 170.208C117.029 169.685 116.923 169.232 116.709 168.848C116.507 168.464 116.224 168.16 115.861 167.936C115.509 167.712 115.093 167.6 114.613 167.6C114.133 167.6 113.712 167.712 113.349 167.936C112.987 168.16 112.699 168.469 112.485 168.864C112.283 169.248 112.181 169.691 112.181 170.192C112.181 170.704 112.283 171.157 112.485 171.552C112.699 171.936 112.987 172.24 113.349 172.464C113.723 172.688 114.149 172.8 114.629 172.8ZM118.389 174H116.933V171.952L117.205 170.096L116.933 168.256V162.576H118.389V174ZM124.006 174.16C123.248 174.16 122.566 173.989 121.958 173.648C121.35 173.296 120.87 172.821 120.518 172.224C120.166 171.627 119.99 170.949 119.99 170.192C119.99 169.445 120.16 168.773 120.502 168.176C120.854 167.579 121.323 167.109 121.91 166.768C122.507 166.416 123.174 166.24 123.91 166.24C124.614 166.24 125.232 166.4 125.766 166.72C126.31 167.04 126.731 167.483 127.03 168.048C127.339 168.613 127.494 169.253 127.494 169.968C127.494 170.075 127.488 170.192 127.478 170.32C127.467 170.437 127.446 170.576 127.414 170.736H120.998V169.536H126.646L126.118 170C126.118 169.488 126.027 169.056 125.846 168.704C125.664 168.341 125.408 168.064 125.078 167.872C124.747 167.669 124.347 167.568 123.878 167.568C123.387 167.568 122.955 167.675 122.582 167.888C122.208 168.101 121.92 168.4 121.718 168.784C121.515 169.168 121.414 169.621 121.414 170.144C121.414 170.677 121.52 171.147 121.734 171.552C121.947 171.947 122.251 172.256 122.646 172.48C123.04 172.693 123.494 172.8 124.006 172.8C124.432 172.8 124.822 172.725 125.174 172.576C125.536 172.427 125.846 172.203 126.102 171.904L127.03 172.848C126.667 173.275 126.219 173.6 125.686 173.824C125.163 174.048 124.603 174.16 124.006 174.16ZM135.624 174.16C134.931 174.16 134.301 173.989 133.736 173.648C133.171 173.296 132.723 172.821 132.392 172.224C132.072 171.627 131.912 170.955 131.912 170.208C131.912 169.461 132.072 168.789 132.392 168.192C132.723 167.595 133.165 167.12 133.72 166.768C134.285 166.416 134.92 166.24 135.624 166.24C136.2 166.24 136.712 166.363 137.16 166.608C137.619 166.843 137.987 167.173 138.264 167.6C138.541 168.016 138.696 168.501 138.728 169.056V171.344C138.696 171.888 138.541 172.373 138.264 172.8C137.997 173.227 137.635 173.563 137.176 173.808C136.728 174.043 136.211 174.16 135.624 174.16ZM135.864 172.8C136.579 172.8 137.155 172.56 137.592 172.08C138.029 171.589 138.248 170.965 138.248 170.208C138.248 169.685 138.147 169.232 137.944 168.848C137.752 168.453 137.475 168.149 137.112 167.936C136.749 167.712 136.328 167.6 135.848 167.6C135.368 167.6 134.941 167.712 134.568 167.936C134.205 168.16 133.917 168.469 133.704 168.864C133.501 169.248 133.4 169.691 133.4 170.192C133.4 170.704 133.501 171.157 133.704 171.552C133.917 171.936 134.211 172.24 134.584 172.464C134.957 172.688 135.384 172.8 135.864 172.8ZM138.152 174V171.952L138.424 170.096L138.152 168.256V166.4H139.608V174H138.152ZM145.176 174.16C144.43 174.16 143.752 173.984 143.144 173.632C142.547 173.28 142.072 172.805 141.72 172.208C141.379 171.6 141.208 170.928 141.208 170.192C141.208 169.445 141.379 168.773 141.72 168.176C142.072 167.579 142.547 167.109 143.144 166.768C143.752 166.416 144.43 166.24 145.176 166.24C145.763 166.24 146.307 166.352 146.808 166.576C147.31 166.789 147.742 167.104 148.104 167.52L147.144 168.48C146.91 168.203 146.622 167.995 146.28 167.856C145.95 167.707 145.582 167.632 145.176 167.632C144.696 167.632 144.27 167.744 143.896 167.968C143.523 168.181 143.23 168.48 143.016 168.864C142.803 169.248 142.696 169.691 142.696 170.192C142.696 170.693 142.803 171.136 143.016 171.52C143.23 171.904 143.523 172.208 143.896 172.432C144.27 172.656 144.696 172.768 145.176 172.768C145.582 172.768 145.95 172.699 146.28 172.56C146.622 172.411 146.915 172.197 147.16 171.92L148.104 172.88C147.752 173.285 147.32 173.6 146.808 173.824C146.307 174.048 145.763 174.16 145.176 174.16ZM152.848 174.16C152.102 174.16 151.424 173.984 150.816 173.632C150.219 173.28 149.744 172.805 149.392 172.208C149.051 171.6 148.88 170.928 148.88 170.192C148.88 169.445 149.051 168.773 149.392 168.176C149.744 167.579 150.219 167.109 150.816 166.768C151.424 166.416 152.102 166.24 152.848 166.24C153.435 166.24 153.979 166.352 154.48 166.576C154.982 166.789 155.414 167.104 155.776 167.52L154.816 168.48C154.582 168.203 154.294 167.995 153.952 167.856C153.622 167.707 153.254 167.632 152.848 167.632C152.368 167.632 151.942 167.744 151.568 167.968C151.195 168.181 150.902 168.48 150.688 168.864C150.475 169.248 150.368 169.691 150.368 170.192C150.368 170.693 150.475 171.136 150.688 171.52C150.902 171.904 151.195 172.208 151.568 172.432C151.942 172.656 152.368 172.768 152.848 172.768C153.254 172.768 153.622 172.699 153.952 172.56C154.294 172.411 154.587 172.197 154.832 171.92L155.776 172.88C155.424 173.285 154.992 173.6 154.48 173.824C153.979 174.048 153.435 174.16 152.848 174.16ZM160.52 174.16C159.774 174.16 159.102 173.984 158.504 173.632C157.907 173.28 157.432 172.805 157.08 172.208C156.728 171.6 156.552 170.923 156.552 170.176C156.552 169.44 156.728 168.779 157.08 168.192C157.432 167.595 157.907 167.12 158.504 166.768C159.102 166.416 159.774 166.24 160.52 166.24C161.256 166.24 161.923 166.416 162.52 166.768C163.128 167.109 163.608 167.579 163.96 168.176C164.312 168.773 164.488 169.44 164.488 170.176C164.488 170.923 164.312 171.6 163.96 172.208C163.608 172.805 163.128 173.28 162.52 173.632C161.923 173.984 161.256 174.16 160.52 174.16ZM160.52 172.768C161 172.768 161.427 172.656 161.8 172.432C162.174 172.208 162.467 171.904 162.68 171.52C162.894 171.125 163 170.677 163 170.176C163 169.685 162.888 169.248 162.664 168.864C162.451 168.48 162.158 168.181 161.784 167.968C161.422 167.744 161 167.632 160.52 167.632C160.04 167.632 159.614 167.744 159.24 167.968C158.867 168.181 158.574 168.48 158.36 168.864C158.147 169.248 158.04 169.685 158.04 170.176C158.04 170.677 158.147 171.125 158.36 171.52C158.574 171.904 158.867 172.208 159.24 172.432C159.614 172.656 160.04 172.768 160.52 172.768ZM169.167 174.16C168.548 174.16 167.988 174.021 167.487 173.744C166.996 173.456 166.612 173.061 166.335 172.56C166.057 172.059 165.919 171.477 165.919 170.816V166.4H167.359V170.752C167.359 171.168 167.428 171.531 167.567 171.84C167.716 172.139 167.929 172.368 168.207 172.528C168.484 172.688 168.809 172.768 169.183 172.768C169.748 172.768 170.191 172.592 170.511 172.24C170.831 171.877 170.991 171.381 170.991 170.752V166.4H172.431V170.816C172.431 171.477 172.292 172.059 172.015 172.56C171.737 173.061 171.353 173.456 170.863 173.744C170.383 174.021 169.817 174.16 169.167 174.16ZM179.737 174V169.568C179.737 168.992 179.555 168.517 179.193 168.144C178.83 167.771 178.361 167.584 177.785 167.584C177.401 167.584 177.059 167.669 176.761 167.84C176.462 168.011 176.227 168.245 176.057 168.544C175.886 168.843 175.801 169.184 175.801 169.568L175.209 169.232C175.209 168.656 175.337 168.144 175.593 167.696C175.849 167.248 176.206 166.896 176.665 166.64C177.123 166.373 177.641 166.24 178.217 166.24C178.793 166.24 179.299 166.384 179.737 166.672C180.185 166.96 180.537 167.339 180.793 167.808C181.049 168.267 181.177 168.757 181.177 169.28V174H179.737ZM174.361 174V166.4H175.801V174H174.361ZM184.201 174V163.216H185.641V174H184.201ZM182.329 167.712V166.4H187.513V167.712H182.329Z" fill="#14376A"/>
<line x1="21.5" y1="43" x2="21.5" y2="74" stroke="#1D69D8"/>
<line x1="21.5" y1="116" x2="21.5" y2="149" stroke="#1D69D8"/>
<path d="M29.6542 16.8968C30.1153 16.4629 30.1153 15.7594 29.6542 15.3254C29.1932 14.8915 28.4457 14.8915 27.9847 15.3254L18.4306 24.3175L15.0153 21.1032C14.5543 20.6693 13.8068 20.6693 13.3458 21.1032C12.8847 21.5371 12.8847 22.2406 13.3458 22.6746L17.5958 26.6746C18.0568 27.1085 18.8043 27.1085 19.2653 26.6746L29.6542 16.8968Z" fill="#E9F0FF"/>
</svg>
