<svg width="196" height="199" viewBox="0 0 196 199" fill="none" xmlns="http://www.w3.org/2000/svg">
<g filter="url(#filter0_d_218_2)">
<circle cx="25.5" cy="21.5" r="21.5" fill="#1D69D8"/>
</g>
<g filter="url(#filter1_d_218_2)">
<circle cx="25.5" cy="95.5" r="21.5" fill="#1D69D8"/>
<circle cx="25.5" cy="95.5" r="21" stroke="#1D69D8"/>
</g>
<g opacity="0.5" filter="url(#filter2_d_218_2)">
<ellipse cx="25.5" cy="170" rx="21.5" ry="21" fill="#CEDEFF"/>
<path d="M46.5 170C46.5 181.311 37.1091 190.5 25.5 190.5C13.8909 190.5 4.5 181.311 4.5 170C4.5 158.689 13.8909 149.5 25.5 149.5C37.1091 149.5 46.5 158.689 46.5 170Z" stroke="#1D69D8"/>
</g>
<g filter="url(#filter3_d_218_2)">
<path d="M73.7125 27.16C72.8378 27.16 72.0912 27 71.4725 26.68C70.8538 26.36 70.3045 25.896 69.8245 25.288L70.8485 24.264C71.2005 24.7547 71.6058 25.128 72.0645 25.384C72.5232 25.6293 73.0885 25.752 73.7605 25.752C74.4218 25.752 74.9498 25.608 75.3445 25.32C75.7498 25.032 75.9525 24.6373 75.9525 24.136C75.9525 23.72 75.8565 23.384 75.6645 23.128C75.4725 22.872 75.2112 22.664 74.8805 22.504C74.5605 22.3333 74.2085 22.184 73.8245 22.056C73.4405 21.9173 73.0565 21.7733 72.6725 21.624C72.2885 21.464 71.9365 21.272 71.6165 21.048C71.2965 20.8133 71.0352 20.5093 70.8325 20.136C70.6405 19.7627 70.5445 19.2933 70.5445 18.728C70.5445 18.0987 70.6938 17.5653 70.9925 17.128C71.3018 16.68 71.7178 16.3387 72.2405 16.104C72.7738 15.8587 73.3712 15.736 74.0325 15.736C74.7578 15.736 75.4085 15.88 75.9845 16.168C76.5605 16.4453 77.0298 16.8133 77.3925 17.272L76.3685 18.296C76.0378 17.912 75.6805 17.624 75.2965 17.432C74.9232 17.24 74.4912 17.144 74.0005 17.144C73.4032 17.144 72.9285 17.2773 72.5765 17.544C72.2245 17.8 72.0485 18.1627 72.0485 18.632C72.0485 19.0053 72.1445 19.3093 72.3365 19.544C72.5392 19.768 72.8005 19.96 73.1205 20.12C73.4405 20.28 73.7925 20.4293 74.1765 20.568C74.5712 20.696 74.9605 20.84 75.3445 21C75.7285 21.16 76.0805 21.3627 76.4005 21.608C76.7205 21.8533 76.9765 22.1733 77.1685 22.568C77.3712 22.952 77.4725 23.4373 77.4725 24.024C77.4725 25.0053 77.1312 25.7733 76.4485 26.328C75.7765 26.8827 74.8645 27.16 73.7125 27.16ZM79.2595 27V19.4H80.6995V27H79.2595ZM79.9795 17.88C79.7128 17.88 79.4942 17.7947 79.3235 17.624C79.1528 17.4427 79.0675 17.2187 79.0675 16.952C79.0675 16.696 79.1528 16.4827 79.3235 16.312C79.4942 16.1307 79.7128 16.04 79.9795 16.04C80.2462 16.04 80.4648 16.1307 80.6355 16.312C80.8062 16.4827 80.8915 16.696 80.8915 16.952C80.8915 17.2187 80.8062 17.4427 80.6355 17.624C80.4648 17.7947 80.2462 17.88 79.9795 17.88ZM85.9736 30.344C85.195 30.344 84.5016 30.2 83.8936 29.912C83.2963 29.624 82.8163 29.2187 82.4536 28.696L83.3816 27.752C83.691 28.1467 84.059 28.4453 84.4856 28.648C84.9123 28.8613 85.419 28.968 86.0056 28.968C86.7843 28.968 87.3976 28.76 87.8456 28.344C88.3043 27.9387 88.5336 27.3893 88.5336 26.696V24.808L88.7896 23.096L88.5336 21.4V19.4H89.9736V26.696C89.9736 27.4213 89.803 28.056 89.4616 28.6C89.131 29.144 88.6616 29.5707 88.0536 29.88C87.4563 30.1893 86.763 30.344 85.9736 30.344ZM85.9736 26.872C85.2803 26.872 84.6563 26.7067 84.1016 26.376C83.5576 26.0453 83.1256 25.592 82.8056 25.016C82.4856 24.4293 82.3256 23.7733 82.3256 23.048C82.3256 22.3227 82.4856 21.6773 82.8056 21.112C83.1256 20.536 83.5576 20.0827 84.1016 19.752C84.6563 19.4107 85.2803 19.24 85.9736 19.24C86.571 19.24 87.099 19.3573 87.5576 19.592C88.0163 19.8267 88.379 20.1573 88.6456 20.584C88.923 21 89.0723 21.4907 89.0936 22.056V24.072C89.0616 24.6267 88.907 25.1173 88.6296 25.544C88.363 25.96 88.0003 26.2853 87.5416 26.52C87.083 26.7547 86.5603 26.872 85.9736 26.872ZM86.2616 25.512C86.731 25.512 87.1416 25.4107 87.4936 25.208C87.8563 25.0053 88.1336 24.7227 88.3256 24.36C88.5176 23.9867 88.6136 23.5547 88.6136 23.064C88.6136 22.5733 88.5123 22.1467 88.3096 21.784C88.1176 21.4107 87.8456 21.1227 87.4936 20.92C87.1416 20.7067 86.7256 20.6 86.2456 20.6C85.7656 20.6 85.3443 20.7067 84.9816 20.92C84.619 21.1227 84.331 21.4107 84.1176 21.784C83.915 22.1467 83.8136 22.568 83.8136 23.048C83.8136 23.528 83.915 23.9547 84.1176 24.328C84.331 24.7013 84.619 24.9947 84.9816 25.208C85.355 25.4107 85.7816 25.512 86.2616 25.512ZM97.4633 27V22.568C97.4633 21.992 97.2819 21.5173 96.9193 21.144C96.5566 20.7707 96.0873 20.584 95.5113 20.584C95.1273 20.584 94.7859 20.6693 94.4873 20.84C94.1886 21.0107 93.9539 21.2453 93.7833 21.544C93.6126 21.8427 93.5273 22.184 93.5273 22.568L92.9353 22.232C92.9353 21.656 93.0633 21.144 93.3193 20.696C93.5753 20.248 93.9326 19.896 94.3913 19.64C94.8499 19.3733 95.3673 19.24 95.9433 19.24C96.5193 19.24 97.0259 19.384 97.4633 19.672C97.9113 19.96 98.2633 20.3387 98.5193 20.808C98.7753 21.2667 98.9033 21.7573 98.9033 22.28V27H97.4633ZM92.0872 27V19.4H93.5273V27H92.0872ZM107.237 27.16C106.618 27.16 106.058 27.0213 105.557 26.744C105.066 26.456 104.682 26.0613 104.405 25.56C104.128 25.0587 103.989 24.4773 103.989 23.816V19.4H105.429V23.752C105.429 24.168 105.498 24.5307 105.637 24.84C105.786 25.1387 106 25.368 106.277 25.528C106.554 25.688 106.88 25.768 107.253 25.768C107.818 25.768 108.261 25.592 108.581 25.24C108.901 24.8773 109.061 24.3813 109.061 23.752V19.4H110.501V23.816C110.501 24.4773 110.362 25.0587 110.085 25.56C109.808 26.0613 109.424 26.456 108.933 26.744C108.453 27.0213 107.888 27.16 107.237 27.16ZM116.431 27.16C115.855 27.16 115.332 27.0427 114.863 26.808C114.404 26.5627 114.036 26.2267 113.759 25.8C113.482 25.3733 113.327 24.888 113.295 24.344V22.056C113.327 21.5013 113.482 21.016 113.759 20.6C114.047 20.1733 114.42 19.8427 114.879 19.608C115.348 19.3627 115.866 19.24 116.431 19.24C117.124 19.24 117.748 19.416 118.303 19.768C118.868 20.12 119.311 20.5947 119.631 21.192C119.951 21.7893 120.111 22.4613 120.111 23.208C120.111 23.9547 119.951 24.6267 119.631 25.224C119.311 25.8213 118.868 26.296 118.303 26.648C117.748 26.9893 117.124 27.16 116.431 27.16ZM112.431 30.184V19.4H113.871V21.4L113.599 23.24L113.871 25.096V30.184H112.431ZM116.191 25.8C116.671 25.8 117.092 25.688 117.455 25.464C117.818 25.24 118.106 24.936 118.319 24.552C118.532 24.1573 118.639 23.704 118.639 23.192C118.639 22.6907 118.532 22.2427 118.319 21.848C118.106 21.4533 117.818 21.1493 117.455 20.936C117.092 20.712 116.676 20.6 116.207 20.6C115.727 20.6 115.306 20.712 114.943 20.936C114.58 21.1493 114.298 21.4533 114.095 21.848C113.892 22.2427 113.791 22.696 113.791 23.208C113.791 23.7093 113.887 24.1573 114.079 24.552C114.282 24.936 114.564 25.24 114.927 25.464C115.3 25.688 115.722 25.8 116.191 25.8Z" fill="#304C75"/>
</g>
<g filter="url(#filter4_d_218_2)">
<path d="M75.6868 102.16C74.8761 102.16 74.1241 102.016 73.4308 101.728C72.7481 101.429 72.1508 101.019 71.6388 100.496C71.1268 99.9627 70.7321 99.3493 70.4548 98.656C70.1775 97.952 70.0388 97.2 70.0388 96.4C70.0388 95.6 70.1775 94.8533 70.4548 94.16C70.7321 93.456 71.1268 92.8427 71.6388 92.32C72.1508 91.7973 72.7481 91.3867 73.4308 91.088C74.1241 90.7893 74.8761 90.64 75.6868 90.64C76.5935 90.64 77.3775 90.7893 78.0388 91.088C78.7001 91.3867 79.2868 91.792 79.7988 92.304L78.5508 93.552C78.2201 93.1893 77.8148 92.9067 77.3348 92.704C76.8655 92.5013 76.3161 92.4 75.6868 92.4C75.1321 92.4 74.6255 92.496 74.1668 92.688C73.7081 92.88 73.3081 93.1573 72.9668 93.52C72.6361 93.872 72.3801 94.2933 72.1988 94.784C72.0175 95.2747 71.9268 95.8133 71.9268 96.4C71.9268 96.9867 72.0175 97.5253 72.1988 98.016C72.3801 98.5067 72.6361 98.9333 72.9668 99.296C73.3081 99.648 73.7081 99.92 74.1668 100.112C74.6255 100.304 75.1321 100.4 75.6868 100.4C76.3695 100.4 76.9455 100.299 77.4148 100.096C77.8948 99.8827 78.3001 99.5947 78.6308 99.232L79.8788 100.48C79.3668 101.003 78.7641 101.413 78.0708 101.712C77.3775 102.011 76.5828 102.16 75.6868 102.16ZM81.2807 102V94.32H83.0407V102H81.2807ZM83.0407 97.728L82.4327 97.424C82.4327 96.4533 82.646 95.6693 83.0727 95.072C83.51 94.464 84.166 94.16 85.0407 94.16C85.4247 94.16 85.7714 94.2293 86.0807 94.368C86.39 94.5067 86.678 94.7307 86.9447 95.04L85.7927 96.224C85.654 96.0747 85.4994 95.968 85.3287 95.904C85.158 95.84 84.9607 95.808 84.7367 95.808C84.246 95.808 83.8407 95.9627 83.5207 96.272C83.2007 96.5813 83.0407 97.0667 83.0407 97.728ZM91.1299 102.16C90.3619 102.16 89.6686 101.989 89.0499 101.648C88.4419 101.296 87.9566 100.816 87.5939 100.208C87.2419 99.6 87.0659 98.9173 87.0659 98.16C87.0659 97.4027 87.2419 96.7253 87.5939 96.128C87.9459 95.52 88.4206 95.04 89.0179 94.688C89.6259 94.336 90.2979 94.16 91.0339 94.16C91.7486 94.16 92.3779 94.3253 92.9219 94.656C93.4766 94.9867 93.9086 95.44 94.2179 96.016C94.5379 96.592 94.6979 97.248 94.6979 97.984C94.6979 98.112 94.6873 98.2453 94.6659 98.384C94.6553 98.512 94.6339 98.656 94.6019 98.816H88.2979V97.376H93.6899L93.0339 97.952C93.0126 97.4827 92.9219 97.088 92.7619 96.768C92.6019 96.448 92.3726 96.2027 92.0739 96.032C91.7859 95.8613 91.4286 95.776 91.0019 95.776C90.5539 95.776 90.1646 95.872 89.8339 96.064C89.5033 96.256 89.2473 96.528 89.0659 96.88C88.8846 97.2213 88.7939 97.632 88.7939 98.112C88.7939 98.592 88.8899 99.0133 89.0819 99.376C89.2739 99.7387 89.5459 100.021 89.8979 100.224C90.2499 100.416 90.6553 100.512 91.1139 100.512C91.5086 100.512 91.8713 100.443 92.2019 100.304C92.5433 100.165 92.8313 99.9627 93.0659 99.696L94.1859 100.832C93.8126 101.269 93.3593 101.6 92.8259 101.824C92.2926 102.048 91.7273 102.16 91.1299 102.16ZM99.3248 102.16C98.6315 102.16 98.0021 101.984 97.4368 101.632C96.8821 101.28 96.4395 100.805 96.1088 100.208C95.7888 99.6 95.6288 98.9227 95.6288 98.176C95.6288 97.4187 95.7888 96.7413 96.1088 96.144C96.4395 95.536 96.8821 95.056 97.4368 94.704C98.0021 94.3413 98.6315 94.16 99.3248 94.16C99.9115 94.16 100.429 94.288 100.877 94.544C101.335 94.7893 101.698 95.1307 101.965 95.568C102.231 96.0053 102.365 96.5013 102.365 97.056V99.264C102.365 99.8187 102.231 100.315 101.965 100.752C101.709 101.189 101.351 101.536 100.893 101.792C100.434 102.037 99.9115 102.16 99.3248 102.16ZM99.6128 100.496C100.263 100.496 100.786 100.277 101.181 99.84C101.586 99.4027 101.789 98.8427 101.789 98.16C101.789 97.7013 101.698 97.296 101.517 96.944C101.335 96.592 101.079 96.32 100.749 96.128C100.429 95.9253 100.05 95.824 99.6128 95.824C99.1861 95.824 98.8075 95.9253 98.4768 96.128C98.1568 96.32 97.9008 96.592 97.7088 96.944C97.5275 97.296 97.4368 97.7013 97.4368 98.16C97.4368 98.6187 97.5275 99.024 97.7088 99.376C97.9008 99.728 98.1568 100.005 98.4768 100.208C98.8075 100.4 99.1861 100.496 99.6128 100.496ZM101.677 102V99.936L101.981 98.064L101.677 96.208V94.32H103.437V102H101.677ZM106.558 102V91.12H108.318V102H106.558ZM104.718 95.92V94.32H110.158V95.92H104.718ZM114.786 102.16C114.018 102.16 113.325 101.989 112.706 101.648C112.098 101.296 111.613 100.816 111.25 100.208C110.898 99.6 110.722 98.9173 110.722 98.16C110.722 97.4027 110.898 96.7253 111.25 96.128C111.602 95.52 112.077 95.04 112.674 94.688C113.282 94.336 113.954 94.16 114.69 94.16C115.405 94.16 116.034 94.3253 116.578 94.656C117.133 94.9867 117.565 95.44 117.874 96.016C118.194 96.592 118.354 97.248 118.354 97.984C118.354 98.112 118.344 98.2453 118.322 98.384C118.312 98.512 118.29 98.656 118.258 98.816H111.954V97.376H117.346L116.69 97.952C116.669 97.4827 116.578 97.088 116.418 96.768C116.258 96.448 116.029 96.2027 115.73 96.032C115.442 95.8613 115.085 95.776 114.658 95.776C114.21 95.776 113.821 95.872 113.49 96.064C113.16 96.256 112.904 96.528 112.722 96.88C112.541 97.2213 112.45 97.632 112.45 98.112C112.45 98.592 112.546 99.0133 112.738 99.376C112.93 99.7387 113.202 100.021 113.554 100.224C113.906 100.416 114.312 100.512 114.77 100.512C115.165 100.512 115.528 100.443 115.858 100.304C116.2 100.165 116.488 99.9627 116.722 99.696L117.842 100.832C117.469 101.269 117.016 101.6 116.482 101.824C115.949 102.048 115.384 102.16 114.786 102.16ZM127.675 97.776V96.176H130.475C130.859 96.176 131.195 96.1013 131.483 95.952C131.782 95.792 132.017 95.5733 132.187 95.296C132.358 95.008 132.443 94.672 132.443 94.288C132.443 93.904 132.358 93.5733 132.187 93.296C132.017 93.008 131.782 92.7893 131.483 92.64C131.195 92.48 130.859 92.4 130.475 92.4H127.675V90.8H130.571C131.275 90.8 131.905 90.944 132.459 91.232C133.025 91.52 133.467 91.9253 133.787 92.448C134.118 92.9707 134.283 93.584 134.283 94.288C134.283 94.992 134.118 95.6053 133.787 96.128C133.467 96.6507 133.025 97.056 132.459 97.344C131.905 97.632 131.275 97.776 130.571 97.776H127.675ZM126.411 102V90.8H128.251V102H126.411ZM135.828 102V94.32H137.588V102H135.828ZM137.588 97.728L136.98 97.424C136.98 96.4533 137.193 95.6693 137.62 95.072C138.057 94.464 138.713 94.16 139.588 94.16C139.972 94.16 140.318 94.2293 140.628 94.368C140.937 94.5067 141.225 94.7307 141.492 95.04L140.34 96.224C140.201 96.0747 140.046 95.968 139.876 95.904C139.705 95.84 139.508 95.808 139.284 95.808C138.793 95.808 138.388 95.9627 138.068 96.272C137.748 96.5813 137.588 97.0667 137.588 97.728ZM145.629 102.16C144.882 102.16 144.205 101.984 143.597 101.632C142.989 101.269 142.503 100.784 142.141 100.176C141.789 99.568 141.613 98.8907 141.613 98.144C141.613 97.3973 141.789 96.7253 142.141 96.128C142.503 95.5307 142.989 95.056 143.597 94.704C144.205 94.3413 144.882 94.16 145.629 94.16C146.386 94.16 147.069 94.336 147.677 94.688C148.285 95.04 148.765 95.52 149.117 96.128C149.479 96.7253 149.661 97.3973 149.661 98.144C149.661 98.8907 149.479 99.568 149.117 100.176C148.765 100.784 148.285 101.269 147.677 101.632C147.069 101.984 146.386 102.16 145.629 102.16ZM145.629 100.464C146.066 100.464 146.45 100.368 146.781 100.176C147.122 99.9733 147.383 99.696 147.565 99.344C147.757 98.992 147.853 98.592 147.853 98.144C147.853 97.696 147.757 97.3013 147.565 96.96C147.373 96.6187 147.111 96.352 146.781 96.16C146.45 95.9573 146.066 95.856 145.629 95.856C145.202 95.856 144.818 95.9573 144.477 96.16C144.146 96.352 143.885 96.6187 143.693 96.96C143.511 97.3013 143.421 97.696 143.421 98.144C143.421 98.592 143.511 98.992 143.693 99.344C143.885 99.696 144.146 99.9733 144.477 100.176C144.818 100.368 145.202 100.464 145.629 100.464ZM151.962 102V92.992C151.962 92.48 152.074 92.0267 152.298 91.632C152.532 91.2267 152.852 90.9067 153.258 90.672C153.663 90.4373 154.138 90.32 154.682 90.32C155.087 90.32 155.439 90.3893 155.738 90.528C156.047 90.656 156.335 90.8427 156.602 91.088L155.45 92.24C155.343 92.1547 155.226 92.0907 155.098 92.048C154.98 91.9947 154.842 91.968 154.682 91.968C154.372 91.968 154.132 92.0587 153.962 92.24C153.802 92.4213 153.722 92.6667 153.722 92.976V102H151.962ZM150.122 95.92V94.32H157.61V95.92H150.122ZM156.602 102V94.32H158.362V102H156.602ZM157.482 93.648C157.183 93.648 156.932 93.5467 156.73 93.344C156.538 93.1413 156.442 92.8907 156.442 92.592C156.442 92.2933 156.538 92.0427 156.73 91.84C156.932 91.6373 157.183 91.536 157.482 91.536C157.791 91.536 158.042 91.6373 158.234 91.84C158.426 92.0427 158.522 92.2933 158.522 92.592C158.522 92.8907 158.426 93.1413 158.234 93.344C158.042 93.5467 157.791 93.648 157.482 93.648ZM160.328 102V90.48H162.088V102H160.328ZM167.614 102.16C166.846 102.16 166.153 101.989 165.534 101.648C164.926 101.296 164.441 100.816 164.078 100.208C163.726 99.6 163.55 98.9173 163.55 98.16C163.55 97.4027 163.726 96.7253 164.078 96.128C164.43 95.52 164.905 95.04 165.502 94.688C166.11 94.336 166.782 94.16 167.518 94.16C168.233 94.16 168.862 94.3253 169.406 94.656C169.961 94.9867 170.393 95.44 170.702 96.016C171.022 96.592 171.182 97.248 171.182 97.984C171.182 98.112 171.172 98.2453 171.15 98.384C171.14 98.512 171.118 98.656 171.086 98.816H164.782V97.376H170.174L169.518 97.952C169.497 97.4827 169.406 97.088 169.246 96.768C169.086 96.448 168.857 96.2027 168.558 96.032C168.27 95.8613 167.913 95.776 167.486 95.776C167.038 95.776 166.649 95.872 166.318 96.064C165.988 96.256 165.732 96.528 165.55 96.88C165.369 97.2213 165.278 97.632 165.278 98.112C165.278 98.592 165.374 99.0133 165.566 99.376C165.758 99.7387 166.03 100.021 166.382 100.224C166.734 100.416 167.14 100.512 167.598 100.512C167.993 100.512 168.356 100.443 168.686 100.304C169.028 100.165 169.316 99.9627 169.55 99.696L170.67 100.832C170.297 101.269 169.844 101.6 169.31 101.824C168.777 102.048 168.212 102.16 167.614 102.16Z" fill="#14376A"/>
</g>
<g opacity="0.5" filter="url(#filter5_d_218_2)">
<path d="M25.1157 174.16C24.369 174.16 23.6917 174.027 23.0837 173.76C22.4864 173.483 21.9797 173.083 21.5637 172.56L22.8117 171.312C23.0357 171.653 23.3504 171.925 23.7557 172.128C24.161 172.331 24.6037 172.432 25.0837 172.432C25.5424 172.432 25.937 172.347 26.2677 172.176C26.5984 172.005 26.8544 171.765 27.0357 171.456C27.2277 171.147 27.3237 170.789 27.3237 170.384C27.3237 169.957 27.2277 169.595 27.0357 169.296C26.8544 168.997 26.5877 168.768 26.2357 168.608C25.8944 168.437 25.4784 168.352 24.9877 168.352C24.7957 168.352 24.5984 168.368 24.3957 168.4C24.193 168.421 24.0117 168.459 23.8517 168.512L24.6677 167.456C24.8917 167.371 25.1264 167.301 25.3717 167.248C25.6277 167.184 25.873 167.152 26.1077 167.152C26.6837 167.152 27.201 167.291 27.6597 167.568C28.129 167.845 28.497 168.235 28.7637 168.736C29.041 169.227 29.1797 169.808 29.1797 170.48C29.1797 171.205 29.009 171.845 28.6677 172.4C28.3264 172.955 27.8517 173.387 27.2437 173.696C26.6357 174.005 25.9264 174.16 25.1157 174.16ZM23.8517 168.512V167.424L26.8437 163.936L29.0517 163.888L25.9317 167.472L23.8517 168.512ZM22.1237 164.448V162.8H29.0517V163.888L27.4677 164.448H22.1237Z" fill="#1D69D8"/>
</g>
<g opacity="0.5" filter="url(#filter6_d_218_2)">
<path d="M74.6048 177.16C73.7835 177.16 73.0475 176.979 72.3968 176.616C71.7568 176.243 71.2501 175.736 70.8768 175.096C70.5035 174.445 70.3168 173.709 70.3168 172.888V165.896H71.8208V172.856C71.8208 173.443 71.9435 173.949 72.1888 174.376C72.4341 174.803 72.7648 175.133 73.1808 175.368C73.6075 175.603 74.0821 175.72 74.6048 175.72C75.1488 175.72 75.6235 175.603 76.0288 175.368C76.4448 175.133 76.7701 174.803 77.0048 174.376C77.2501 173.949 77.3728 173.448 77.3728 172.872V165.896H78.8928V172.904C78.8928 173.725 78.7061 174.456 78.3328 175.096C77.9595 175.736 77.4528 176.243 76.8128 176.616C76.1728 176.979 75.4368 177.16 74.6048 177.16ZM85.1107 177.16C84.5347 177.16 84.012 177.043 83.5427 176.808C83.084 176.563 82.716 176.227 82.4387 175.8C82.1614 175.373 82.0067 174.888 81.9747 174.344V172.056C82.0067 171.501 82.1614 171.016 82.4387 170.6C82.7267 170.173 83.1 169.843 83.5587 169.608C84.028 169.363 84.5454 169.24 85.1107 169.24C85.804 169.24 86.428 169.416 86.9827 169.768C87.548 170.12 87.9907 170.595 88.3107 171.192C88.6307 171.789 88.7907 172.461 88.7907 173.208C88.7907 173.955 88.6307 174.627 88.3107 175.224C87.9907 175.821 87.548 176.296 86.9827 176.648C86.428 176.989 85.804 177.16 85.1107 177.16ZM81.1107 180.184V169.4H82.5507V171.4L82.2787 173.24L82.5507 175.096V180.184H81.1107ZM84.8707 175.8C85.3507 175.8 85.772 175.688 86.1347 175.464C86.4974 175.24 86.7854 174.936 86.9987 174.552C87.212 174.157 87.3187 173.704 87.3187 173.192C87.3187 172.691 87.212 172.243 86.9987 171.848C86.7854 171.453 86.4974 171.149 86.1347 170.936C85.772 170.712 85.356 170.6 84.8867 170.6C84.4067 170.6 83.9854 170.712 83.6227 170.936C83.26 171.149 82.9774 171.453 82.7747 171.848C82.572 172.243 82.4707 172.696 82.4707 173.208C82.4707 173.709 82.5667 174.157 82.7587 174.552C82.9614 174.936 83.244 175.24 83.6067 175.464C83.98 175.688 84.4014 175.8 84.8707 175.8ZM93.5752 180.344C92.7965 180.344 92.1032 180.2 91.4952 179.912C90.8979 179.624 90.4179 179.219 90.0552 178.696L90.9832 177.752C91.2925 178.147 91.6605 178.445 92.0872 178.648C92.5139 178.861 93.0205 178.968 93.6072 178.968C94.3859 178.968 94.9992 178.76 95.4472 178.344C95.9059 177.939 96.1352 177.389 96.1352 176.696V174.808L96.3912 173.096L96.1352 171.4V169.4H97.5752V176.696C97.5752 177.421 97.4045 178.056 97.0632 178.6C96.7325 179.144 96.2632 179.571 95.6552 179.88C95.0579 180.189 94.3645 180.344 93.5752 180.344ZM93.5752 176.872C92.8819 176.872 92.2579 176.707 91.7032 176.376C91.1592 176.045 90.7272 175.592 90.4072 175.016C90.0872 174.429 89.9272 173.773 89.9272 173.048C89.9272 172.323 90.0872 171.677 90.4072 171.112C90.7272 170.536 91.1592 170.083 91.7032 169.752C92.2579 169.411 92.8819 169.24 93.5752 169.24C94.1725 169.24 94.7005 169.357 95.1592 169.592C95.6179 169.827 95.9805 170.157 96.2472 170.584C96.5245 171 96.6739 171.491 96.6952 172.056V174.072C96.6632 174.627 96.5085 175.117 96.2312 175.544C95.9645 175.96 95.6019 176.285 95.1432 176.52C94.6845 176.755 94.1619 176.872 93.5752 176.872ZM93.8632 175.512C94.3325 175.512 94.7432 175.411 95.0952 175.208C95.4579 175.005 95.7352 174.723 95.9272 174.36C96.1192 173.987 96.2152 173.555 96.2152 173.064C96.2152 172.573 96.1139 172.147 95.9112 171.784C95.7192 171.411 95.4472 171.123 95.0952 170.92C94.7432 170.707 94.3272 170.6 93.8472 170.6C93.3672 170.6 92.9459 170.707 92.5832 170.92C92.2205 171.123 91.9325 171.411 91.7192 171.784C91.5165 172.147 91.4152 172.568 91.4152 173.048C91.4152 173.528 91.5165 173.955 91.7192 174.328C91.9325 174.701 92.2205 174.995 92.5832 175.208C92.9565 175.411 93.3832 175.512 93.8632 175.512ZM99.6888 177V169.4H101.129V177H99.6888ZM101.129 172.664L100.585 172.424C100.585 171.453 100.809 170.68 101.257 170.104C101.705 169.528 102.35 169.24 103.193 169.24C103.577 169.24 103.923 169.309 104.233 169.448C104.542 169.576 104.83 169.795 105.097 170.104L104.153 171.08C103.993 170.909 103.817 170.787 103.625 170.712C103.433 170.637 103.209 170.6 102.953 170.6C102.419 170.6 101.982 170.771 101.641 171.112C101.299 171.453 101.129 171.971 101.129 172.664ZM109.093 177.16C108.399 177.16 107.77 176.989 107.205 176.648C106.639 176.296 106.191 175.821 105.861 175.224C105.541 174.627 105.381 173.955 105.381 173.208C105.381 172.461 105.541 171.789 105.861 171.192C106.191 170.595 106.634 170.12 107.189 169.768C107.754 169.416 108.389 169.24 109.093 169.24C109.669 169.24 110.181 169.363 110.629 169.608C111.087 169.843 111.455 170.173 111.733 170.6C112.01 171.016 112.165 171.501 112.197 172.056V174.344C112.165 174.888 112.01 175.373 111.733 175.8C111.466 176.227 111.103 176.563 110.645 176.808C110.197 177.043 109.679 177.16 109.093 177.16ZM109.333 175.8C110.047 175.8 110.623 175.56 111.061 175.08C111.498 174.589 111.717 173.965 111.717 173.208C111.717 172.685 111.615 172.232 111.413 171.848C111.221 171.453 110.943 171.149 110.581 170.936C110.218 170.712 109.797 170.6 109.317 170.6C108.837 170.6 108.41 170.712 108.037 170.936C107.674 171.16 107.386 171.469 107.173 171.864C106.97 172.248 106.869 172.691 106.869 173.192C106.869 173.704 106.97 174.157 107.173 174.552C107.386 174.936 107.679 175.24 108.053 175.464C108.426 175.688 108.853 175.8 109.333 175.8ZM111.621 177V174.952L111.893 173.096L111.621 171.256V169.4H113.077V177H111.621ZM118.389 177.16C117.685 177.16 117.056 176.989 116.501 176.648C115.947 176.296 115.504 175.821 115.173 175.224C114.853 174.627 114.693 173.955 114.693 173.208C114.693 172.461 114.853 171.789 115.173 171.192C115.504 170.595 115.947 170.12 116.501 169.768C117.056 169.416 117.685 169.24 118.389 169.24C118.955 169.24 119.467 169.363 119.925 169.608C120.384 169.843 120.752 170.173 121.029 170.6C121.317 171.016 121.477 171.501 121.509 172.056V174.344C121.477 174.888 121.323 175.373 121.045 175.8C120.768 176.227 120.4 176.563 119.941 176.808C119.483 177.043 118.965 177.16 118.389 177.16ZM118.629 175.8C119.109 175.8 119.525 175.688 119.877 175.464C120.24 175.24 120.523 174.936 120.725 174.552C120.928 174.157 121.029 173.709 121.029 173.208C121.029 172.685 120.923 172.232 120.709 171.848C120.507 171.464 120.224 171.16 119.861 170.936C119.509 170.712 119.093 170.6 118.613 170.6C118.133 170.6 117.712 170.712 117.349 170.936C116.987 171.16 116.699 171.469 116.485 171.864C116.283 172.248 116.181 172.691 116.181 173.192C116.181 173.704 116.283 174.157 116.485 174.552C116.699 174.936 116.987 175.24 117.349 175.464C117.723 175.688 118.149 175.8 118.629 175.8ZM122.389 177H120.933V174.952L121.205 173.096L120.933 171.256V165.576H122.389V177ZM128.006 177.16C127.248 177.16 126.566 176.989 125.958 176.648C125.35 176.296 124.87 175.821 124.518 175.224C124.166 174.627 123.99 173.949 123.99 173.192C123.99 172.445 124.16 171.773 124.502 171.176C124.854 170.579 125.323 170.109 125.91 169.768C126.507 169.416 127.174 169.24 127.91 169.24C128.614 169.24 129.232 169.4 129.766 169.72C130.31 170.04 130.731 170.483 131.03 171.048C131.339 171.613 131.494 172.253 131.494 172.968C131.494 173.075 131.488 173.192 131.478 173.32C131.467 173.437 131.446 173.576 131.414 173.736H124.998V172.536H130.646L130.118 173C130.118 172.488 130.027 172.056 129.846 171.704C129.664 171.341 129.408 171.064 129.078 170.872C128.747 170.669 128.347 170.568 127.878 170.568C127.387 170.568 126.955 170.675 126.582 170.888C126.208 171.101 125.92 171.4 125.718 171.784C125.515 172.168 125.414 172.621 125.414 173.144C125.414 173.677 125.52 174.147 125.734 174.552C125.947 174.947 126.251 175.256 126.646 175.48C127.04 175.693 127.494 175.8 128.006 175.8C128.432 175.8 128.822 175.725 129.174 175.576C129.536 175.427 129.846 175.203 130.102 174.904L131.03 175.848C130.667 176.275 130.219 176.6 129.686 176.824C129.163 177.048 128.603 177.16 128.006 177.16ZM139.624 177.16C138.931 177.16 138.301 176.989 137.736 176.648C137.171 176.296 136.723 175.821 136.392 175.224C136.072 174.627 135.912 173.955 135.912 173.208C135.912 172.461 136.072 171.789 136.392 171.192C136.723 170.595 137.165 170.12 137.72 169.768C138.285 169.416 138.92 169.24 139.624 169.24C140.2 169.24 140.712 169.363 141.16 169.608C141.619 169.843 141.987 170.173 142.264 170.6C142.541 171.016 142.696 171.501 142.728 172.056V174.344C142.696 174.888 142.541 175.373 142.264 175.8C141.997 176.227 141.635 176.563 141.176 176.808C140.728 177.043 140.211 177.16 139.624 177.16ZM139.864 175.8C140.579 175.8 141.155 175.56 141.592 175.08C142.029 174.589 142.248 173.965 142.248 173.208C142.248 172.685 142.147 172.232 141.944 171.848C141.752 171.453 141.475 171.149 141.112 170.936C140.749 170.712 140.328 170.6 139.848 170.6C139.368 170.6 138.941 170.712 138.568 170.936C138.205 171.16 137.917 171.469 137.704 171.864C137.501 172.248 137.4 172.691 137.4 173.192C137.4 173.704 137.501 174.157 137.704 174.552C137.917 174.936 138.211 175.24 138.584 175.464C138.957 175.688 139.384 175.8 139.864 175.8ZM142.152 177V174.952L142.424 173.096L142.152 171.256V169.4H143.608V177H142.152ZM149.176 177.16C148.43 177.16 147.752 176.984 147.144 176.632C146.547 176.28 146.072 175.805 145.72 175.208C145.379 174.6 145.208 173.928 145.208 173.192C145.208 172.445 145.379 171.773 145.72 171.176C146.072 170.579 146.547 170.109 147.144 169.768C147.752 169.416 148.43 169.24 149.176 169.24C149.763 169.24 150.307 169.352 150.808 169.576C151.31 169.789 151.742 170.104 152.104 170.52L151.144 171.48C150.91 171.203 150.622 170.995 150.28 170.856C149.95 170.707 149.582 170.632 149.176 170.632C148.696 170.632 148.27 170.744 147.896 170.968C147.523 171.181 147.23 171.48 147.016 171.864C146.803 172.248 146.696 172.691 146.696 173.192C146.696 173.693 146.803 174.136 147.016 174.52C147.23 174.904 147.523 175.208 147.896 175.432C148.27 175.656 148.696 175.768 149.176 175.768C149.582 175.768 149.95 175.699 150.28 175.56C150.622 175.411 150.915 175.197 151.16 174.92L152.104 175.88C151.752 176.285 151.32 176.6 150.808 176.824C150.307 177.048 149.763 177.16 149.176 177.16ZM156.848 177.16C156.102 177.16 155.424 176.984 154.816 176.632C154.219 176.28 153.744 175.805 153.392 175.208C153.051 174.6 152.88 173.928 152.88 173.192C152.88 172.445 153.051 171.773 153.392 171.176C153.744 170.579 154.219 170.109 154.816 169.768C155.424 169.416 156.102 169.24 156.848 169.24C157.435 169.24 157.979 169.352 158.48 169.576C158.982 169.789 159.414 170.104 159.776 170.52L158.816 171.48C158.582 171.203 158.294 170.995 157.952 170.856C157.622 170.707 157.254 170.632 156.848 170.632C156.368 170.632 155.942 170.744 155.568 170.968C155.195 171.181 154.902 171.48 154.688 171.864C154.475 172.248 154.368 172.691 154.368 173.192C154.368 173.693 154.475 174.136 154.688 174.52C154.902 174.904 155.195 175.208 155.568 175.432C155.942 175.656 156.368 175.768 156.848 175.768C157.254 175.768 157.622 175.699 157.952 175.56C158.294 175.411 158.587 175.197 158.832 174.92L159.776 175.88C159.424 176.285 158.992 176.6 158.48 176.824C157.979 177.048 157.435 177.16 156.848 177.16ZM164.52 177.16C163.774 177.16 163.102 176.984 162.504 176.632C161.907 176.28 161.432 175.805 161.08 175.208C160.728 174.6 160.552 173.923 160.552 173.176C160.552 172.44 160.728 171.779 161.08 171.192C161.432 170.595 161.907 170.12 162.504 169.768C163.102 169.416 163.774 169.24 164.52 169.24C165.256 169.24 165.923 169.416 166.52 169.768C167.128 170.109 167.608 170.579 167.96 171.176C168.312 171.773 168.488 172.44 168.488 173.176C168.488 173.923 168.312 174.6 167.96 175.208C167.608 175.805 167.128 176.28 166.52 176.632C165.923 176.984 165.256 177.16 164.52 177.16ZM164.52 175.768C165 175.768 165.427 175.656 165.8 175.432C166.174 175.208 166.467 174.904 166.68 174.52C166.894 174.125 167 173.677 167 173.176C167 172.685 166.888 172.248 166.664 171.864C166.451 171.48 166.158 171.181 165.784 170.968C165.422 170.744 165 170.632 164.52 170.632C164.04 170.632 163.614 170.744 163.24 170.968C162.867 171.181 162.574 171.48 162.36 171.864C162.147 172.248 162.04 172.685 162.04 173.176C162.04 173.677 162.147 174.125 162.36 174.52C162.574 174.904 162.867 175.208 163.24 175.432C163.614 175.656 164.04 175.768 164.52 175.768ZM173.167 177.16C172.548 177.16 171.988 177.021 171.487 176.744C170.996 176.456 170.612 176.061 170.335 175.56C170.057 175.059 169.919 174.477 169.919 173.816V169.4H171.359V173.752C171.359 174.168 171.428 174.531 171.567 174.84C171.716 175.139 171.929 175.368 172.207 175.528C172.484 175.688 172.809 175.768 173.183 175.768C173.748 175.768 174.191 175.592 174.511 175.24C174.831 174.877 174.991 174.381 174.991 173.752V169.4H176.431V173.816C176.431 174.477 176.292 175.059 176.015 175.56C175.737 176.061 175.353 176.456 174.863 176.744C174.383 177.021 173.817 177.16 173.167 177.16ZM183.737 177V172.568C183.737 171.992 183.555 171.517 183.193 171.144C182.83 170.771 182.361 170.584 181.785 170.584C181.401 170.584 181.059 170.669 180.761 170.84C180.462 171.011 180.227 171.245 180.057 171.544C179.886 171.843 179.801 172.184 179.801 172.568L179.209 172.232C179.209 171.656 179.337 171.144 179.593 170.696C179.849 170.248 180.206 169.896 180.665 169.64C181.123 169.373 181.641 169.24 182.217 169.24C182.793 169.24 183.299 169.384 183.737 169.672C184.185 169.96 184.537 170.339 184.793 170.808C185.049 171.267 185.177 171.757 185.177 172.28V177H183.737ZM178.361 177V169.4H179.801V177H178.361ZM188.201 177V166.216H189.641V177H188.201ZM186.329 170.712V169.4H191.513V170.712H186.329Z" fill="#14376A"/>
</g>
<g filter="url(#filter7_d_218_2)">
<line x1="25.5" y1="43" x2="25.5" y2="74" stroke="#1D69D8"/>
</g>
<g filter="url(#filter8_d_218_2)">
<line x1="25.5" y1="116" x2="25.5" y2="149" stroke="#1D69D8"/>
</g>
<g filter="url(#filter9_d_218_2)">
<path d="M33.6542 91.8968C34.1153 91.4629 34.1153 90.7594 33.6542 90.3254C33.1932 89.8915 32.4457 89.8915 31.9847 90.3254L22.4306 99.3175L19.0153 96.1032C18.5543 95.6693 17.8068 95.6693 17.3458 96.1032C16.8847 96.5371 16.8847 97.2406 17.3458 97.6746L21.5958 101.675C22.0568 102.108 22.8043 102.108 23.2653 101.675L33.6542 91.8968Z" fill="#E9F0FF"/>
</g>
<g filter="url(#filter10_d_218_2)">
<path d="M33.6542 17.8968C34.1153 17.4629 34.1153 16.7594 33.6542 16.3254C33.1932 15.8915 32.4457 15.8915 31.9847 16.3254L22.4306 25.3175L19.0153 22.1032C18.5543 21.6693 17.8068 21.6693 17.3458 22.1032C16.8847 22.5371 16.8847 23.2406 17.3458 23.6746L21.5958 27.6746C22.0568 28.1085 22.8043 28.1085 23.2653 27.6746L33.6542 17.8968Z" fill="#E9F0FF"/>
</g>
<defs>
<filter id="filter0_d_218_2" x="0" y="0" width="51" height="51" filterUnits="userSpaceOnUse" color-interpolation-filters="sRGB">
<feFlood flood-opacity="0" result="BackgroundImageFix"/>
<feColorMatrix in="SourceAlpha" type="matrix" values="0 0 0 0 0 0 0 0 0 0 0 0 0 0 0 0 0 0 127 0" result="hardAlpha"/>
<feOffset dy="4"/>
<feGaussianBlur stdDeviation="2"/>
<feComposite in2="hardAlpha" operator="out"/>
<feColorMatrix type="matrix" values="0 0 0 0 0 0 0 0 0 0 0 0 0 0 0 0 0 0 0.25 0"/>
<feBlend mode="normal" in2="BackgroundImageFix" result="effect1_dropShadow_218_2"/>
<feBlend mode="normal" in="SourceGraphic" in2="effect1_dropShadow_218_2" result="shape"/>
</filter>
<filter id="filter1_d_218_2" x="0" y="74" width="51" height="51" filterUnits="userSpaceOnUse" color-interpolation-filters="sRGB">
<feFlood flood-opacity="0" result="BackgroundImageFix"/>
<feColorMatrix in="SourceAlpha" type="matrix" values="0 0 0 0 0 0 0 0 0 0 0 0 0 0 0 0 0 0 127 0" result="hardAlpha"/>
<feOffset dy="4"/>
<feGaussianBlur stdDeviation="2"/>
<feComposite in2="hardAlpha" operator="out"/>
<feColorMatrix type="matrix" values="0 0 0 0 0 0 0 0 0 0 0 0 0 0 0 0 0 0 0.25 0"/>
<feBlend mode="normal" in2="BackgroundImageFix" result="effect1_dropShadow_218_2"/>
<feBlend mode="normal" in="SourceGraphic" in2="effect1_dropShadow_218_2" result="shape"/>
</filter>
<filter id="filter2_d_218_2" x="0" y="149" width="51" height="50" filterUnits="userSpaceOnUse" color-interpolation-filters="sRGB">
<feFlood flood-opacity="0" result="BackgroundImageFix"/>
<feColorMatrix in="SourceAlpha" type="matrix" values="0 0 0 0 0 0 0 0 0 0 0 0 0 0 0 0 0 0 127 0" result="hardAlpha"/>
<feOffset dy="4"/>
<feGaussianBlur stdDeviation="2"/>
<feComposite in2="hardAlpha" operator="out"/>
<feColorMatrix type="matrix" values="0 0 0 0 0 0 0 0 0 0 0 0 0 0 0 0 0 0 0.25 0"/>
<feBlend mode="normal" in2="BackgroundImageFix" result="effect1_dropShadow_218_2"/>
<feBlend mode="normal" in="SourceGraphic" in2="effect1_dropShadow_218_2" result="shape"/>
</filter>
<filter id="filter3_d_218_2" x="65.8245" y="15.736" width="58.2865" height="22.608" filterUnits="userSpaceOnUse" color-interpolation-filters="sRGB">
<feFlood flood-opacity="0" result="BackgroundImageFix"/>
<feColorMatrix in="SourceAlpha" type="matrix" values="0 0 0 0 0 0 0 0 0 0 0 0 0 0 0 0 0 0 127 0" result="hardAlpha"/>
<feOffset dy="4"/>
<feGaussianBlur stdDeviation="2"/>
<feComposite in2="hardAlpha" operator="out"/>
<feColorMatrix type="matrix" values="0 0 0 0 0 0 0 0 0 0 0 0 0 0 0 0 0 0 0.25 0"/>
<feBlend mode="normal" in2="BackgroundImageFix" result="effect1_dropShadow_218_2"/>
<feBlend mode="normal" in="SourceGraphic" in2="effect1_dropShadow_218_2" result="shape"/>
</filter>
<filter id="filter4_d_218_2" x="66.0388" y="90.32" width="109.144" height="19.84" filterUnits="userSpaceOnUse" color-interpolation-filters="sRGB">
<feFlood flood-opacity="0" result="BackgroundImageFix"/>
<feColorMatrix in="SourceAlpha" type="matrix" values="0 0 0 0 0 0 0 0 0 0 0 0 0 0 0 0 0 0 127 0" result="hardAlpha"/>
<feOffset dy="4"/>
<feGaussianBlur stdDeviation="2"/>
<feComposite in2="hardAlpha" operator="out"/>
<feColorMatrix type="matrix" values="0 0 0 0 0 0 0 0 0 0 0 0 0 0 0 0 0 0 0.25 0"/>
<feBlend mode="normal" in2="BackgroundImageFix" result="effect1_dropShadow_218_2"/>
<feBlend mode="normal" in="SourceGraphic" in2="effect1_dropShadow_218_2" result="shape"/>
</filter>
<filter id="filter5_d_218_2" x="17.5637" y="162.8" width="15.616" height="19.36" filterUnits="userSpaceOnUse" color-interpolation-filters="sRGB">
<feFlood flood-opacity="0" result="BackgroundImageFix"/>
<feColorMatrix in="SourceAlpha" type="matrix" values="0 0 0 0 0 0 0 0 0 0 0 0 0 0 0 0 0 0 127 0" result="hardAlpha"/>
<feOffset dy="4"/>
<feGaussianBlur stdDeviation="2"/>
<feComposite in2="hardAlpha" operator="out"/>
<feColorMatrix type="matrix" values="0 0 0 0 0 0 0 0 0 0 0 0 0 0 0 0 0 0 0.25 0"/>
<feBlend mode="normal" in2="BackgroundImageFix" result="effect1_dropShadow_218_2"/>
<feBlend mode="normal" in="SourceGraphic" in2="effect1_dropShadow_218_2" result="shape"/>
</filter>
<filter id="filter6_d_218_2" x="66.3168" y="165.576" width="129.196" height="22.768" filterUnits="userSpaceOnUse" color-interpolation-filters="sRGB">
<feFlood flood-opacity="0" result="BackgroundImageFix"/>
<feColorMatrix in="SourceAlpha" type="matrix" values="0 0 0 0 0 0 0 0 0 0 0 0 0 0 0 0 0 0 127 0" result="hardAlpha"/>
<feOffset dy="4"/>
<feGaussianBlur stdDeviation="2"/>
<feComposite in2="hardAlpha" operator="out"/>
<feColorMatrix type="matrix" values="0 0 0 0 0 0 0 0 0 0 0 0 0 0 0 0 0 0 0.25 0"/>
<feBlend mode="normal" in2="BackgroundImageFix" result="effect1_dropShadow_218_2"/>
<feBlend mode="normal" in="SourceGraphic" in2="effect1_dropShadow_218_2" result="shape"/>
</filter>
<filter id="filter7_d_218_2" x="21" y="43" width="9" height="39" filterUnits="userSpaceOnUse" color-interpolation-filters="sRGB">
<feFlood flood-opacity="0" result="BackgroundImageFix"/>
<feColorMatrix in="SourceAlpha" type="matrix" values="0 0 0 0 0 0 0 0 0 0 0 0 0 0 0 0 0 0 127 0" result="hardAlpha"/>
<feOffset dy="4"/>
<feGaussianBlur stdDeviation="2"/>
<feComposite in2="hardAlpha" operator="out"/>
<feColorMatrix type="matrix" values="0 0 0 0 0 0 0 0 0 0 0 0 0 0 0 0 0 0 0.25 0"/>
<feBlend mode="normal" in2="BackgroundImageFix" result="effect1_dropShadow_218_2"/>
<feBlend mode="normal" in="SourceGraphic" in2="effect1_dropShadow_218_2" result="shape"/>
</filter>
<filter id="filter8_d_218_2" x="21" y="116" width="9" height="41" filterUnits="userSpaceOnUse" color-interpolation-filters="sRGB">
<feFlood flood-opacity="0" result="BackgroundImageFix"/>
<feColorMatrix in="SourceAlpha" type="matrix" values="0 0 0 0 0 0 0 0 0 0 0 0 0 0 0 0 0 0 127 0" result="hardAlpha"/>
<feOffset dy="4"/>
<feGaussianBlur stdDeviation="2"/>
<feComposite in2="hardAlpha" operator="out"/>
<feColorMatrix type="matrix" values="0 0 0 0 0 0 0 0 0 0 0 0 0 0 0 0 0 0 0.25 0"/>
<feBlend mode="normal" in2="BackgroundImageFix" result="effect1_dropShadow_218_2"/>
<feBlend mode="normal" in="SourceGraphic" in2="effect1_dropShadow_218_2" result="shape"/>
</filter>
<filter id="filter9_d_218_2" x="13" y="90" width="25" height="20" filterUnits="userSpaceOnUse" color-interpolation-filters="sRGB">
<feFlood flood-opacity="0" result="BackgroundImageFix"/>
<feColorMatrix in="SourceAlpha" type="matrix" values="0 0 0 0 0 0 0 0 0 0 0 0 0 0 0 0 0 0 127 0" result="hardAlpha"/>
<feOffset dy="4"/>
<feGaussianBlur stdDeviation="2"/>
<feComposite in2="hardAlpha" operator="out"/>
<feColorMatrix type="matrix" values="0 0 0 0 0 0 0 0 0 0 0 0 0 0 0 0 0 0 0.25 0"/>
<feBlend mode="normal" in2="BackgroundImageFix" result="effect1_dropShadow_218_2"/>
<feBlend mode="normal" in="SourceGraphic" in2="effect1_dropShadow_218_2" result="shape"/>
</filter>
<filter id="filter10_d_218_2" x="13" y="16" width="25" height="20" filterUnits="userSpaceOnUse" color-interpolation-filters="sRGB">
<feFlood flood-opacity="0" result="BackgroundImageFix"/>
<feColorMatrix in="SourceAlpha" type="matrix" values="0 0 0 0 0 0 0 0 0 0 0 0 0 0 0 0 0 0 127 0" result="hardAlpha"/>
<feOffset dy="4"/>
<feGaussianBlur stdDeviation="2"/>
<feComposite in2="hardAlpha" operator="out"/>
<feColorMatrix type="matrix" values="0 0 0 0 0 0 0 0 0 0 0 0 0 0 0 0 0 0 0.25 0"/>
<feBlend mode="normal" in2="BackgroundImageFix" result="effect1_dropShadow_218_2"/>
<feBlend mode="normal" in="SourceGraphic" in2="effect1_dropShadow_218_2" result="shape"/>
</filter>
</defs>
</svg>
