<svg width="20" height="20" viewBox="0 0 20 20" fill="none" xmlns="http://www.w3.org/2000/svg">
<path d="M12.5005 18.9593H7.50053C6.40053 18.9593 5.48386 18.851 4.70886 18.6176C4.42553 18.5343 4.24219 18.2593 4.25886 17.9676C4.46719 15.4759 6.99219 13.5176 10.0005 13.5176C13.0089 13.5176 15.5255 15.4676 15.7422 17.9676C15.7672 18.2676 15.5839 18.5343 15.2922 18.6176C14.5172 18.851 13.6005 18.9593 12.5005 18.9593ZM5.60053 17.5509C6.15053 17.6593 6.77553 17.7093 7.50053 17.7093H12.5005C13.2255 17.7093 13.8505 17.6593 14.4005 17.5509C13.9589 15.9509 12.1339 14.7676 10.0005 14.7676C7.86719 14.7676 6.0422 15.9509 5.60053 17.5509Z" fill="#1D69D8"/>
<path fill-rule="evenodd" clip-rule="evenodd" d="M2.57629 2.57824C3.68834 1.46618 5.35242 1.04102 7.4974 1.04102H12.4974C14.6424 1.04102 16.3064 1.46618 17.4185 2.57824C18.5306 3.6903 18.9557 5.35437 18.9557 7.49935V12.4993C18.9557 14.1249 18.7128 15.4695 18.1141 16.51C17.5006 17.5763 16.5511 18.2588 15.2843 18.6174C15.1048 18.6682 14.9119 18.6362 14.7585 18.53C14.605 18.4238 14.507 18.2546 14.4913 18.0687C14.3437 16.3251 12.4914 14.766 9.9974 14.766C7.50339 14.766 5.65104 16.3251 5.5035 18.0687C5.48777 18.2546 5.38979 18.4238 5.23634 18.53C5.08289 18.6362 4.89003 18.6682 4.71049 18.6174C3.44367 18.2588 2.49417 17.5763 1.88067 16.51C1.28196 15.4695 1.03906 14.1249 1.03906 12.4993V7.49935C1.03906 5.35437 1.46423 3.6903 2.57629 2.57824ZM3.46017 3.46212C2.69723 4.22507 2.28906 5.47766 2.28906 7.49935V12.4993C2.28906 14.0238 2.52116 15.1167 2.96412 15.8866C3.29175 16.456 3.75443 16.883 4.40161 17.1789C5.02197 15.0067 7.37928 13.516 9.9974 13.516C12.6155 13.516 14.9728 15.0067 15.5932 17.1789C16.2404 16.883 16.703 16.456 17.0307 15.8866C17.4736 15.1167 17.7057 14.0238 17.7057 12.4993V7.49935C17.7057 5.47766 17.2976 4.22507 16.5346 3.46212C15.7717 2.69918 14.5191 2.29102 12.4974 2.29102H7.4974C5.47571 2.29102 4.22311 2.69918 3.46017 3.46212ZM9.9974 6.45768C8.69258 6.45768 7.63906 7.5112 7.63906 8.81603C7.63906 10.1231 8.69483 11.1827 9.9974 11.1827C11.3 11.1827 12.3557 10.1231 12.3557 8.81603C12.3557 7.5112 11.3022 6.45768 9.9974 6.45768ZM6.38906 8.81603C6.38906 6.82086 8.00221 5.20768 9.9974 5.20768C11.9926 5.20768 13.6057 6.82086 13.6057 8.81603C13.6057 10.8089 11.9948 12.4327 9.9974 12.4327C7.99996 12.4327 6.38906 10.8089 6.38906 8.81603Z" fill="#1D69D8"/>
</svg>
