<svg width="25" height="25" viewBox="0 0 25 25" fill="none" xmlns="http://www.w3.org/2000/svg">
<path d="M20.0651 20.4694C19.638 20.4694 19.2839 20.1152 19.2839 19.6882V7.39648C19.2839 6.3444 19.0651 5.99023 17.7422 5.99023H16.6589C15.3359 5.99023 15.1172 6.3444 15.1172 7.39648V19.6882C15.1172 20.1152 14.763 20.4694 14.3359 20.4694C13.9089 20.4694 13.5547 20.1152 13.5547 19.6882V7.39648C13.5547 5.39648 14.5755 4.42773 16.6589 4.42773H17.7422C19.8359 4.42773 20.8464 5.39648 20.8464 7.39648V19.6882C20.8464 20.1152 20.4922 20.4694 20.0651 20.4694Z" fill="#1D69D8"/>
<path d="M11.2057 20.4681C10.7786 20.4681 10.4245 20.1139 10.4245 19.6868V12.6035C10.4245 11.5514 10.2057 11.1973 8.88281 11.1973H7.79948C6.47656 11.1973 6.25781 11.5514 6.25781 12.6035V19.6868C6.25781 20.1139 5.90365 20.4681 5.47656 20.4681C5.04948 20.4681 4.69531 20.1139 4.69531 19.6868V12.6035C4.69531 10.6035 5.71615 9.63477 7.79948 9.63477H8.88281C10.9766 9.63477 11.987 10.6035 11.987 12.6035V19.6868C11.987 20.1139 11.6328 20.4681 11.2057 20.4681Z" fill="#1D69D8"/>
<path d="M22.9193 20.5723H2.08594C1.65885 20.5723 1.30469 20.2181 1.30469 19.791C1.30469 19.3639 1.64844 19.0098 2.08594 19.0098H22.9193C23.3464 19.0098 23.7005 19.3639 23.7005 19.791C23.7005 20.2181 23.3568 20.5723 22.9193 20.5723Z" fill="#1D69D8"/>
</svg>
