<svg width="24" height="24" viewBox="0 0 24 24" fill="none" xmlns="http://www.w3.org/2000/svg">
<path d="M15.9888 20.3662H8.01121C5.87979 20.3662 4.52482 19.095 4.40303 16.9712L4.00719 10.6911C3.9463 9.7396 4.27362 8.82613 4.92827 8.13342C5.57531 7.44071 6.48877 7.04488 7.43268 7.04488C7.67627 7.04488 7.91225 6.90025 8.02643 6.67188L8.57451 5.58334C9.02363 4.69271 10.1502 4 11.1322 4H12.8754C13.8574 4 14.9764 4.69271 15.4255 5.57572L15.9736 6.68711C16.0877 6.90025 16.3161 7.04488 16.5673 7.04488C17.5112 7.04488 18.4247 7.44071 19.0717 8.13342C19.7264 8.83374 20.0537 9.7396 19.9928 10.6911L19.597 16.9788C19.46 19.133 18.143 20.3662 15.9888 20.3662ZM11.1322 5.14183C10.5689 5.14183 9.85336 5.58334 9.59455 6.09335L9.04647 7.18951C8.72676 7.8061 8.11017 8.18671 7.43268 8.18671C6.79326 8.18671 6.19951 8.44552 5.758 8.90987C5.3241 9.37421 5.10335 9.98319 5.14902 10.615L5.54486 16.9027C5.6362 18.4403 6.46593 19.2244 8.01121 19.2244H15.9888C17.5265 19.2244 18.3562 18.4403 18.4551 16.9027L18.851 10.615C18.889 9.98319 18.6759 9.37421 18.242 8.90987C17.8005 8.44552 17.2067 8.18671 16.5673 8.18671C15.8898 8.18671 15.2732 7.8061 14.9535 7.20473L14.3978 6.09335C14.1466 5.59095 13.4311 5.14944 12.8678 5.14944H11.1322V5.14183Z" fill="#626262"/>
<path d="M13.1417 9.70921H10.858C10.5459 9.70921 10.2871 9.4504 10.2871 9.1383C10.2871 8.8262 10.5459 8.56738 10.858 8.56738H13.1417C13.4538 8.56738 13.7126 8.8262 13.7126 9.1383C13.7126 9.4504 13.4538 9.70921 13.1417 9.70921Z" fill="#626262"/>
<path d="M12 17.3213C10.3177 17.3213 8.95508 15.9587 8.95508 14.2764C8.95508 12.5942 10.3177 11.2316 12 11.2316C13.6823 11.2316 15.0448 12.5942 15.0448 14.2764C15.0448 15.9587 13.6823 17.3213 12 17.3213ZM12 12.3734C10.9495 12.3734 10.0969 13.226 10.0969 14.2764C10.0969 15.3269 10.9495 16.1795 12 16.1795C13.0504 16.1795 13.903 15.3269 13.903 14.2764C13.903 13.226 13.0504 12.3734 12 12.3734Z" fill="#626262"/>
</svg>
