<svg width="29" height="29" viewBox="0 0 29 29" fill="none" xmlns="http://www.w3.org/2000/svg">
<g clip-path="url(#clip0_3548_1802)">
<path fill-rule="evenodd" clip-rule="evenodd" d="M18.6944 2.40219C18.6944 1.76154 18.175 1.24219 17.5344 1.24219C16.8937 1.24219 16.3744 1.76154 16.3744 2.40219V4.72219C16.3744 5.36283 16.8937 5.88219 17.5344 5.88219C18.175 5.88219 18.6944 5.36283 18.6944 4.72219V2.40219ZM13.7146 2.74194C13.2616 2.28894 12.5271 2.28894 12.0741 2.74194C11.6211 3.19495 11.6211 3.92942 12.0741 4.38243L13.2341 5.54243C13.6871 5.99544 14.4216 5.99544 14.8746 5.54243C15.3276 5.08942 15.3276 4.35495 14.8746 3.90194L13.7146 2.74194ZM22.9946 4.38243C23.4476 3.92942 23.4476 3.19495 22.9946 2.74194C22.5416 2.28894 21.8071 2.28894 21.3541 2.74194L20.1941 3.90194C19.741 4.35495 19.741 5.08942 20.1941 5.54243C20.6471 5.99544 21.3816 5.99544 21.8346 5.54243L22.9946 4.38243ZM12.6723 7.50167C12.1405 6.96988 11.4313 6.52165 10.6441 6.3642C9.81637 6.19866 8.88923 6.36326 8.16094 7.09156C7.937 7.31549 7.76635 7.55824 7.64221 7.8111C7.42142 7.7162 7.19077 7.64213 6.95301 7.59457C6.12528 7.42902 5.19813 7.59363 4.46984 8.32192C3.74153 9.05023 3.57694 9.97736 3.74248 10.8051C3.79004 11.0429 3.86412 11.2735 3.95902 11.4943C3.70615 11.6184 3.46341 11.7891 3.23947 12.013C2.51117 12.7413 2.34657 13.6685 2.51212 14.4962C2.66957 15.2834 3.1178 15.9925 3.64959 16.5244L3.6922 16.5669C3.53507 16.6687 3.38338 16.7906 3.23947 16.9344C2.51117 17.6628 2.34657 18.5899 2.51212 19.4176C2.66957 20.2048 3.1178 20.914 3.64959 21.4458L9.3913 27.1876C11.7321 29.5283 15.3964 29.6437 18.5305 28.0006C20.9491 28.5456 23.6331 27.9449 25.893 25.6849C27.8956 23.6824 29.1344 20.5258 29.1344 17.9047C29.1344 15.1739 27.8529 12.8559 25.6699 10.6675L24.9904 9.97199L24.981 9.96241C24.4491 9.43061 23.74 8.98238 22.9527 8.82493C22.1251 8.65939 21.1979 8.82399 20.4696 9.55229C20.325 9.69694 20.2023 9.84942 20.0998 10.0074L20.0545 9.96241L20.053 9.96086C19.5213 9.42974 18.8127 8.98223 18.0263 8.82493C17.1986 8.65939 16.2715 8.82399 15.5431 9.55229C15.3992 9.6962 15.2774 9.84788 15.1756 10.005L12.6723 7.50167ZM14.3127 14.0637L10.2115 9.96241C9.92309 9.67396 9.75615 9.35782 9.70853 9.11973C9.66902 8.92216 9.70948 8.82399 9.80142 8.73204C9.89336 8.6401 9.99153 8.59964 10.1891 8.63915C10.4272 8.68676 10.7433 8.85372 11.0318 9.14217L15.9523 14.0626L15.9533 14.0637L18.414 16.5244C18.867 16.9774 19.6015 16.9774 20.0545 16.5244C20.5075 16.0714 20.5075 15.3369 20.0545 14.8839L17.5938 12.4231C17.3059 12.1349 17.1384 11.8183 17.0907 11.5805C17.0512 11.3829 17.0917 11.2847 17.1836 11.1928C17.2756 11.1008 17.3737 11.0604 17.5713 11.0999C17.8094 11.1475 18.1255 11.3145 18.414 11.6029L18.4167 11.6056L20.8653 14.0383L21.6871 14.8759L21.6949 14.8839C22.5422 15.7312 22.8758 17.214 22.5056 19.0652C22.1412 20.8872 21.1259 22.8352 19.6443 24.3167C19.0559 24.9051 18.4283 25.3855 17.7867 25.761C15.1836 27.2845 12.5198 27.035 11.0318 25.5471L5.29009 19.8053C5.00163 19.5169 4.83468 19.2007 4.78707 18.9627C4.74756 18.765 4.78802 18.6669 4.87996 18.575C4.9719 18.483 5.07007 18.4425 5.26765 18.4821C5.50574 18.5297 5.82188 18.6966 6.11032 18.9851L8.57105 21.4458C9.02407 21.8989 9.75853 21.8989 10.2115 21.4458C10.6646 20.9928 10.6646 20.2583 10.2115 19.8053L7.75082 17.3446L5.29009 14.8839C5.00163 14.5954 4.83468 14.2793 4.78707 14.0412C4.74756 13.8436 4.78802 13.7455 4.87996 13.6535C4.9719 13.5616 5.07007 13.5211 5.26765 13.5606C5.50574 13.6082 5.82188 13.7752 6.11032 14.0637L10.2115 18.1648C10.6646 18.6178 11.399 18.6178 11.852 18.1648C12.305 17.7119 12.305 16.9774 11.852 16.5244L7.75082 12.4231L6.52045 11.1928C6.232 10.9043 6.06505 10.5882 6.01743 10.3501C5.97792 10.1525 6.01838 10.0544 6.11032 9.96241C6.20227 9.87046 6.30044 9.83 6.49802 9.86951C6.73611 9.91713 7.05224 10.0841 7.34069 10.3725L8.57105 11.6029L12.6723 15.7041C13.1253 16.1571 13.8597 16.1571 14.3127 15.7041C14.7658 15.2512 14.7658 14.5166 14.3127 14.0637Z" fill="#2096F3"/>
</g>
<defs>
<clipPath id="clip0_3548_1802">
<rect width="29" height="29" fill="white"/>
</clipPath>
</defs>
</svg>
