<svg width="19" height="19" viewBox="0 0 19 19" fill="none" xmlns="http://www.w3.org/2000/svg">
<path d="M1.95361 8.4765C1.95361 10.2074 2.57731 11.8076 3.62628 13.0731C5.02963 14.8185 7.25514 15.9385 9.74999 15.9385C9.74999 15.9385 12.4917 16.9453 14.316 17.3268C14.9476 17.459 15.6484 17.0258 15.6484 16.4396C15.6484 15.7265 14.4278 14.4404 14.4278 14.4404C15.2969 13.8214 16.0236 13.0318 16.5563 12.1232C17.1876 11.0462 17.5463 9.80203 17.5463 8.4765C17.5463 7.1475 17.1872 5.90081 16.5563 4.82193C15.9719 3.82255 15.1542 2.96715 14.1726 2.32363C12.911 1.47998 11.3943 1 9.74999 1C5.44071 1 1.95361 4.34548 1.95361 8.4765Z" stroke="#535353" stroke-width="2" stroke-linecap="round" stroke-linejoin="round"/>
</svg>
