<svg width="14" height="14" viewBox="0 0 13 13" fill="none" xmlns="http://www.w3.org/2000/svg">
<path d="M2.82716 9.41454C2.52751 9.41454 2.24751 9.31138 2.04611 9.1198C1.79067 8.8791 1.66786 8.51559 1.71207 8.12261L1.89383 6.53103C1.92821 6.23138 2.10997 5.83349 2.3212 5.61735L6.35418 1.34857C7.3612 0.28261 8.41242 0.253136 9.47839 1.26015C10.5444 2.26717 10.5738 3.3184 9.56681 4.38436L5.53383 8.65313C5.32751 8.87419 4.94435 9.0805 4.6447 9.12963L3.06295 9.3998C2.97944 9.40471 2.90576 9.41454 2.82716 9.41454ZM7.93102 1.25524C7.55277 1.25524 7.22365 1.49103 6.88962 1.84471L2.85663 6.1184C2.75839 6.22156 2.64541 6.46717 2.62576 6.60963L2.444 8.20121C2.42435 8.36331 2.46365 8.49594 2.55207 8.57945C2.64049 8.66296 2.77313 8.69243 2.93523 8.66787L4.51699 8.3977C4.65944 8.37314 4.89523 8.24542 4.99348 8.14226L9.02646 3.87349C9.63558 3.22507 9.85664 2.62577 8.96751 1.79068C8.57453 1.41243 8.23558 1.25524 7.93102 1.25524Z" fill="currentColor"/>
<path d="M8.62351 5.20471C8.61369 5.20471 8.59895 5.20471 8.58913 5.20471C7.0565 5.05243 5.82351 3.88822 5.58772 2.36542C5.55825 2.16401 5.69579 1.97735 5.8972 1.94296C6.0986 1.91349 6.28527 2.05103 6.31965 2.25243C6.50632 3.44121 7.46913 4.35489 8.66772 4.47278C8.86913 4.49243 9.0165 4.67419 8.99685 4.87559C8.97229 5.06226 8.81018 5.20471 8.62351 5.20471Z" fill="currentColor"/>
<path d="M10.4215 11.0012H1.57936C1.37796 11.0012 1.21094 10.8342 1.21094 10.6328C1.21094 10.4314 1.37796 10.2644 1.57936 10.2644H10.4215C10.6229 10.2644 10.7899 10.4314 10.7899 10.6328C10.7899 10.8342 10.6229 11.0012 10.4215 11.0012Z" fill="currentColor"/>
</svg>
