<svg width="80" height="80" viewBox="0 0 80 80" fill="none" xmlns="http://www.w3.org/2000/svg">
<path d="M10 34L38.7196 10.067C39.4613 9.44887 40.5387 9.44887 41.2804 10.067L70 34V69C70 71.7614 67.7614 74 65 74H15C12.2386 74 10 71.7614 10 69V34Z" fill="#276FCE"/>
<path d="M60 18H20C18.8954 18 18 18.8954 18 20V60C18 61.1046 18.8954 62 20 62H60C61.1046 62 62 61.1046 62 60V20C62 18.8954 61.1046 18 60 18Z" fill="#EBEFFF"/>
<path d="M10 34L40 53.5L70 34V69C70 71.7614 67.7614 74 65 74H15C12.2386 74 10 71.7614 10 69V34Z" fill="#93B9FA"/>
<path d="M58.6 26H21.4C21.1791 26 21 26.1791 21 26.4V28.6C21 28.8209 21.1791 29 21.4 29H58.6C58.8209 29 59 28.8209 59 28.6V26.4C59 26.1791 58.8209 26 58.6 26Z" fill="#CCD7F5"/>
<path d="M58.6 31H21.4C21.1791 31 21 31.1791 21 31.4V33.6C21 33.8209 21.1791 34 21.4 34H58.6C58.8209 34 59 33.8209 59 33.6V31.4C59 31.1791 58.8209 31 58.6 31Z" fill="#CCD7F5"/>
</svg>
