<svg width="13" height="13" viewBox="0 0 13 13" fill="none" xmlns="http://www.w3.org/2000/svg">
<path d="M6.97268 6.35104C7.08355 6.4619 7.22528 6.51414 7.36583 6.51414M6.97268 6.35104L7.07841 6.24531L7.36583 6.51414M6.97268 6.35104L6.97268 6.35104M6.97268 6.35104L6.97268 6.35104M7.36583 6.51414C7.50639 6.51414 7.64812 6.4619 7.75898 6.35104L12.2006 1.90937C12.4163 1.69371 12.4163 1.33874 12.2006 1.12307C11.985 0.907413 11.63 0.907413 11.4144 1.12307L6.97268 5.56474C6.75702 5.7804 6.75702 6.13538 6.97268 6.35104M7.36583 6.51414L6.97268 6.35104" fill="white" stroke="white" stroke-width="0.3"/>
<path d="M11.6844 3.68398C11.6844 3.98891 11.9357 4.24023 12.2406 4.24023C12.5456 4.24023 12.7969 3.98891 12.7969 3.68398V1.08398C12.7969 0.779058 12.5456 0.527734 12.2406 0.527734H9.64062C9.3357 0.527734 9.08437 0.779058 9.08437 1.08398C9.08437 1.38891 9.3357 1.64023 9.64062 1.64023H11.6844V3.68398Z" fill="white" stroke="white" stroke-width="0.3"/>
<path d="M5.19792 12.4736H8.44792C9.93576 12.4736 11.0332 12.1563 11.7559 11.4336C12.4786 10.711 12.7958 9.61349 12.7958 8.12565V7.04232C12.7958 6.73739 12.5445 6.48607 12.2396 6.48607C11.9347 6.48607 11.6833 6.73739 11.6833 7.04232V8.12565C11.6833 9.36361 11.4616 10.1581 10.971 10.6487C10.4804 11.1393 9.68588 11.3611 8.44792 11.3611H5.19792C3.95996 11.3611 3.16547 11.1393 2.67487 10.6487C2.18426 10.1581 1.9625 9.36361 1.9625 8.12565V4.87565C1.9625 3.63769 2.18426 2.84321 2.67487 2.3526C3.16547 1.862 3.95996 1.64023 5.19792 1.64023H6.28125C6.58618 1.64023 6.8375 1.38891 6.8375 1.08398C6.8375 0.779058 6.58618 0.527734 6.28125 0.527734H5.19792C3.71007 0.527734 2.61259 0.844996 1.88992 1.56766C1.16726 2.29032 0.85 3.38781 0.85 4.87565V8.12565C0.85 9.61349 1.16726 10.711 1.88992 11.4336C2.61259 12.1563 3.71007 12.4736 5.19792 12.4736Z" fill="white" stroke="white" stroke-width="0.3"/>
</svg>
