<svg width="24" height="24" viewBox="0 0 24 24" fill="none" xmlns="http://www.w3.org/2000/svg">
<path d="M12.004 15.6974C9.96319 15.6974 8.30664 14.0409 8.30664 12.0001C8.30664 9.95928 9.96319 8.30273 12.004 8.30273C14.0448 8.30273 15.7013 9.95928 15.7013 12.0001C15.7013 14.0409 14.0448 15.6974 12.004 15.6974ZM12.004 9.58357C10.6719 9.58357 9.58748 10.668 9.58748 12.0001C9.58748 13.3321 10.6719 14.4166 12.004 14.4166C13.3361 14.4166 14.4205 13.3321 14.4205 12.0001C14.4205 10.668 13.3361 9.58357 12.004 9.58357Z" fill="#626262"/>
<path d="M12.0043 19.7019C8.79364 19.7019 5.76233 17.8233 3.67884 14.5615C2.77372 13.1526 2.77372 10.8556 3.67884 9.43815C5.77087 6.17629 8.80218 4.29773 12.0043 4.29773C15.2064 4.29773 18.2377 6.17629 20.3212 9.43815C21.2263 10.8471 21.2263 13.144 20.3212 14.5615C18.2377 17.8233 15.2064 19.7019 12.0043 19.7019ZM12.0043 5.57856C9.2462 5.57856 6.60769 7.23511 4.76328 10.1298C4.12287 11.1288 4.12287 12.8708 4.76328 13.8698C6.60769 16.7645 9.2462 18.4211 12.0043 18.4211C14.7623 18.4211 17.4009 16.7645 19.2453 13.8698C19.8857 12.8708 19.8857 11.1288 19.2453 10.1298C17.4009 7.23511 14.7623 5.57856 12.0043 5.57856Z" fill="#626262"/>
</svg>
