<svg width="24" height="24" viewBox="0 0 24 24" fill="none" xmlns="http://www.w3.org/2000/svg">
<path d="M5.51039 17.3944L5.51036 17.3942L4.52037 11.4692L4.52019 11.4681C4.45988 11.112 4.5136 10.6763 4.67324 10.2563C4.83286 9.83629 5.08214 9.47456 5.36628 9.24782L5.36697 9.24727L10.5254 5.11607L10.5266 5.1151C11.3383 4.46089 12.6484 4.46377 13.4733 5.12369L13.4735 5.1238L18.6303 9.24627C18.6305 9.24646 18.6307 9.24666 18.631 9.24685C18.9118 9.47354 19.1597 9.83546 19.3197 10.2563C19.4795 10.6769 19.5352 11.1135 19.4778 11.4707C19.4778 11.4711 19.4777 11.4715 19.4777 11.4719L18.4883 17.393C18.4883 17.3932 18.4883 17.3933 18.4882 17.3934C18.3054 18.4711 17.2551 19.3585 16.1676 19.3585H7.83085C6.71977 19.3585 5.69339 18.4924 5.51039 17.3944ZM10.6014 5.21272L10.5999 5.21386L5.44156 9.34506L5.44155 9.34506L5.4401 9.34623C5.14005 9.58838 4.91762 9.94755 4.7818 10.3031C4.64605 10.6585 4.57225 11.0746 4.63566 11.4551L4.63569 11.4553L5.62568 17.3803L5.62604 17.3824C5.80103 18.4032 6.79002 19.242 7.83085 19.242H16.1676C17.2096 19.242 18.198 18.402 18.3726 17.3742L18.3728 17.3729L19.3628 11.4479L19.3628 11.4477C19.4265 11.0655 19.3498 10.6469 19.2136 10.2921C19.0774 9.93744 18.8553 9.57735 18.5576 9.33813L18.5566 9.33734L13.3982 5.21359L13.3982 5.21355L13.3923 5.20893C12.9937 4.90004 12.4867 4.75431 11.9918 4.75431C11.5047 4.75431 10.9949 4.89994 10.6014 5.21272Z" fill="#626262" stroke="#626262"/>
<path d="M11.9992 15.1615C10.6668 15.1615 9.58008 14.0748 9.58008 12.7424C9.58008 11.41 10.6668 10.3232 11.9992 10.3232C13.3316 10.3232 14.4184 11.41 14.4184 12.7424C14.4184 14.0748 13.3316 15.1615 11.9992 15.1615ZM11.9992 11.4398C11.2846 11.4398 10.6966 12.0278 10.6966 12.7424C10.6966 13.457 11.2846 14.045 11.9992 14.045C12.7138 14.045 13.3018 13.457 13.3018 12.7424C13.3018 12.0278 12.7138 11.4398 11.9992 11.4398Z" fill="#626262"/>
</svg>
