<svg width="27" height="27" viewBox="0 0 27 27" fill="none" xmlns="http://www.w3.org/2000/svg">
<path d="M10.125 23.625H16.875V14.175C16.875 13.8022 16.5728 13.5 16.2 13.5H10.8C10.4272 13.5 10.125 13.8022 10.125 14.175V23.625Z" fill="currentColor" stroke="#F3F6FC" stroke-linecap="round" stroke-linejoin="round"/>
<path d="M4.05 23.625H10.125V20.3625C10.125 19.9897 9.82282 19.6875 9.45 19.6875H4.05C3.67718 19.6875 3.375 19.9897 3.375 20.3625V22.95C3.375 23.3228 3.67718 23.625 4.05 23.625Z" fill="currentColor" stroke="#F3F6FC" stroke-linecap="round" stroke-linejoin="round"/>
<path d="M16.875 23.625V18.1125C16.875 17.7397 17.1772 17.4375 17.55 17.4375H22.95C23.3228 17.4375 23.625 17.7397 23.625 18.1125V22.95C23.625 23.3228 23.3228 23.625 22.95 23.625H16.875Z" fill="currentColor" stroke="#F3F6FC" stroke-linecap="round" stroke-linejoin="round"/>
<path d="M14.8437 5.75241L13.821 3.5838C13.6897 3.3054 13.3103 3.3054 13.179 3.5838L12.1563 5.75241L9.86906 6.10231C9.57555 6.14721 9.45866 6.52474 9.67106 6.74133L11.3258 8.42817L10.9353 10.8112C10.8852 11.1173 11.1921 11.3507 11.4546 11.2061L13.5 10.0804L15.5454 11.2061C15.8079 11.3507 16.1149 11.1173 16.0647 10.8112L15.6742 8.42817L17.3289 6.74133C17.5414 6.52474 17.4244 6.14721 17.131 6.10231L14.8437 5.75241Z" fill="currentColor" stroke="currentColor" stroke-linecap="round" stroke-linejoin="round"/>
</svg>
