<svg width="22" height="22" viewBox="0 0 22 22" fill="none" xmlns="http://www.w3.org/2000/svg">
<path d="M16.5 9.85482C16.1242 9.85482 15.8125 9.54315 15.8125 9.16732V7.33398C15.8125 4.44648 14.9967 2.52148 11 2.52148C7.00333 2.52148 6.1875 4.44648 6.1875 7.33398V9.16732C6.1875 9.54315 5.87583 9.85482 5.5 9.85482C5.12417 9.85482 4.8125 9.54315 4.8125 9.16732V7.33398C4.8125 4.67565 5.45417 1.14648 11 1.14648C16.5458 1.14648 17.1875 4.67565 17.1875 7.33398V9.16732C17.1875 9.54315 16.8758 9.85482 16.5 9.85482Z" fill="currentColor"/>
<path d="M15.583 20.8535H6.41634C2.37384 20.8535 1.14551 19.6252 1.14551 15.5827V13.7493C1.14551 9.70685 2.37384 8.47852 6.41634 8.47852H15.583C19.6255 8.47852 20.8538 9.70685 20.8538 13.7493V15.5827C20.8538 19.6252 19.6255 20.8535 15.583 20.8535ZM6.41634 9.85352C3.13467 9.85352 2.52051 10.4768 2.52051 13.7493V15.5827C2.52051 18.8552 3.13467 19.4785 6.41634 19.4785H15.583C18.8647 19.4785 19.4788 18.8552 19.4788 15.5827V13.7493C19.4788 10.4768 18.8647 9.85352 15.583 9.85352H6.41634Z" fill="currentColor"/>
<path d="M7.33366 15.5843C7.21449 15.5843 7.09532 15.5568 6.98532 15.511C6.86615 15.4651 6.7745 15.4009 6.68283 15.3184C6.51783 15.1443 6.41699 14.9151 6.41699 14.6676C6.41699 14.5484 6.44448 14.4293 6.49031 14.3193C6.53615 14.2001 6.60033 14.1084 6.68283 14.0168C6.7745 13.9343 6.86615 13.8701 6.98532 13.8243C7.31532 13.6776 7.72782 13.7601 7.98448 14.0168C8.06698 14.1084 8.13117 14.2093 8.177 14.3193C8.22284 14.4293 8.25033 14.5484 8.25033 14.6676C8.25033 14.9059 8.14948 15.1443 7.98448 15.3184C7.81032 15.4834 7.57199 15.5843 7.33366 15.5843Z" fill="currentColor"/>
<path d="M10.9997 15.5841C10.7613 15.5841 10.523 15.4833 10.3488 15.3183C10.1838 15.1441 10.083 14.915 10.083 14.6675C10.083 14.5483 10.1013 14.4291 10.1563 14.3191C10.2022 14.2091 10.2663 14.1083 10.3488 14.0167C10.5597 13.8058 10.8805 13.705 11.1738 13.7691C11.238 13.7783 11.293 13.7966 11.348 13.8241C11.403 13.8425 11.458 13.87 11.513 13.9067C11.5588 13.9342 11.6047 13.98 11.6505 14.0167C11.733 14.1083 11.7972 14.2091 11.843 14.3191C11.8889 14.4291 11.9163 14.5483 11.9163 14.6675C11.9163 14.915 11.8155 15.1441 11.6505 15.3183C11.6047 15.355 11.5588 15.3916 11.513 15.4283C11.458 15.465 11.403 15.4925 11.348 15.5108C11.293 15.5383 11.238 15.5567 11.1738 15.5658C11.1188 15.575 11.0547 15.5841 10.9997 15.5841Z" fill="currentColor"/>
<path d="M14.6667 15.5841C14.4192 15.5841 14.19 15.4833 14.0158 15.3183C13.9333 15.2266 13.8692 15.1258 13.8233 15.0158C13.7775 14.9058 13.75 14.7866 13.75 14.6675C13.75 14.4291 13.8508 14.1908 14.0158 14.0167C14.0617 13.98 14.1075 13.9433 14.1533 13.9067C14.2083 13.87 14.2633 13.8425 14.3183 13.8241C14.3733 13.7966 14.4283 13.7783 14.4833 13.7691C14.7858 13.705 15.0975 13.8058 15.3175 14.0167C15.4825 14.1908 15.5833 14.42 15.5833 14.6675C15.5833 14.7866 15.5558 14.9058 15.51 15.0158C15.4642 15.135 15.4 15.2266 15.3175 15.3183C15.1433 15.4833 14.905 15.5841 14.6667 15.5841Z" fill="currentColor"/>
</svg>
