<svg width="19" height="23" viewBox="0 0 19 23" fill="none" xmlns="http://www.w3.org/2000/svg">
<path d="M9.51821 20.1683C7.14984 20.1683 4.78146 19.7922 2.53506 19.04C1.68123 18.7452 1.03069 18.1455 0.746074 17.3628C0.451298 16.5801 0.552945 15.7161 1.02052 14.9436L2.18946 13.0021C2.43341 12.5955 2.65704 11.7824 2.65704 11.3046V8.36703C2.65704 4.58576 5.73694 1.50586 9.51821 1.50586C13.2995 1.50586 16.3794 4.58576 16.3794 8.36703V11.3046C16.3794 11.7722 16.603 12.5955 16.847 13.0123L18.0057 14.9436C18.4428 15.6755 18.5241 16.5598 18.2294 17.3628C17.9346 18.1658 17.2942 18.7757 16.4912 19.04C14.255 19.7922 11.8866 20.1683 9.51821 20.1683ZM9.51821 3.03056C6.58061 3.03056 4.18174 5.41927 4.18174 8.36703V11.3046C4.18174 12.0467 3.8768 13.1444 3.50071 13.7848L2.33177 15.7263C2.10814 16.1024 2.04716 16.4988 2.1793 16.8342C2.30127 17.1798 2.60622 17.4441 3.02297 17.5864C7.27181 19.0095 11.7748 19.0095 16.0236 17.5864C16.3896 17.4644 16.6742 17.19 16.8063 16.8241C16.9384 16.4581 16.908 16.0617 16.7047 15.7263L15.5357 13.7848C15.1495 13.1241 14.8547 12.0365 14.8547 11.2945V8.36703C14.8547 5.41927 12.466 3.03056 9.51821 3.03056Z" fill="currentColor"/>
<path d="M11.4091 3.30546C11.3379 3.30546 11.2667 3.29529 11.1956 3.27496C10.9008 3.19365 10.6162 3.13266 10.3418 3.092C9.47776 2.98019 8.64425 3.04118 7.86157 3.27496C7.57696 3.36645 7.27202 3.27496 7.07889 3.0615C6.88576 2.84805 6.82477 2.5431 6.93658 2.26866C7.35334 1.20136 8.36981 0.5 9.52858 0.5C10.6874 0.5 11.7038 1.1912 12.1206 2.26866C12.2222 2.5431 12.1714 2.84805 11.9783 3.0615C11.8258 3.22414 11.6123 3.30546 11.4091 3.30546Z" fill="currentColor"/>
<path d="M9.5188 22.4856C8.51249 22.4856 7.53668 22.079 6.82515 21.3675C6.11362 20.6559 5.70703 19.6801 5.70703 18.6738H7.23174C7.23174 19.2735 7.47569 19.8631 7.90261 20.29C8.32952 20.7169 8.91908 20.9609 9.5188 20.9609C10.7792 20.9609 11.8059 19.9343 11.8059 18.6738H13.3306C13.3306 20.7779 11.6229 22.4856 9.5188 22.4856Z" fill="currentColor"/>
</svg>
