<svg width="24" height="24" viewBox="0 0 24 24" fill="none" xmlns="http://www.w3.org/2000/svg">
<path d="M13.8965 19.7494C13.651 19.7494 13.4203 19.5857 13.3534 19.3328C13.2715 19.0352 13.4501 18.7302 13.7551 18.6483C16.7755 17.8523 18.8809 15.1146 18.8809 11.99C18.8809 8.19587 15.7935 5.10848 11.9994 5.10848C8.7781 5.10848 6.66529 6.99067 5.67584 8.12891H7.86304C8.16806 8.12891 8.421 8.38185 8.421 8.68687C8.421 8.99189 8.1755 9.25227 7.86304 9.25227H4.56735C4.53016 9.25227 4.4632 9.24483 4.41112 9.22995C4.34417 9.20763 4.28465 9.17788 4.23258 9.14068C4.16562 9.09604 4.11355 9.03653 4.07635 8.96957C4.03915 8.90262 4.00939 8.82078 4.00195 8.73895C4.00195 8.71663 4.00195 8.70175 4.00195 8.67943V5.30191C4.00195 4.99689 4.2549 4.74395 4.55991 4.74395C4.86493 4.74395 5.11787 4.99689 5.11787 5.30191V7.07994C6.33051 5.77804 8.61443 4 11.9994 4C16.411 4 19.9968 7.58583 19.9968 11.9974C19.9968 15.6279 17.5492 18.812 14.0378 19.7345C13.9932 19.7419 13.9411 19.7494 13.8965 19.7494Z" fill="#626262"/>
<path d="M11.4712 19.98C11.4563 19.98 11.4414 19.9725 11.434 19.9725C10.6305 19.9205 9.84194 19.7419 9.098 19.4518C8.88225 19.3699 8.73346 19.1542 8.7409 18.9236C8.7409 18.8566 8.75578 18.7897 8.7781 18.7301C8.88969 18.4474 9.22447 18.3061 9.49973 18.4102C10.147 18.6632 10.824 18.812 11.5084 18.8641C11.7985 18.8789 12.0292 19.1319 12.0292 19.4295L12.0217 19.4592C12.0068 19.7494 11.7613 19.98 11.4712 19.98ZM7.37204 18.3805C7.24557 18.3805 7.12653 18.3359 7.02238 18.2615C6.39746 17.7556 5.84694 17.1679 5.40058 16.5132C5.33362 16.4165 5.29642 16.3123 5.29642 16.2007C5.29642 16.0147 5.3857 15.8436 5.54193 15.7395C5.78743 15.5684 6.14452 15.6353 6.31563 15.8734C6.31563 15.8808 6.31563 15.8808 6.31563 15.8808C6.32307 15.8883 6.33051 15.9031 6.33795 15.9106C6.7248 16.4685 7.19349 16.967 7.72169 17.3836C7.84816 17.4877 7.93 17.644 7.93 17.8151C7.93 17.9416 7.8928 18.068 7.81097 18.1722C7.69937 18.3061 7.54314 18.3805 7.37204 18.3805ZM4.88725 14.75C4.64175 14.75 4.426 14.5938 4.35905 14.3632C4.12098 13.5969 4.00195 12.8009 4.00195 11.9974V11.99C4.00939 11.685 4.2549 11.4395 4.55991 11.4395C4.86493 11.4395 5.11787 11.6924 5.11787 11.9974C5.11787 12.6967 5.22203 13.3812 5.42289 14.0284C5.43777 14.0879 5.44521 14.14 5.44521 14.1995C5.44521 14.4376 5.28898 14.6533 5.05092 14.7277C4.99884 14.7426 4.94677 14.75 4.88725 14.75Z" fill="#1A1C1F"/>
</svg>
