<svg width="21" height="21" viewBox="0 0 15 15" fill="none" xmlns="http://www.w3.org/2000/svg">
<path d="M5.99882 7.41933C5.99882 8.19134 5.37298 8.81718 4.60097 8.81718C3.82896 8.81718 3.20312 8.19134 3.20312 7.41933C3.20312 6.64733 3.82896 6.02148 4.60097 6.02148C5.37298 6.02148 5.99882 6.64733 5.99882 7.41933Z" stroke="currentColor" stroke-width="1.04839"/>
<path d="M8.7957 4.34375L6 6.30074" stroke="currentColor" stroke-width="1.04839" stroke-linecap="round"/>
<path d="M8.7957 10.4961L6 8.53906" stroke="currentColor" stroke-width="1.04839" stroke-linecap="round"/>
<path d="M11.5965 11.0541C11.5965 11.8261 10.9706 12.4519 10.1986 12.4519C9.42663 12.4519 8.80078 11.8261 8.80078 11.0541C8.80078 10.2821 9.42663 9.65625 10.1986 9.65625C10.9706 9.65625 11.5965 10.2821 11.5965 11.0541Z" stroke="currentColor" stroke-width="1.04839"/>
<path d="M11.5965 3.78457C11.5965 4.55658 10.9706 5.18242 10.1986 5.18242C9.42663 5.18242 8.80078 4.55658 8.80078 3.78457C8.80078 3.01256 9.42663 2.38672 10.1986 2.38672C10.9706 2.38672 11.5965 3.01256 11.5965 3.78457Z" stroke="currentColor" stroke-width="1.04839"/>
</svg>
