<svg width="20" height="20" viewBox="0 0 20 20" fill="none" xmlns="http://www.w3.org/2000/svg">
<g clip-path="url(#clip0_4345_909)">
<path d="M15 9.375H17.1172C17.2325 9.37526 17.3456 9.34319 17.4437 9.28243C17.5417 9.22167 17.6208 9.13465 17.6719 9.03125L19.1094 6.15625C19.1806 6.01226 19.1944 5.84658 19.148 5.6928C19.1015 5.53902 18.9984 5.40865 18.8594 5.32812L15 3.125" stroke="#2B2E31" stroke-opacity="0.68" stroke-width="1.25" stroke-linecap="round" stroke-linejoin="round"/>
<path d="M5.0031 9.375H2.88591C2.77057 9.37526 2.65746 9.34319 2.55942 9.28243C2.46138 9.22167 2.38232 9.13465 2.33122 9.03125L0.89372 6.15625C0.822501 6.01226 0.808705 5.84658 0.855129 5.6928C0.901554 5.53902 1.00472 5.40865 1.14372 5.32812L5.0031 3.125" stroke="#2B2E31" stroke-opacity="0.68" stroke-width="1.25" stroke-linecap="round" stroke-linejoin="round"/>
<path d="M12.5 3.125C12.5 3.78804 12.2366 4.42393 11.7678 4.89277C11.2989 5.36161 10.663 5.625 10 5.625C9.33696 5.625 8.70107 5.36161 8.23223 4.89277C7.76339 4.42393 7.5 3.78804 7.5 3.125H5V16.25C5 16.4158 5.06585 16.5747 5.18306 16.6919C5.30027 16.8092 5.45924 16.875 5.625 16.875H14.375C14.5408 16.875 14.6997 16.8092 14.8169 16.6919C14.9342 16.5747 15 16.4158 15 16.25V3.125H12.5Z" stroke="#2B2E31" stroke-opacity="0.68" stroke-width="1.25" stroke-linecap="round" stroke-linejoin="round"/>
</g>
<defs>
<clipPath id="clip0_4345_909">
<rect width="20" height="20" fill="white"/>
</clipPath>
</defs>
</svg>
