<svg width="71" height="71" viewBox="0 0 71 71" fill="none" xmlns="http://www.w3.org/2000/svg">
<path d="M13.2187 30.369C13.242 30.5802 13.2658 30.7938 13.2898 31.0095L13.6614 34.3548C13.9223 36.704 14.1486 38.7414 14.5433 40.3673C14.968 42.1163 15.6681 43.764 17.128 45.0707C18.5879 46.3774 20.3029 46.8913 22.0882 47.12C23.7477 47.333 25.7975 47.3327 28.1613 47.3327H43.9985C45.6191 47.3327 47.0495 47.3327 48.2437 47.2114C49.538 47.08 50.7953 46.7889 52.0044 46.0609C53.2134 45.3329 54.0592 44.3578 54.7811 43.2756C55.447 42.2769 56.1161 41.0128 56.8741 39.581L64.2388 25.6698C66.8519 20.7339 63.2738 14.791 57.6888 14.791H27.8062C24.8988 14.7908 22.4114 14.7907 20.4426 15.0658C19.4461 15.205 18.4697 15.4279 17.5539 15.8079L17.1283 11.978C16.7448 8.52689 13.8278 5.91602 10.3555 5.91602H8.8763C7.24247 5.91602 5.91797 7.24049 5.91797 8.87435C5.91797 10.5082 7.24247 11.8327 8.8763 11.8327H10.3555C10.813 11.8327 11.1973 12.1767 11.2478 12.6314L13.2187 30.369Z" fill="#1D69D8"/>
<path fill-rule="evenodd" clip-rule="evenodd" d="M41.418 57.6868C41.418 53.6023 44.7292 50.291 48.8138 50.291C52.8984 50.291 56.2096 53.6023 56.2096 57.6868C56.2096 61.7714 52.8984 65.0827 48.8138 65.0827C44.7292 65.0827 41.418 61.7714 41.418 57.6868Z" fill="#1D69D8"/>
<path fill-rule="evenodd" clip-rule="evenodd" d="M14.793 57.6868C14.793 53.6023 18.1042 50.291 22.1888 50.291C26.2734 50.291 29.5846 53.6023 29.5846 57.6868C29.5846 61.7714 26.2734 65.0827 22.1888 65.0827C18.1042 65.0827 14.793 61.7714 14.793 57.6868Z" fill="#1D69D8"/>
</svg>
