<svg width="24" height="24" viewBox="0 0 24 24" fill="none" xmlns="http://www.w3.org/2000/svg">
<path d="M7.69752 14.4027L7.69756 14.4028C8.63871 15.8106 10.2162 16.7457 12 16.7457C13.7838 16.7457 15.3613 15.8106 16.3024 14.4028C16.4698 14.1525 16.3983 13.7784 16.1474 13.6106C15.8972 13.4433 15.5176 13.5146 15.3497 13.7657L15.3497 13.7657C14.6049 14.8798 13.385 15.6022 12 15.6022C10.615 15.6022 9.39508 14.8798 8.65026 13.7657L8.65055 13.7655L8.64675 13.7611C8.49635 13.5846 8.30152 13.5046 8.11697 13.5153C7.86743 13.5266 7.70253 13.6624 7.63144 13.8411C7.5613 14.0174 7.58375 14.2319 7.69752 14.4027ZM12 3.95C7.5603 3.95 3.95 7.56031 3.95 12C3.95 16.4397 7.5603 20.05 12 20.05C16.4397 20.05 20.05 16.4397 20.05 12C20.05 7.56031 16.4397 3.95 12 3.95ZM12 5.09348C15.8205 5.09348 18.9065 8.17948 18.9065 12C18.9065 15.8206 15.8205 18.9065 12 18.9065C8.17946 18.9065 5.09348 15.8206 5.09348 12C5.09348 8.17948 8.17946 5.09348 12 5.09348ZM9.04348 8.64565C8.43955 8.64565 7.95 9.13522 7.95 9.73913C7.95 10.343 8.43955 10.8326 9.04348 10.8326C9.64739 10.8326 10.137 10.343 10.137 9.73913C10.137 9.13522 9.64739 8.64565 9.04348 8.64565ZM14.9565 8.64565C14.3526 8.64565 13.863 9.13522 13.863 9.73913C13.863 10.343 14.3526 10.8326 14.9565 10.8326C15.5604 10.8326 16.05 10.343 16.05 9.73913C16.05 9.13522 15.5604 8.64565 14.9565 8.64565Z" fill="#626262" stroke="#626262" stroke-width="0.1"/>
</svg>
