<svg width="27" height="26" viewBox="0 0 27 26" fill="none" xmlns="http://www.w3.org/2000/svg">
<path opacity="0.5" d="M19.75 9.24634C22.4687 9.2606 23.9411 9.37419 24.9016 10.2791C26 11.314 26 12.9795 26 16.3105V17.4883C26 20.8193 26 22.4849 24.9016 23.5197C23.8032 24.5545 22.0355 24.5545 18.5 24.5545H8.5C4.96446 24.5545 3.1967 24.5545 2.09835 23.5197C1 22.4849 1 20.8193 1 17.4883V16.3105C1 12.9795 1 11.314 2.09835 10.2791C3.05882 9.37419 4.53121 9.2606 7.25 9.24634" stroke="#1C274C" stroke-width="1.35" stroke-linecap="round"/>
<path d="M13.5 16.3102V1M13.5 1L17.25 5.12199M13.5 1L9.75 5.12199" stroke="#1C274C" stroke-width="1.35" stroke-linecap="round" stroke-linejoin="round"/>
</svg>
