<svg width="22" height="22" viewBox="0 0 22 22" xmlns="http://www.w3.org/2000/svg">
<path d="M13.7501 20.855H8.25009C7.04009 20.855 6.03176 20.7359 5.17926 20.4792C4.86759 20.3875 4.66593 20.085 4.68426 19.7642C4.91343 17.0233 7.69093 14.8691 11.0001 14.8691C14.3093 14.8691 17.0776 17.0142 17.3159 19.7642C17.3434 20.0942 17.1418 20.3875 16.8209 20.4792C15.9684 20.7359 14.9601 20.855 13.7501 20.855ZM6.16009 19.3058C6.76509 19.425 7.45259 19.48 8.25009 19.48H13.7501C14.5476 19.48 15.2351 19.425 15.8401 19.3058C15.3543 17.5458 13.3468 16.2441 11.0001 16.2441C8.65343 16.2441 6.64593 17.5458 6.16009 19.3058Z" fill="currentColor"/>
<path fill-rule="evenodd" clip-rule="evenodd" d="M2.83694 2.83743C4.06021 1.61417 5.89069 1.14648 8.25016 1.14648H13.7502C16.1096 1.14648 17.9401 1.61417 19.1634 2.83743C20.3866 4.06069 20.8543 5.89118 20.8543 8.25065V13.7507C20.8543 15.5387 20.5871 17.0178 19.9286 18.1624C19.2537 19.3353 18.2093 20.086 16.8158 20.4805C16.6183 20.5364 16.4061 20.5011 16.2373 20.3844C16.0685 20.2676 15.9607 20.0815 15.9434 19.8769C15.7811 17.9589 13.7436 16.244 11.0002 16.244C8.25675 16.244 6.21917 17.9589 6.05688 19.8769C6.03958 20.0815 5.93179 20.2676 5.763 20.3844C5.59421 20.5011 5.38206 20.5364 5.18457 20.4805C3.79106 20.086 2.74662 19.3353 2.07176 18.1624C1.41318 17.0178 1.146 15.5387 1.146 13.7507V8.25065C1.146 5.89118 1.61368 4.06069 2.83694 2.83743ZM3.80922 3.8097C2.96998 4.64894 2.521 6.02679 2.521 8.25065V13.7507C2.521 15.4276 2.77631 16.6298 3.26356 17.4766C3.62395 18.103 4.1329 18.5726 4.8448 18.8982C5.52719 16.5087 8.12024 14.869 11.0002 14.869C13.8801 14.869 16.4731 16.5087 17.1555 18.8982C17.8674 18.5726 18.3764 18.103 18.7368 17.4766C19.224 16.6298 19.4793 15.4276 19.4793 13.7507V8.25065C19.4793 6.02679 19.0303 4.64894 18.1911 3.8097C17.3519 2.97047 15.974 2.52148 13.7502 2.52148H8.25016C6.0263 2.52148 4.64845 2.97047 3.80922 3.8097ZM11.0002 7.10482C9.56486 7.10482 8.40599 8.26369 8.40599 9.699C8.40599 11.1368 9.56734 12.3023 11.0002 12.3023C12.433 12.3023 13.5943 11.1368 13.5943 9.699C13.5943 8.26369 12.4355 7.10482 11.0002 7.10482ZM7.03099 9.699C7.03099 7.50431 8.80546 5.72982 11.0002 5.72982C13.1949 5.72982 14.9693 7.50431 14.9693 9.699C14.9693 11.8912 13.1973 13.6773 11.0002 13.6773C8.80298 13.6773 7.03099 11.8912 7.03099 9.699Z" fill="currentColor"/>
</svg>
