<svg width="30" height="30" viewBox="0 0 30 30" fill="none" xmlns="http://www.w3.org/2000/svg">
<g clip-path="url(#clip0_364_417)">
<path d="M17.8716 7.58811C19.8056 9.52218 21.0066 12.1584 21.0066 15C21.0066 17.8716 19.8056 20.4497 17.8716 22.3828C15.9375 24.3159 13.3303 25.4887 10.4887 25.4887C7.61719 25.4887 5.03906 24.3169 3.10594 22.3828C1.17281 20.4487 0 17.8706 0 15C0 12.1584 1.17187 9.52124 3.10594 7.58811C5.04 5.65499 7.61812 4.48218 10.4887 4.48218C13.3303 4.48218 15.9384 5.65405 17.8716 7.58811ZM11.6897 20.9184H11.7487C11.8369 20.9184 11.925 20.9475 11.9831 21.0356C12.0422 21.0947 12.1003 21.1528 12.2175 21.1528C12.2466 21.1528 12.2766 21.1237 12.2766 21.0647C12.2766 20.9475 12.3056 20.8303 12.3056 20.8012C12.3347 20.7131 12.3937 20.7131 12.4519 20.7131C12.4809 20.7131 12.4809 20.7131 12.4809 20.6541L12.4219 20.595C12.3928 20.595 12.3628 20.6241 12.3628 20.6541C12.3337 20.6831 12.3038 20.7131 12.2747 20.6541L12.0984 20.7712L11.8931 20.7122L11.5416 20.1844L11.6587 19.4222C11.6587 19.3931 11.6297 19.3341 11.5416 19.305C11.4534 19.2759 11.4534 19.2169 11.4825 19.1878C11.3653 19.1287 11.2191 19.0706 11.0428 19.0706C11.0137 19.0706 10.9256 19.0997 10.7794 19.1297C10.6331 19.1297 10.545 19.1297 10.545 19.0706C10.545 18.9825 10.6331 18.8072 10.6912 18.6019C10.7203 18.5137 10.7503 18.3675 10.7794 18.3084C10.7794 18.2494 10.8084 18.1912 10.8084 18.1912L10.9547 17.8397L10.9256 17.7806L10.7203 17.7516C10.6613 17.7516 10.4569 17.8687 10.3097 17.9859C10.1634 18.1622 10.0462 18.3084 10.0462 18.4256L9.46031 18.5428C9.34312 18.5428 9.22594 18.5137 9.13781 18.3966C9.10875 18.2503 9.02062 18.0741 8.90344 17.8987C8.78625 17.7525 8.75719 17.6053 8.75719 17.4591C8.75719 17.2828 8.78625 17.0484 8.84531 16.9022C8.90438 16.7259 8.90437 16.5216 8.78625 16.3453C8.81531 16.3453 8.90344 16.2862 8.84531 16.2281L8.99156 16.0519L9.02062 16.0228L9.04969 16.0519C9.16687 15.9637 9.37219 15.9347 9.5475 15.9637C9.75281 15.9928 9.87 15.9047 9.92812 15.7584L10.1334 15.9637C10.1925 15.9928 10.3097 15.7875 10.3097 15.7294L10.2216 15.6703L10.7494 15.5531L10.7784 15.6122H11.0128L11.3062 15.7884C11.3353 15.7884 11.3653 15.7594 11.3944 15.7294C11.4534 15.6703 11.4825 15.6703 11.5116 15.7003L11.775 15.9937C11.7459 16.0528 11.7459 16.1109 11.7459 16.17C11.775 16.1991 11.805 16.2291 11.805 16.2581C11.805 16.3753 12.0684 16.9031 12.2156 16.9031C12.3037 16.9031 12.3328 16.8441 12.3037 16.7269V16.4925C12.3037 16.3462 12.2747 16.17 12.2156 15.9947C12.1275 15.8484 12.0694 15.6431 12.0103 15.4669V15.4078C12.0103 15.3197 12.0694 15.2316 12.1866 15.1734C12.2747 15.1144 12.3328 15.0562 12.3328 15.0562C12.4209 14.9972 12.5091 14.91 12.6262 14.8509C12.7144 14.7919 12.8025 14.6456 12.8606 14.5575L12.9487 14.3522V14.235H13.0369C13.0369 14.235 13.0959 14.2059 13.0959 14.1469C13.0959 14.1469 13.0669 14.1178 13.0369 14.1178C13.0078 14.0887 12.9197 14.0297 12.8606 13.9716L12.9197 13.9125C13.0078 13.8244 13.0369 13.6191 12.9787 13.5319L13.2131 13.4147C13.1541 13.5319 13.3303 13.5609 13.3894 13.5319L13.5066 13.2684C13.4475 13.1222 13.4184 13.2684 13.5066 13.0922C13.5947 13.0631 13.6828 13.0331 13.77 12.975C13.8581 12.9459 13.9162 12.9159 14.0044 12.9159C14.0334 12.9159 14.0634 12.945 14.0634 12.945C14.1225 12.945 14.1516 12.9159 14.1516 12.9159C14.1516 12.8278 14.1225 12.7697 14.0925 12.7697L14.2387 12.4472C14.3559 12.4472 14.4731 12.3881 14.5322 12.2709L14.7666 12.2419C14.8256 12.2419 14.8547 12.2128 14.8547 12.1537V12.0947L15.2944 11.9775L15.3534 11.8312L15.2362 11.655C15.2362 11.655 15.2653 11.6259 15.2653 11.5959C15.2653 11.5659 15.2362 11.5369 15.2062 11.5078C15.1772 11.5078 15.1472 11.4787 15.1181 11.4787C15.0891 11.4497 15.0591 11.4197 15.03 11.4197H15.2644C15.2644 11.4197 15.3816 11.3906 15.3816 11.3025C15.3816 11.1853 15.3225 11.1562 15.2053 11.1562C14.8828 11.1562 14.385 11.2734 14.2087 11.625L14.0325 11.7131L14.2669 11.4787L14.2959 11.4197C14.2959 11.3906 14.2669 11.3606 14.2078 11.3316H14.1197C14.4131 11.3316 14.5884 11.2434 14.7056 11.1553C14.7937 11.0672 14.8819 10.9791 15.0862 10.9209C15.2916 10.95 15.4969 10.95 15.7012 10.95C15.8775 10.9209 16.0528 10.9209 16.2581 10.9209C16.3462 10.8619 16.4634 10.7447 16.5216 10.6275L16.815 10.5984C16.8741 10.6575 17.0784 10.5103 17.0784 10.4222C17.0784 10.3341 17.0494 10.305 16.9612 10.2759C16.8731 10.2469 16.785 10.1878 16.785 10.0997V10.0116C16.8141 9.98249 16.785 9.95249 16.7559 9.95249C16.6387 9.95249 16.3453 10.0987 16.2581 10.1578C16.1991 10.2169 16.17 10.1287 16.17 10.0697L16.1991 10.0987L16.3162 10.0397L16.6097 9.92249L16.6387 9.89343C16.6387 9.77624 16.4625 9.74718 16.4044 9.74718C16.3753 9.74718 16.3162 9.77624 16.2581 9.80624C16.1991 9.80624 16.1409 9.80624 16.1409 9.74718L16.17 9.68811C15.9647 9.54186 15.7894 9.24843 15.7894 9.1603V9.04311C15.8184 9.01405 15.7894 9.01405 15.7303 9.01405H15.6422C15.6131 9.04311 15.5831 9.01405 15.5831 8.95499C15.5831 8.89593 15.4659 8.57436 15.3197 8.57436L15.2316 8.66249C15.2316 8.72155 15.2025 8.75061 15.1434 8.77968C15.0844 8.80874 15.0553 8.83874 15.0553 8.8678H15.0262L14.7328 9.04405C14.7328 8.98499 14.7037 8.98499 14.6737 9.01499C14.6447 9.01499 14.6447 9.04405 14.5856 9.04405H14.5266C14.6728 9.04405 14.6437 8.83874 14.5266 8.83874L14.2922 8.8678C14.2331 8.8678 14.2331 8.8678 14.2922 8.80874C14.3212 8.74968 14.3803 8.69155 14.3212 8.63249C14.3212 8.57343 14.2922 8.57343 14.2622 8.60343L14.3212 8.5153C14.3803 8.48624 14.2922 8.36905 14.2331 8.30999L13.9697 8.28093L13.7934 8.10468C13.7644 8.13374 13.7344 8.10468 13.6762 8.07562C13.6472 8.04655 13.5881 7.98749 13.5591 7.98749L13.3537 8.07562L12.8259 7.95843C12.7669 7.95843 12.6797 7.98749 12.6797 8.07562C12.6797 8.10468 12.6797 8.13468 12.7087 8.13468C12.7678 8.16374 12.7678 8.19374 12.7678 8.2228C12.7678 8.25186 12.7969 8.36905 12.8269 8.51624C12.8269 8.66249 12.8269 8.72155 12.7387 8.69249L12.6216 8.86874C12.6216 8.9278 12.6806 8.95686 12.7097 8.95686C12.7978 9.01593 12.8859 9.10311 12.9441 9.19124C13.0031 9.2503 13.0031 9.33749 12.9731 9.42561L12.4162 9.8653V9.89436C12.4162 9.98249 12.4162 10.0406 12.4453 10.0997C12.5044 10.1587 12.5044 10.2459 12.5625 10.3341C12.7087 10.3931 12.7087 10.4512 12.5916 10.5103C12.5325 10.5103 12.4744 10.5394 12.4153 10.5694L12.3562 10.6284C12.3562 10.6575 12.3272 10.6575 12.2972 10.6575H12.1509C12.1509 10.6575 12.1509 10.6284 12.18 10.6284C12.18 10.6284 12.2091 10.5994 12.2091 10.5694L11.9456 10.4231L11.8284 10.2178C11.8575 10.1297 11.8575 10.0716 11.8284 10.0416C11.7994 10.0116 11.7994 9.95343 11.7994 9.8953C11.7994 9.83718 11.7403 9.68999 11.6231 9.68999C11.4769 9.68999 11.3597 9.71905 11.2125 9.74905C11.2716 9.71999 11.1534 9.5728 11.1244 9.5728C10.9781 9.5728 10.8019 9.51374 10.5966 9.39655C10.3912 9.27936 10.245 9.2203 10.1278 9.2203C10.0397 9.2203 9.86438 9.24936 9.74719 9.30843C9.80625 9.27936 9.80625 9.24936 9.83531 9.16218L9.65906 8.86874L9.63 8.83968C9.57094 8.83968 9.51281 8.86874 9.45375 8.9278C9.39469 8.95686 9.3075 8.9278 9.3075 8.81061C9.3075 8.78155 9.33656 8.75155 9.33656 8.75155C9.36562 8.72249 9.36562 8.72249 9.33656 8.69249C9.33656 8.60437 9.36562 8.51624 9.45375 8.42905C9.51281 8.36999 9.54187 8.2528 9.57094 8.16561C9.63 8.13655 9.63 8.10655 9.63 8.07749C9.63 8.01843 9.65906 8.01843 9.68906 8.01843C9.74812 8.01843 9.83531 7.98936 9.89437 7.95936C9.95344 7.9003 10.0116 7.87124 10.0997 7.87124L10.1287 7.78311C10.1287 7.75405 10.0406 7.72405 9.86531 7.69499C9.66 7.66593 9.57187 7.66593 9.57187 7.60687L9.60094 7.5778C9.77719 7.63687 9.92344 7.66593 10.0116 7.66593C10.1878 7.69499 10.275 7.63686 10.4512 7.54874C10.5103 7.51968 10.6856 7.46061 10.8319 7.37249C10.8319 7.34343 10.8028 7.34343 10.7147 7.31343H10.8319L11.0372 7.19624V7.07905L10.9781 7.01999L11.2716 6.96093C11.2425 6.90187 11.3006 6.8728 11.3306 6.8728C11.3897 6.8728 11.4478 6.90187 11.5069 6.96093C11.5659 7.01999 11.595 7.01999 11.6241 7.01999L11.8875 6.93186C11.8875 6.9028 11.9166 6.9028 11.9756 6.9028C12.0347 6.87374 12.0637 6.84374 12.0347 6.81468L11.8294 6.60937C11.7703 6.60937 11.7412 6.52124 11.8003 6.52124C11.8884 6.52124 11.9466 6.49218 11.8884 6.40405C11.8294 6.37499 11.7422 6.31593 11.6541 6.28686C11.5659 6.2278 11.4778 6.19874 11.3906 6.19874C11.3316 6.19874 11.2144 6.2278 11.2144 6.31593C11.2144 6.37499 11.2434 6.37499 11.2734 6.37499C11.3325 6.37499 11.3616 6.40405 11.3616 6.43405C11.4206 6.46311 11.3906 6.49312 11.3325 6.49312H11.2734C11.2144 6.49312 11.1272 6.55218 11.0681 6.66936C11.0091 6.75749 10.9219 6.84562 10.8337 6.87468C10.8047 6.87468 10.8047 6.87468 10.8047 6.84561C10.8337 6.81655 10.8047 6.81655 10.8047 6.78655C10.7756 6.75749 10.7456 6.72749 10.7166 6.72749C10.6575 6.69843 10.5994 6.69843 10.5994 6.66843C10.5994 6.60936 10.6584 6.5803 10.7166 6.49218C10.7456 6.40405 10.6575 6.37499 10.5112 6.37499C10.4522 6.37499 10.3941 6.40405 10.365 6.46311C10.3359 6.49218 10.3059 6.55124 10.2769 6.60937L9.98344 6.28686L9.74906 6.2578C9.74906 6.19874 9.77812 6.14061 9.80812 6.08155C9.86719 5.96437 9.63187 5.81811 9.54469 5.72999C9.51562 5.72999 9.45656 5.70093 9.39844 5.70093C9.36937 5.70093 9.19312 5.84718 9.07594 5.90624C9.01687 5.9353 8.98781 5.9653 8.98781 5.99437C8.98781 6.05343 9.04687 6.05343 9.13406 6.05343H9.105C9.04594 6.05343 9.01687 6.08249 9.01687 6.17061C9.01687 6.19968 9.25125 6.25874 9.31031 6.25874C9.36937 6.25874 9.4275 6.25874 9.4275 6.2878C9.45656 6.31686 9.45656 6.31686 9.51562 6.31686L9.60375 6.2878V6.34686L9.57469 6.40593L9.60375 6.49405L9.31031 6.6403L9.28125 6.66936C9.25219 6.66936 9.22219 6.66936 9.22219 6.69843C9.22219 6.72749 9.22219 6.78655 9.28125 6.84468C9.31031 6.90374 9.28125 6.9328 9.135 6.9328L9.04687 6.87374C9.04687 6.81468 8.98781 6.75655 8.84156 6.69749C8.57812 6.60936 8.10937 6.5803 7.69875 6.5803C7.49344 6.55124 7.34719 6.55124 7.23 6.55124L6.79031 6.69749L6.9075 6.93186C6.87844 6.93186 6.81937 6.96093 6.81937 6.96093C6.70219 6.8728 6.52594 6.69749 6.46781 6.69749L6.2625 6.66843C5.6175 6.69749 4.85625 7.31343 4.12406 8.04561C3.39188 8.7778 2.74687 9.59811 2.42437 10.0969H2.48344C2.5425 10.0969 2.57156 10.0678 2.65969 10.0378C2.71875 10.0087 2.74781 10.0669 2.74781 10.155C2.74781 10.2141 2.74781 10.2431 2.71875 10.3012C2.68969 10.3594 2.74781 10.3894 2.865 10.3894C2.89406 10.3894 2.92406 10.3603 2.92406 10.3012C2.95312 10.2422 2.95312 10.2422 2.95312 10.3012L3.01219 10.5066V10.5356C3.01219 10.5647 2.98312 10.5947 2.95312 10.6237C2.865 10.6528 2.95312 10.7409 3.04125 10.7409H3.1875L3.24656 10.7119L3.27562 10.6828C3.27562 10.8 3.39281 10.8291 3.48094 10.8291H3.51C3.51 10.8291 3.48094 10.8881 3.45094 10.9172C3.39187 10.9172 3.39187 10.9462 3.45094 10.9762L3.74437 11.0353V11.0644L3.92062 11.445C3.92062 11.5041 3.86156 11.6503 3.80344 11.6503C3.74531 11.6503 3.74437 11.6212 3.74437 11.5912C3.77344 11.5912 3.77344 11.5622 3.77344 11.5031C3.77344 11.4741 3.74437 11.4441 3.74437 11.415C3.71531 11.3859 3.65625 11.3859 3.53906 11.3859C3.51 11.3859 3.42187 11.3859 3.48 11.4741L3.62625 11.7966L3.68531 11.8556C3.50906 11.8556 3.48 12.4416 3.48 12.6178L3.50906 12.8522L3.53812 12.9403V12.9694L3.50906 13.2328L3.86062 13.8187H3.94875C3.94875 13.8478 3.94875 13.8778 3.91969 13.9069C3.89062 13.9359 3.89062 13.9659 3.89062 14.0241L4.00781 14.1122C4.00781 14.2884 4.06687 14.3175 4.21312 14.4637C4.21312 14.5519 4.33031 14.6691 4.50656 14.7862C4.71187 14.8744 4.82906 14.9325 4.88719 14.9625C5.00437 15.3731 5.20969 15.8119 5.50219 16.0762L5.53125 16.2525L5.47219 16.3116C5.41312 16.3116 5.41313 16.3406 5.44312 16.3706L5.6775 16.4878C5.73656 16.4287 5.76562 16.4878 5.82375 16.5759C5.88281 16.6931 5.91187 16.7522 5.94094 16.7812V16.8694L6.08719 17.0747L6.14625 17.1337L6.20531 16.9875C6.14625 16.8412 5.94187 16.5187 5.76562 16.2553C5.6775 16.1091 5.58937 15.9619 5.50219 15.8447C5.44312 15.7566 5.41406 15.6984 5.41406 15.6684C5.41406 15.6384 5.385 15.3169 5.355 15.2578C5.38406 15.2869 5.47219 15.3169 5.53125 15.3459C5.61937 15.375 5.7075 15.405 5.76562 15.4341C5.79469 15.6684 5.88281 15.8447 6.02906 15.9909C6.14625 16.1081 6.26344 16.2544 6.35156 16.4306C6.2925 16.4897 6.41062 16.4897 6.46875 16.4897C6.49781 16.5487 6.49781 16.5778 6.49781 16.695C6.76125 16.9584 7.28906 17.5744 7.28906 17.8378V17.8669L7.23 18.0431C7.34719 18.3066 7.61062 18.5119 7.875 18.6H7.93406C8.08031 18.6881 8.28562 18.7762 8.49094 18.8634C8.66719 18.9806 8.8425 19.0687 9.01875 19.1269L9.31219 18.9506C9.45844 18.9797 9.63469 19.1269 9.84 19.3022C10.0453 19.4775 10.3087 19.6828 10.6603 19.7419C10.7775 19.6537 10.8366 19.6828 10.8366 19.8009V19.86L11.1591 20.2406L11.2181 20.4169C11.3944 20.5341 11.5987 20.7103 11.6869 20.9147L11.6897 20.9184ZM7.91062 6.18186L7.88156 6.1228C7.8225 6.09374 7.67625 6.03468 7.61812 6.03468C7.58906 6.03468 7.53 6.06374 7.41281 6.09374C7.2075 6.21093 6.885 6.29905 6.65062 6.41624C6.53344 6.4753 6.44531 6.50437 6.38719 6.50437C6.50437 6.50437 6.62156 6.4753 6.73875 6.41624C6.82687 6.35718 6.94406 6.32811 7.06125 6.32811L7.14937 6.38718C7.20844 6.41624 7.2375 6.41624 7.29562 6.41624C7.32469 6.41624 7.35469 6.41624 7.41281 6.4753C7.47187 6.44624 7.53 6.44624 7.61812 6.50437L7.70625 6.4453V6.32811L7.67719 6.26905L7.73625 6.29811C7.79531 6.29811 7.85344 6.26905 7.9125 6.18093L7.91062 6.18186ZM12.3337 23.3494L12.3628 23.5256C12.3628 23.5847 12.3337 23.5847 12.3037 23.6428C12.2156 23.7019 12.0694 23.7891 12.0694 23.9653C12.0694 23.9944 12.0984 24.0244 12.0984 24.0825C12.1275 24.1116 12.1575 24.1416 12.1575 24.1997C12.1575 24.2287 12.1284 24.2587 12.1284 24.2878C14.1497 23.9362 15.9666 22.9697 17.3728 21.4753H17.3437C17.2847 21.5044 17.1975 21.5044 17.1675 21.4753L17.0794 21.5044L16.9331 21.4753H16.845C16.7859 21.3872 16.7278 21.3291 16.6397 21.27L16.6106 21.2409C16.5816 21.2409 16.5516 21.2409 16.5516 21.3C16.5516 21.0366 16.3463 20.8022 16.1119 20.8022C16.1119 20.8312 16.0828 20.8312 16.0828 20.8312H16.0237L15.9647 20.8022H16.0528L16.1119 20.6259L15.9656 20.5378L15.9366 20.5669C15.8194 20.5378 15.7312 20.4787 15.6731 20.3616L15.585 20.3325V20.3616L15.5259 20.3906C15.4087 20.4197 15.3206 20.4497 15.2625 20.4787C15.1453 20.4497 15.0572 20.3906 15.0281 20.3616L14.6766 20.3906C14.6766 20.2734 14.6175 20.1272 14.4712 20.1272C14.295 20.1272 14.0606 20.1272 14.0025 20.3325C14.0025 20.3916 14.0316 20.4787 14.0616 20.5087V20.6259L14.0325 20.685L14.0034 20.7141H13.9744L13.8862 20.5087L13.9744 20.3916C13.9453 20.3325 13.9453 20.3034 13.9453 20.2453C13.9453 20.1872 13.9162 20.1572 13.9162 20.0991L13.8872 20.07H13.7991L13.6228 20.1872H13.5056L13.4766 20.2462C13.4475 20.2462 13.4475 20.2753 13.4475 20.3053C13.4475 20.3053 13.4184 20.3053 13.4184 20.3344L13.3894 20.3053H13.2722C13.2131 20.3644 13.1841 20.4516 13.155 20.5397L13.2141 20.5987L13.0678 20.6578L13.0387 20.7169L12.9506 20.7759V20.805H12.9216V20.9512H12.8925C12.8634 20.8341 12.7753 20.7169 12.5991 20.6287H12.5109V20.6878C12.5109 20.7469 12.57 20.7759 12.6281 20.805C12.6872 20.8641 12.7162 20.9222 12.7453 20.9512C12.7162 20.9222 12.6572 20.9512 12.6572 20.9803V21.0394L12.8334 21.3028V21.8006L12.8925 21.9178C12.8334 22.0641 12.7753 22.2112 12.6872 22.2984V22.2694L12.6281 22.2984L12.5991 22.3275L12.57 22.4447L12.5991 22.4737V22.5028L12.54 22.4437L12.5109 22.62L12.3647 22.6791C12.3056 22.7081 12.2766 22.7381 12.3056 22.8253C12.3056 22.8844 12.2766 22.9134 12.2175 22.9425L12.2466 23.0016L12.1875 23.0897C12.1875 23.1187 12.1875 23.1487 12.1584 23.1487V23.2659L12.1875 23.4712L12.2466 23.5003L12.3056 23.4712L12.3337 23.3494Z" fill="#838383"/>
</g>
<defs>
<clipPath id="clip0_364_417">
<rect width="30" height="30" fill="white"/>
</clipPath>
</defs>
</svg>
