<svg width="31" height="31" viewBox="0 0 31 31" fill="none" xmlns="http://www.w3.org/2000/svg">
<path d="M15.5 15.5C13.3599 15.5 11.625 13.7651 11.625 11.625C11.625 9.4849 13.3599 7.75 15.5 7.75C17.6401 7.75 19.375 9.4849 19.375 11.625C19.375 13.7651 17.6401 15.5 15.5 15.5Z" stroke="#0D0D0D" stroke-width="1.9375"/>
<path d="M15.5 28.4167C8.36628 28.4167 2.58329 22.6337 2.58329 15.5C2.58329 8.36632 8.36628 2.58333 15.5 2.58333C22.6336 2.58333 28.4166 8.36632 28.4166 15.5C28.4166 22.6337 22.6336 28.4167 15.5 28.4167Z" stroke="#0D0D0D" stroke-width="1.9375"/>
<path d="M7.78985 25.8333C7.99535 22.0985 9.13887 19.375 15.5001 19.375C21.8611 19.375 23.0046 22.0985 23.2102 25.8333" stroke="#0D0D0D" stroke-width="1.9375" stroke-linecap="round"/>
</svg>
