<svg width="35" height="34" viewBox="0 0 35 34" fill="none" xmlns="http://www.w3.org/2000/svg">
<path d="M16.649 18.75C20.4459 18.75 23.524 15.672 23.524 11.875C23.524 8.07805 20.4459 5 16.649 5C12.8521 5 9.77405 8.07805 9.77405 11.875C9.77405 15.672 12.8521 18.75 16.649 18.75Z" stroke="black" stroke-width="2.0625" stroke-linecap="round" stroke-linejoin="round"/>
<path d="M4 32.5C4.78427 29.7956 6.40343 27.4085 8.62602 25.6798C10.8486 23.9512 13.5609 22.9694 16.375 22.875" stroke="black" stroke-width="2.0625" stroke-linecap="round" stroke-linejoin="round"/>
<path d="M25.1469 30.8774C27.7591 30.8774 29.8769 28.7597 29.8769 26.1474C29.8769 23.5351 27.7591 21.4174 25.1469 21.4174C22.5345 21.4174 20.4169 23.5351 20.4169 26.1474C20.4169 28.7597 22.5345 30.8774 25.1469 30.8774Z" stroke="black" stroke-width="2.0625" stroke-linecap="round" stroke-linejoin="round"/>
<path d="M31.4184 32.4176L28.4895 29.4889" stroke="black" stroke-width="2.0625" stroke-linecap="round" stroke-linejoin="round"/>
</svg>
