<svg width="34" height="34" viewBox="0 0 34 34" fill="none" xmlns="http://www.w3.org/2000/svg">
<path d="M25.3088 30.2175H8.6275L7.565 29.155V15.0025H4.56875L3.54875 14.195L2.125 8.5L2.82625 7.225L11.8787 4.25L13.2388 4.93C13.359 5.25449 13.5084 5.56743 13.685 5.865C13.8359 6.08387 14.008 6.29 14.195 6.48125C14.552 6.84037 14.9791 7.123 15.4487 7.31C15.929 7.51517 16.4459 7.62095 16.9681 7.62095C17.4904 7.62095 18.0072 7.51517 18.4875 7.31C18.9577 7.12249 19.3845 6.84042 19.7412 6.48125C19.9325 6.27937 20.1089 6.06687 20.2725 5.84375L20.5912 5.2275C20.6327 5.1306 20.6682 5.03125 20.6975 4.93L22.0575 4.25L31.11 7.2675L31.875 8.5L30.4725 14.1525L29.4313 14.96H26.3713V29.1125L25.3088 30.2175ZM9.69 28.0925H24.2463V13.94L25.3088 12.8775H28.5387L29.5163 8.98875L22.2913 6.56625C22.2224 6.72368 22.1369 6.87328 22.0362 7.0125C21.8025 7.35462 21.5411 7.6755 21.25 7.96875C20.6989 8.52615 20.0412 8.96698 19.3162 9.265C18.5699 9.5806 17.7678 9.74322 16.9575 9.74322C16.1472 9.74322 15.3451 9.5806 14.5988 9.265C13.9084 8.94962 13.2818 8.51026 12.75 7.96875C12.4551 7.69198 12.1979 7.37762 11.985 7.03375L11.7088 6.56625L4.42 8.98875L5.3975 12.8775H8.6275L9.69 13.94V28.0925Z" fill="black"/>
</svg>
