<svg width="34" height="34" viewBox="0 0 34 34" fill="none" xmlns="http://www.w3.org/2000/svg">
<path d="M29.3958 6.37499C29.3958 8.331 27.8102 9.91666 25.8542 9.91666C23.8982 9.91666 22.3125 8.331 22.3125 6.37499C22.3125 4.41899 23.8982 2.83333 25.8542 2.83333C27.8102 2.83333 29.3958 4.41899 29.3958 6.37499Z" fill="#151515"/>
<path fill-rule="evenodd" clip-rule="evenodd" d="M19.0352 9.43686L19.043 9.44009C20.7209 10.1308 22.1158 11.3971 22.9343 13.0344C23.824 14.8137 25.6424 15.9375 27.6316 15.9375H29.3959C29.9827 15.9375 30.4584 16.4132 30.4584 17C30.4584 17.5868 29.9827 18.0625 29.3959 18.0625H27.6316C24.8375 18.0625 22.2832 16.4839 21.0337 13.9847C20.4516 12.8207 19.4524 11.9066 18.2341 11.4051C16.3023 10.6099 15.6893 10.3855 14.5224 10.4704C12.9037 10.5881 11.4157 11.4058 7.87131 13.4197L5.83743 14.5752C5.32723 14.8652 4.67862 14.6866 4.38875 14.1764C4.09885 13.6662 4.27745 13.0176 4.78765 12.7277L6.82153 11.5721C6.90367 11.5254 6.98497 11.4792 7.06547 11.4334C10.2865 9.60263 12.2129 8.50773 14.3684 8.35099C16.0927 8.2256 17.136 8.65515 19.0352 9.43686ZM18.8482 14.8688C19.243 15.303 19.211 15.975 18.7768 16.3697C18.5224 16.6011 18.2687 16.8269 18.0205 17.0479C17.6228 17.4019 17.2393 17.7433 16.89 18.0741C16.613 18.3362 16.3869 18.5647 16.222 18.7547C16.0888 18.9081 16.0351 18.9924 16.0193 19.0173C16.0129 19.0272 16.0126 19.0277 16.0157 19.0193C15.8494 19.4678 15.8717 19.9646 16.0774 20.3966C16.1374 20.5227 16.2612 20.6952 16.592 20.9897C16.9288 21.2895 17.3967 21.6448 18.0872 22.1681C18.1227 22.195 18.1579 22.2215 18.1924 22.2477C18.9873 22.8495 19.537 23.2656 19.9555 23.7923C20.42 24.3773 20.7562 25.0535 20.9418 25.7769C21.1089 26.4286 21.1087 27.118 21.1084 28.115C21.1084 28.1584 21.1084 28.2024 21.1084 28.2469V31.1667C21.1084 31.7534 20.6327 32.2292 20.0459 32.2292C19.4591 32.2292 18.9834 31.7534 18.9834 31.1667V28.2469C18.9834 27.0674 18.9756 26.6642 18.8834 26.3049C18.772 25.8709 18.5704 25.4651 18.2916 25.1142C18.061 24.824 17.7442 24.5742 16.8041 23.8619L16.7698 23.836C16.1221 23.3452 15.5863 22.9394 15.1792 22.577C14.7589 22.203 14.3958 21.8076 14.159 21.3106C13.7063 20.3603 13.6574 19.2674 14.0234 18.2804C14.1543 17.9273 14.4065 17.6045 14.6169 17.3621C14.8487 17.0949 15.1326 16.8114 15.4292 16.5308C15.7964 16.1831 16.2298 15.797 16.6493 15.4232C16.8918 15.2072 17.1297 14.9953 17.3474 14.7974C17.7816 14.4027 18.4535 14.4346 18.8482 14.8688ZM13.0761 23.267C13.5269 23.6427 13.5878 24.3127 13.2121 24.7635L11.7944 26.4649C11.7482 26.5203 11.7027 26.575 11.6577 26.6289C10.7481 27.722 10.0804 28.5246 9.14826 28.9612C8.21613 29.3977 7.1722 29.397 5.75012 29.396C5.67985 29.3958 5.60868 29.3958 5.53656 29.3958H3.89587C3.30908 29.3958 2.83337 28.9201 2.83337 28.3333C2.83337 27.7465 3.30908 27.2708 3.89587 27.2708H5.53656C7.26719 27.2708 7.79732 27.2473 8.24692 27.0368C8.69653 26.8261 9.05396 26.434 10.1619 25.1045L11.5796 23.4032C11.9553 22.9524 12.6253 22.8915 13.0761 23.267Z" fill="#151515"/>
</svg>
