<svg width="28" height="28" viewBox="0 0 28 28" fill="none" xmlns="http://www.w3.org/2000/svg">
<g clip-path="url(#clip0_556_213)">
<path d="M20.3 12.6C18.3704 12.6 16.8 14.1699 16.8 16.1C16.8 18.0297 18.3704 19.6 20.3 19.6C22.2297 19.6 23.8 18.0297 23.8 16.1C23.8 14.1699 22.2297 12.6 20.3 12.6ZM20.3 18.2C19.1404 18.2 18.2 17.2597 18.2 16.1C18.2 14.9404 19.1404 14 20.3 14C21.4597 14 22.4 14.9404 22.4 16.1C22.4 17.2597 21.4597 18.2 20.3 18.2Z" fill="black"/>
<path d="M15.4 0C8.45228 0 2.8 5.65228 2.8 12.6C2.8 14.9996 3.46686 17.2928 4.739 19.3014L0.820422 23.2199C0.291211 23.7486 0 24.4519 0 25.2C0 25.9481 0.291211 26.6509 0.81993 27.1801C1.34914 27.7088 2.05193 28 2.8 28C3.54807 28 4.25086 27.7088 4.78007 27.1801L8.69865 23.2615C10.7072 24.5331 13.0004 25.2001 15.4 25.2001C22.3477 25.2001 28 19.5478 28 12.6001C28 5.65234 22.3477 0 15.4 0ZM15.4 23.8C12.8124 23.8 10.4365 22.9138 8.54 21.4401L3.78979 26.1898C3.51679 26.4633 3.15842 26.6 2.8 26.6C2.44158 26.6 2.08321 26.4633 1.81021 26.1898C1.26328 25.6429 1.26328 24.7566 1.81021 24.2097L6.55993 19.46C5.08621 17.5635 4.2 15.1876 4.2 12.6C4.2 12.4684 4.21542 12.3405 4.21958 12.2099L15.7901 23.7804C15.6595 23.7846 15.5316 23.8 15.4 23.8ZM17.5751 23.5849L4.41514 10.4249C5.42779 5.28079 9.95914 1.4 15.4 1.4C21.5856 1.4 26.6 6.41435 26.6 12.6C26.6 18.0409 22.7192 22.5722 17.5751 23.5849Z" fill="black"/>
</g>
<defs>
<clipPath id="clip0_556_213">
<rect width="28" height="28" fill="white"/>
</clipPath>
</defs>
</svg>
