<svg width="23" height="21" viewBox="0 0 23 21" fill="none" xmlns="http://www.w3.org/2000/svg">
<path d="M16.1809 20.2011C16.1809 20.6423 16.5431 21 16.9899 21C17.4368 21 17.799 20.6423 17.799 20.2011H16.1809ZM3.46734 20.2011C3.46734 20.6423 3.82956 21 4.27638 21C4.72321 21 5.08543 20.6423 5.08543 20.2011H3.46734ZM5.08543 16.7772C5.08543 16.3359 4.72321 15.9783 4.27638 15.9783C3.82956 15.9783 3.46734 16.3359 3.46734 16.7772H5.08543ZM12.1357 20.2011C12.1357 20.6423 12.4979 21 12.9447 21C13.3915 21 13.7538 20.6423 13.7538 20.2011H12.1357ZM13.7538 16.7772C13.7538 16.3359 13.3915 15.9783 12.9447 15.9783C12.4979 15.9783 12.1357 16.3359 12.1357 16.7772H13.7538ZM1.61809 20.2011V18.4891H0V20.2011H1.61809ZM7.16583 13.0109H10.6332V11.413H7.16583V13.0109ZM16.1809 18.4891V20.2011H17.799V18.4891H16.1809ZM10.6332 13.0109C13.6971 13.0109 16.1809 15.4635 16.1809 18.4891H17.799C17.799 14.5811 14.5908 11.413 10.6332 11.413V13.0109ZM1.61809 18.4891C1.61809 15.4635 4.10189 13.0109 7.16583 13.0109V11.413C3.20825 11.413 0 14.5811 0 18.4891H1.61809ZM10.6332 13.0109H15.8342V11.413H10.6332V13.0109ZM21.3819 18.4891V20.2011H23V18.4891H21.3819ZM15.8342 13.0109C18.8981 13.0109 21.3819 15.4635 21.3819 18.4891H23C23 14.5811 19.7918 11.413 15.8342 11.413V13.0109ZM5.08543 20.2011V16.7772H3.46734V20.2011H5.08543ZM13.7538 20.2011V16.7772H12.1357V20.2011H13.7538ZM8.8995 9.13043C6.79304 9.13043 5.08543 7.44421 5.08543 5.36414H3.46734C3.46734 8.32673 5.89939 10.7283 8.8995 10.7283V9.13043ZM5.08543 5.36414C5.08543 3.28406 6.79304 1.59783 8.8995 1.59783V0C5.89939 0 3.46734 2.40161 3.46734 5.36414H5.08543ZM8.8995 1.59783C11.0059 1.59783 12.7136 3.28406 12.7136 5.36414H14.3317C14.3317 2.40161 11.8996 0 8.8995 0V1.59783ZM12.7136 5.36414C12.7136 6.66083 12.0506 7.80492 11.0376 8.48366L11.9459 9.80586C13.384 8.84248 14.3317 7.21273 14.3317 5.36414H12.7136ZM11.0376 8.48366C10.428 8.8919 9.69317 9.13043 8.8995 9.13043V10.7283C10.0272 10.7283 11.0769 10.388 11.9459 9.80586L11.0376 8.48366ZM14.1005 1.59783C16.2069 1.59783 17.9146 3.28406 17.9146 5.36414H19.5327C19.5327 2.40161 17.1006 0 14.1005 0V1.59783ZM17.9146 5.36414C17.9146 6.66083 17.2516 7.80492 16.2386 8.48366L17.1469 9.80586C18.585 8.84248 19.5327 7.21273 19.5327 5.36414H17.9146ZM16.2386 8.48366C15.629 8.8919 14.8942 9.13043 14.1005 9.13043V10.7283C15.2282 10.7283 16.2779 10.388 17.1469 9.80586L16.2386 8.48366ZM11.7171 2.42355C12.3702 1.90654 13.1977 1.59783 14.1005 1.59783V0C12.8167 0 11.6349 0.440795 10.7051 1.17684L11.7171 2.42355ZM14.1005 9.13043C13.3068 9.13043 12.572 8.8919 11.9624 8.48366L11.0541 9.80586C11.9231 10.388 12.9728 10.7283 14.1005 10.7283V9.13043Z" fill="black"/>
</svg>
