<svg width="143" height="41" viewBox="0 0 143 41" fill="none" xmlns="http://www.w3.org/2000/svg">
<rect y="3.28003" width="36.9" height="35.26" rx="9.84" fill="#1D69D8"/>
<path d="M60.8601 33.3281C54.5285 33.3281 49.3451 28.0462 49.3451 21.485C49.3451 14.9237 54.4628 9.7075 61.1225 9.7075C64.764 9.7075 67.9791 11.1838 70.0787 13.7427L67.5198 16.3016C66.1419 14.366 63.747 13.3162 61.1225 13.3162C56.3984 13.3162 53.2162 16.6624 53.2162 21.485C53.2162 26.3403 56.464 29.7194 60.7945 29.7194C64.8297 29.7194 67.4542 27.751 68.0447 24.0111H60.7289V20.5664H72.0799V21.0913C72.0799 29.2929 67.3557 33.3281 60.8601 33.3281ZM82.5602 33.3281C77.9673 33.3281 74.3258 29.6866 74.3258 25.0937C74.3258 20.5336 77.9345 16.9249 82.5602 16.9249C87.1859 16.9249 90.8274 20.5008 90.8274 25.0937C90.8274 29.7194 87.2187 33.3281 82.5602 33.3281ZM82.5602 29.8506C85.2503 29.8506 87.1203 27.8822 87.1203 25.0937C87.1203 22.3379 85.2175 20.4024 82.5602 20.4024C79.9029 20.4024 78.0329 22.3707 78.0329 25.0937C78.0329 27.8822 79.9029 29.8506 82.5602 29.8506ZM93.8284 33V9.37944H97.4371V33H93.8284ZM106.768 33L99.5833 17.253H103.586L107.883 27.3245L112.214 17.253H116.052L108.868 33H106.768ZM120.014 14.366C118.767 14.366 117.882 13.4146 117.882 12.2008C117.882 10.9869 118.767 10.0356 120.014 10.0356C121.261 10.0356 122.146 10.9869 122.146 12.2008C122.146 13.4146 121.261 14.366 120.014 14.366ZM118.21 33V17.253H121.818V33H118.21ZM132.46 33.3281C128.195 33.3281 124.882 29.7522 124.882 25.1593C124.882 20.5336 128.195 16.9249 132.46 16.9249C134.461 16.9249 136.167 17.7122 137.282 18.9917V17.253H140.891V33H137.282V31.2941C136.167 32.5735 134.461 33.3281 132.46 33.3281ZM133.05 29.9162C135.708 29.9162 137.512 27.9478 137.512 25.1265C137.512 22.3051 135.708 20.3368 133.05 20.3368C130.426 20.3368 128.589 22.3051 128.589 25.1265C128.589 27.9478 130.426 29.9162 133.05 29.9162Z" fill="black"/>
<g clip-path="url(#clip0_1725_1993)">
<path d="M14.4434 16.6637C16.6014 14.6805 15.8267 10.8793 15.1697 9.22661C15.1697 9.22661 16.8296 9.02001 17.6596 9.02002C19.4233 13.5649 18.0953 22.8613 6.55859 19.9691C6.55859 18.8673 6.64159 16.8083 6.97358 17.3868C7.38858 18.1098 11.746 19.1428 14.4434 16.6637Z" fill="white"/>
<path d="M23.6316 19.7811C23.5574 23.0598 26.8481 24.8103 28.4979 25.4906C28.4979 25.4906 27.4944 26.8282 26.918 27.4249C22.4111 25.5229 16.6201 18.084 26.7202 11.8067C27.5159 12.5752 28.1385 13.9094 28.2968 13.9062C28.4551 13.903 23.7345 15.234 23.6316 19.7811Z" fill="white"/>
<path d="M16.0455 25.5736C13.3396 24.4353 10.187 26.7211 8.94895 28.0063C8.94895 28.0063 8.07275 26.582 7.72905 25.8269C11.1517 22.332 20.1964 19.6734 22.3311 31.3721C21.4004 31.7957 19.953 32.0067 19.808 32.059C19.805 32.0662 19.8022 32.0695 19.7996 32.0687C19.793 32.0665 19.7962 32.0633 19.808 32.059C19.9074 31.8211 20.1849 27.315 16.0455 25.5736Z" fill="white"/>
</g>
<defs>
<clipPath id="clip0_1725_1993">
<rect width="24.6" height="24.6" fill="white" transform="translate(6.55859 9.02002)"/>
</clipPath>
</defs>
</svg>
