<svg width="37" height="36" viewBox="0 0 37 36" fill="none" xmlns="http://www.w3.org/2000/svg">
<rect y="0.280029" width="36.9" height="35.26" rx="9.84" fill="#1D69D8"/>
<g clip-path="url(#clip0_67_51)">
<path d="M14.4449 13.6637C16.6028 11.6805 15.8282 7.8793 15.1711 6.22661C15.1711 6.22661 16.8311 6.02001 17.6611 6.02002C19.4248 10.5649 18.0968 19.8613 6.56006 16.9691C6.56006 15.8673 6.64306 13.8083 6.97505 14.3868C7.39004 15.1098 11.7474 16.1428 14.4449 13.6637Z" fill="white"/>
<path d="M23.6341 16.7811C23.5599 20.0598 26.8506 21.8103 28.5004 22.4906C28.5004 22.4906 27.4968 23.8282 26.9204 24.4249C22.4136 22.5229 16.6225 15.084 26.7227 8.80667C27.5183 9.57517 28.141 10.9094 28.2993 10.9062C28.4576 10.903 23.7369 12.234 23.6341 16.7811Z" fill="white"/>
<path d="M16.047 22.5736C13.3411 21.4353 10.1885 23.7211 8.95042 25.0063C8.95042 25.0063 8.07422 23.582 7.73051 22.8269C11.1531 19.332 20.1978 16.6734 22.3326 28.3721C21.4019 28.7957 19.9545 29.0067 19.8095 29.059C19.8065 29.0662 19.8036 29.0695 19.8011 29.0687C19.7945 29.0665 19.7976 29.0633 19.8095 29.059C19.9088 28.8211 20.1863 24.315 16.047 22.5736Z" fill="white"/>
</g>
<defs>
<clipPath id="clip0_67_51">
<rect width="24.6" height="24.6" fill="white" transform="translate(6.56006 6.02002)"/>
</clipPath>
</defs>
</svg>
