<svg width="237" height="44" viewBox="0 0 237 44" fill="none" xmlns="http://www.w3.org/2000/svg">
<rect width="177" height="44" rx="13" fill="#F3F6FC"/>
<rect x="190" width="47" height="44" rx="13" fill="#FDC03C"/>
<path d="M43.216 28V16.8H45.056V26.32H50.336V28H43.216ZM54.7389 28.16C52.6589 28.16 51.0429 26.416 51.0429 24.176C51.0429 21.92 52.6589 20.16 54.7389 20.16C55.7149 20.16 56.5469 20.544 57.0909 21.168V20.32H58.8509V28H57.0909V27.168C56.5469 27.792 55.7149 28.16 54.7389 28.16ZM55.0269 26.496C56.3229 26.496 57.2029 25.536 57.2029 24.16C57.2029 22.784 56.3229 21.824 55.0269 21.824C53.7469 21.824 52.8509 22.784 52.8509 24.16C52.8509 25.536 53.7469 26.496 55.0269 26.496ZM63.9561 28.16C61.9881 28.16 60.6121 26.768 60.6121 24.784V20.32H62.3721V24.704C62.3721 25.824 62.9481 26.464 63.9561 26.464C64.9801 26.464 65.5401 25.84 65.5401 24.704V20.32H67.3001V24.784C67.3001 26.8 65.9401 28.16 63.9561 28.16ZM69.0698 28V20.32H70.8298V21.2C71.3578 20.544 72.1738 20.16 73.1178 20.16C74.8458 20.16 76.0938 21.68 76.0938 23.184V28H74.3338V23.568C74.3338 22.544 73.6138 21.808 72.5898 21.808C71.5658 21.808 70.8298 22.544 70.8298 23.568V28H69.0698ZM81.4183 28.16C79.1303 28.16 77.3863 26.416 77.3863 24.16C77.3863 21.904 79.1303 20.16 81.4183 20.16C82.6023 20.16 83.6903 20.64 84.4103 21.488L83.2583 22.656C82.8103 22.128 82.1703 21.856 81.4183 21.856C80.1063 21.856 79.1943 22.8 79.1943 24.16C79.1943 25.52 80.1063 26.464 81.4183 26.464C82.1703 26.464 82.8103 26.192 83.2583 25.664L84.4103 26.832C83.6903 27.68 82.6023 28.16 81.4183 28.16ZM85.6791 28V16.48H87.4391V21.2C87.9671 20.544 88.7831 20.16 89.7271 20.16C91.4391 20.16 92.7031 21.408 92.7031 23.184V28H90.9431V23.568C90.9431 22.544 90.2231 21.808 89.1991 21.808C88.1751 21.808 87.4391 22.544 87.4391 23.568V28H85.6791ZM95.3876 18.912C94.7796 18.912 94.3476 18.448 94.3476 17.856C94.3476 17.264 94.7796 16.8 95.3876 16.8C95.9956 16.8 96.4276 17.264 96.4276 17.856C96.4276 18.448 95.9956 18.912 95.3876 18.912ZM94.5076 28V20.32H96.2676V28H94.5076ZM98.2416 28V20.32H100.002V21.2C100.53 20.544 101.346 20.16 102.29 20.16C104.018 20.16 105.266 21.68 105.266 23.184V28H103.506V23.568C103.506 22.544 102.786 21.808 101.762 21.808C100.738 21.808 100.002 22.544 100.002 23.568V28H98.2416ZM110.174 27.84C108.11 27.84 106.558 26.176 106.558 23.984C106.558 21.808 108.11 20.16 110.174 20.16C111.166 20.16 111.998 20.528 112.542 21.136V20.32H114.302V27.68C114.302 29.888 112.654 31.36 110.254 31.36C108.638 31.36 107.406 30.752 106.654 29.68L107.806 28.528C108.414 29.296 109.182 29.68 110.286 29.68C111.678 29.68 112.542 28.928 112.542 27.68V26.848C111.998 27.472 111.166 27.84 110.174 27.84ZM110.526 26.176C111.806 26.176 112.654 25.312 112.654 24C112.654 22.688 111.806 21.824 110.526 21.824C109.246 21.824 108.366 22.704 108.366 24C108.366 25.296 109.246 26.176 110.526 26.176ZM122.82 28.16C121.044 28.16 119.876 27.52 118.9 26.272L120.148 25.024C120.772 25.92 121.556 26.448 122.884 26.448C124.116 26.448 124.916 25.904 124.916 25.008C124.916 22.384 119.604 23.76 119.604 19.76C119.604 17.792 121.204 16.64 123.268 16.64C124.74 16.64 125.924 17.28 126.66 18.176L125.412 19.424C124.772 18.704 124.116 18.352 123.22 18.352C122.1 18.352 121.444 18.816 121.444 19.632C121.444 22 126.756 20.736 126.756 24.896C126.756 26.912 125.236 28.16 122.82 28.16ZM131.777 28.16C129.537 28.16 127.761 26.384 127.761 24.144C127.761 21.92 129.521 20.16 131.777 20.16C134.033 20.16 135.809 21.904 135.809 24.144C135.809 26.4 134.049 28.16 131.777 28.16ZM131.777 26.464C133.089 26.464 134.001 25.504 134.001 24.144C134.001 22.8 133.073 21.856 131.777 21.856C130.481 21.856 129.569 22.816 129.569 24.144C129.569 25.504 130.481 26.464 131.777 26.464ZM140.793 28.16C138.553 28.16 136.777 26.384 136.777 24.144C136.777 21.92 138.537 20.16 140.793 20.16C143.049 20.16 144.825 21.904 144.825 24.144C144.825 26.4 143.065 28.16 140.793 28.16ZM140.793 26.464C142.105 26.464 143.017 25.504 143.017 24.144C143.017 22.8 142.089 21.856 140.793 21.856C139.497 21.856 138.585 22.816 138.585 24.144C138.585 25.504 139.497 26.464 140.793 26.464ZM146.289 28V20.32H148.049V21.2C148.577 20.544 149.393 20.16 150.337 20.16C152.065 20.16 153.312 21.68 153.312 23.184V28H151.553V23.568C151.553 22.544 150.833 21.808 149.809 21.808C148.785 21.808 148.049 22.544 148.049 23.568V28H146.289Z" fill="#1D69D8"/>
<path d="M15 29.12H31V13.12H15V29.12Z" fill="black"/>
</svg>
