<svg width="141" height="43" viewBox="0 0 141 43" fill="none" xmlns="http://www.w3.org/2000/svg">
<mask id="mask0_2234_52532" style="mask-type:luminance" maskUnits="userSpaceOnUse" x="0" y="0" width="141" height="43">
<path fill-rule="evenodd" clip-rule="evenodd" d="M0.150879 0.749146H140.954V42.4686H0.150879V0.749146Z" fill="white"/>
</mask>
<g mask="url(#mask0_2234_52532)">
<path fill-rule="evenodd" clip-rule="evenodd" d="M135.739 42.4686H5.36581C2.44545 42.4686 0.150879 40.174 0.150879 37.2537V5.96408C0.150879 3.04372 2.44545 0.749146 5.36581 0.749146H135.739C138.66 0.749146 140.954 3.04372 140.954 5.96408V37.2537C140.954 40.174 138.66 42.4686 135.739 42.4686Z" fill="black"/>
</g>
<path fill-rule="evenodd" clip-rule="evenodd" d="M79.0009 14.3076V8.0497H79.9396L82.9643 12.9517V8.0497H83.7987V14.3076H82.9643L79.731 9.19699V14.3076H79.0009ZM72.9514 12.9519C73.3686 13.3691 73.9944 13.6819 74.6202 13.6819C75.246 13.6819 75.8718 13.4734 76.289 12.9519C76.7062 12.5347 77.0191 11.9089 77.0191 11.1788C77.0191 10.4487 76.8105 9.8229 76.289 9.4057C75.8718 8.98851 75.246 8.67561 74.6202 8.67561C73.9944 8.67561 73.3686 8.88421 72.9514 9.4057C72.5342 9.8229 72.2213 10.4487 72.2213 11.1788C72.2213 11.9089 72.4299 12.5347 72.9514 12.9519ZM76.9147 13.4733C76.2889 14.0991 75.5588 14.412 74.6202 14.412C73.6815 14.412 72.9514 14.0991 72.3256 13.4733C71.6998 12.8475 71.3869 12.1174 71.3869 11.1788C71.3869 10.2401 71.6998 9.50998 72.3256 8.88418C72.9514 8.25839 73.6815 7.9455 74.6202 7.9455C75.5588 7.9455 76.2889 8.25839 76.9147 8.88418C77.5405 9.50998 77.8534 10.2401 77.8534 11.1788C77.8534 12.1174 77.5405 12.8475 76.9147 13.4733ZM67.0072 14.3076H66.1728V8.77979H64.3997V8.0497H68.676V8.77979H66.9029V14.3076H67.0072ZM62.6259 14.3076H63.4603V8.0497H62.6259V14.3076ZM57.8278 14.3076H56.9934V8.77979H55.2203V8.0497H59.6009V8.77979H57.8278V14.3076ZM54.3869 8.77989H51.5709V10.7616H54.1784V11.4917H51.5709V13.4733H54.3869V14.3077H50.7365V8.0498H54.3869V8.77989ZM49.5887 11.3874C49.5887 12.2218 49.3801 12.9519 48.8586 13.4733C48.2328 14.0991 47.5028 14.412 46.5641 14.412C45.6254 14.412 44.8953 14.0991 44.2695 13.4733C43.6437 12.8476 43.3308 12.1175 43.3308 11.1788C43.3308 10.2401 43.6437 9.51 44.2695 8.88421C44.8953 8.25841 45.6254 7.94552 46.5641 7.94552C46.9813 7.94552 47.3985 8.04982 47.8157 8.25841C48.2328 8.46701 48.5457 8.67561 48.7543 8.98851L48.2328 9.51C47.8157 8.98851 47.2942 8.77991 46.5641 8.77991C45.9383 8.77991 45.3125 8.98851 44.8953 9.51C44.3738 9.92719 44.1652 10.553 44.1652 11.2831C44.1652 12.0132 44.3738 12.639 44.8953 13.0562C45.4168 13.4733 45.9383 13.7862 46.5641 13.7862C47.2942 13.7862 47.8157 13.5776 48.3371 13.0562C48.65 12.7433 48.8586 12.3261 48.8586 11.8046H46.5641V10.9702H49.5887V11.3874Z" fill="white"/>
<mask id="mask1_2234_52532" style="mask-type:luminance" maskUnits="userSpaceOnUse" x="-1" y="0" width="143" height="43">
<path fill-rule="evenodd" clip-rule="evenodd" d="M0.150879 42.4685H140.954V0.749084H0.150879V42.4685Z" fill="white" stroke="white"/>
</mask>
<g mask="url(#mask1_2234_52532)">
<path fill-rule="evenodd" clip-rule="evenodd" d="M111.646 32.0386H113.628V19.0013H111.646V32.0386ZM129.168 23.6948L126.977 29.3269H126.873L124.579 23.6948H122.493L125.934 31.6215L123.953 36.002H125.934L131.254 23.6948H129.168ZM118.216 30.5785C117.59 30.5785 116.652 30.2657 116.652 29.4313C116.652 28.3883 117.799 28.0754 118.738 28.0754C119.572 28.0754 119.989 28.284 120.511 28.4926C120.302 29.7442 119.259 30.5785 118.216 30.5785ZM118.425 23.382C116.965 23.382 115.504 24.0078 114.983 25.3636L116.756 26.0937C117.173 25.3636 117.799 25.155 118.529 25.155C119.572 25.155 120.511 25.7808 120.615 26.8238V26.9281C120.302 26.7195 119.468 26.4066 118.633 26.4066C116.756 26.4066 114.879 27.4496 114.879 29.327C114.879 31.1001 116.443 32.2473 118.112 32.2473C119.468 32.2473 120.093 31.6216 120.615 30.9958H120.719V32.0387H122.597V27.0324C122.388 24.7378 120.615 23.382 118.425 23.382ZM106.43 25.2591H103.614V20.7743H106.43C107.891 20.7743 108.725 22.0259 108.725 22.9646C108.621 24.1119 107.786 25.2591 106.43 25.2591ZM106.326 19.0013H101.633V32.0387H103.614V27.1366H106.326C108.517 27.1366 110.602 25.5722 110.602 23.069C110.602 20.5658 108.517 19.0013 106.326 19.0013ZM80.8779 30.5783C79.5221 30.5783 78.3748 29.4311 78.3748 27.8666C78.3748 26.3021 79.5221 25.1548 80.8779 25.1548C82.2338 25.1548 83.2768 26.3021 83.2768 27.8666C83.2768 29.4311 82.2338 30.5783 80.8779 30.5783ZM83.1727 24.4248C82.6512 23.9033 81.8168 23.3818 80.7738 23.3818C78.5835 23.3818 76.4976 25.3634 76.4976 27.8666C76.4976 30.3698 78.4793 32.2472 80.7738 32.2472C81.8168 32.2472 82.6512 31.7257 83.0684 31.2042H83.1727V31.83C83.1727 33.4987 82.234 34.4374 80.7738 34.4374C79.6265 34.4374 78.7921 33.603 78.5835 32.8729L76.9148 33.603C77.4363 34.7503 78.6879 36.2105 80.8781 36.2105C83.1727 36.2105 85.0501 34.8546 85.0501 31.6214V23.6947H83.1727V24.4248ZM86.3006 32.0386H88.2823V19.0013H86.3006V32.0386ZM91.203 27.7623C91.203 26.0935 92.5589 25.1548 93.4976 25.1548C94.2276 25.1548 94.9577 25.572 95.1663 26.0935L91.203 27.7623ZM97.2525 26.3023C96.8353 25.2593 95.7923 23.4863 93.4977 23.4863C91.2032 23.4863 89.3258 25.2593 89.3258 27.9711C89.3258 30.4743 91.2032 32.4559 93.7063 32.4559C95.688 32.4559 96.9396 31.2044 97.3568 30.4743L95.8966 29.4313C95.3751 30.1614 94.7493 30.6829 93.7063 30.6829C92.6634 30.6829 92.0376 30.2657 91.5161 29.327L97.4611 26.8238L97.2525 26.3023ZM49.901 24.842V26.7193H54.3859C54.2816 27.7623 53.8644 28.5967 53.3429 29.1182C52.7171 29.744 51.6741 30.4741 49.901 30.4741C47.085 30.4741 44.999 28.2838 44.999 25.4678C44.999 22.6517 47.1893 20.4614 49.901 20.4614C51.3612 20.4614 52.5085 21.0872 53.3429 21.8173L54.6988 20.4614C53.5515 19.4184 52.0913 18.584 50.0053 18.584C46.2506 18.584 43.0173 21.713 43.0173 25.4678C43.0173 29.2225 46.2506 32.3515 50.0053 32.3515C52.0913 32.3515 53.5515 31.7257 54.8031 30.3698C56.0547 29.1182 56.4719 27.3451 56.4719 25.9893C56.4719 25.5721 56.4719 25.1549 56.3676 24.842H49.901ZM61.4779 30.5783C60.122 30.5783 58.9747 29.4311 58.9747 27.8666C58.9747 26.3021 60.122 25.1548 61.4779 25.1548C62.8338 25.1548 63.9811 26.1978 63.9811 27.8666C63.9811 29.4311 62.8338 30.5783 61.4779 30.5783ZM61.478 23.4863C58.9748 23.4863 56.9932 25.3636 56.9932 27.9711C56.9932 30.4743 58.9748 32.4559 61.478 32.4559C63.9812 32.4559 65.9629 30.5786 65.9629 27.9711C65.9629 25.2593 63.9812 23.4863 61.478 23.4863ZM71.1775 30.5783C69.8216 30.5783 68.6743 29.4311 68.6743 27.8666C68.6743 26.3021 69.8216 25.1548 71.1775 25.1548C72.5334 25.1548 73.6807 26.1978 73.6807 27.8666C73.6807 29.4311 72.5334 30.5783 71.1775 30.5783ZM71.177 23.486C68.6738 23.486 66.6922 25.3633 66.6922 27.9708C66.6922 30.474 68.6738 32.4557 71.177 32.4557C73.6802 32.4557 75.6618 30.5783 75.6618 27.9708C75.6618 25.259 73.6802 23.486 71.177 23.486Z" fill="white"/>
</g>
<mask id="mask2_2234_52532" style="mask-type:luminance" maskUnits="userSpaceOnUse" x="10" y="8" width="15" height="27">
<path fill-rule="evenodd" clip-rule="evenodd" d="M10.5801 10.0317V33.0818C10.5801 33.7078 10.7887 34.229 11.1016 34.5419L11.2059 34.6464L24.1389 21.7134V21.5046L10.9973 8.57178C10.6844 8.88446 10.5801 9.40596 10.5801 10.0317Z" fill="white"/>
</mask>
<g mask="url(#mask2_2234_52532)">
<path fill-rule="evenodd" clip-rule="evenodd" d="M10.5801 10.0317V33.0818C10.5801 33.7078 10.7887 34.229 11.1016 34.5419L11.2059 34.6464L24.1389 21.7134V21.5046L10.9973 8.57178C10.6844 8.88446 10.5801 9.40596 10.5801 10.0317Z" fill="#32BBFF"/>
</g>
<mask id="mask3_2234_52532" style="mask-type:luminance" maskUnits="userSpaceOnUse" x="24" y="17" width="11" height="10">
<path fill-rule="evenodd" clip-rule="evenodd" d="M24.0348 21.5045V21.8174L28.311 26.0936L33.526 23.2776C34.9861 22.4432 34.9861 21.0873 33.526 20.2527L28.4153 17.3325L28.311 17.228L24.0348 21.5045Z" fill="white"/>
</mask>
<g mask="url(#mask3_2234_52532)">
<path fill-rule="evenodd" clip-rule="evenodd" d="M24.0348 21.5045V21.8174L28.311 26.0936L33.526 23.2776C34.9861 22.4432 34.9861 21.0873 33.526 20.2527L28.4153 17.3325L28.311 17.228L24.0348 21.5045Z" fill="#FFD500"/>
</g>
<mask id="mask4_2234_52532" style="mask-type:luminance" maskUnits="userSpaceOnUse" x="10" y="21" width="19" height="15">
<path fill-rule="evenodd" clip-rule="evenodd" d="M10.9976 34.6464C11.5191 35.1677 12.2491 35.1677 13.1878 34.7505L28.4154 25.9894L24.0349 21.6089L10.9976 34.6464Z" fill="white"/>
</mask>
<g mask="url(#mask4_2234_52532)">
<path fill-rule="evenodd" clip-rule="evenodd" d="M10.9976 34.6464C11.5191 35.1677 12.2491 35.1677 13.1878 34.7505L28.4154 25.9894L24.0349 21.6089L10.9976 34.6464Z" fill="url(#paint0_linear_2234_52532)"/>
</g>
<mask id="mask5_2234_52532" style="mask-type:luminance" maskUnits="userSpaceOnUse" x="10" y="8" width="19" height="14">
<path fill-rule="evenodd" clip-rule="evenodd" d="M10.9976 8.67585L24.0349 21.6089L28.4154 17.2283L13.1878 8.57175C12.7648 8.33667 12.3843 8.22882 12.0462 8.22882C11.6336 8.22861 11.2842 8.38923 10.9976 8.67585Z" fill="white"/>
</mask>
<g mask="url(#mask5_2234_52532)">
<path fill-rule="evenodd" clip-rule="evenodd" d="M10.9976 8.67585L24.0349 21.6089L28.4154 17.2283L13.1878 8.57175C12.7648 8.33667 12.3843 8.22882 12.0462 8.22882C11.6336 8.22861 11.2842 8.38923 10.9976 8.67585Z" fill="#29CC5E"/>
</g>
<path fill-rule="evenodd" clip-rule="evenodd" d="M28.3111 25.8849L13.1878 34.4374C12.3534 34.9589 11.6234 34.8546 11.1019 34.4374L10.9976 34.5417L11.1019 34.646C11.6234 35.0632 12.3534 35.1675 13.1878 34.646L28.3111 25.8849Z" fill="black"/>
<path fill-rule="evenodd" clip-rule="evenodd" d="M33.5261 22.9646L28.3112 25.8849L28.4155 25.9892L33.5261 23.0689C34.2562 22.6517 34.5691 22.1302 34.5691 21.6087C34.5691 22.1302 34.1519 22.5474 33.5261 22.9646ZM10.9972 34.4374C10.6843 34.1245 10.58 33.603 10.58 32.9772V33.0815C10.58 33.7073 10.7886 34.2288 11.1014 34.5417V34.4374H10.9972Z" fill="black"/>
<path fill-rule="evenodd" clip-rule="evenodd" d="M13.1874 8.67552L33.5257 20.2527C34.1515 20.6699 34.5686 21.0871 34.5686 21.6086C34.5686 21.0871 34.2558 20.5656 33.5257 20.1484L13.1874 8.57122C11.7272 7.73683 10.58 8.36263 10.58 10.0314V10.1357C10.58 8.57122 11.7272 7.84113 13.1874 8.67552Z" fill="white"/>
<rect x="43.1726" y="5.26056" width="74.416" height="11.0345" fill="black"/>
<rect x="43.1726" y="5.26056" width="74.416" height="11.0345" stroke="black"/>
<path d="M49.3628 9.96399H48.5149C48.4648 9.72011 48.377 9.50586 48.2517 9.32124C48.1286 9.13662 47.9782 8.98163 47.8004 8.85627C47.6249 8.72863 47.43 8.6329 47.2158 8.56908C47.0015 8.50526 46.7781 8.47335 46.5457 8.47335C46.1217 8.47335 45.7377 8.58048 45.3935 8.79473C45.0516 9.00898 44.7792 9.32466 44.5764 9.74176C44.3758 10.1589 44.2755 10.6706 44.2755 11.2768C44.2755 11.8831 44.3758 12.3948 44.5764 12.8119C44.7792 13.229 45.0516 13.5447 45.3935 13.7589C45.7377 13.9732 46.1217 14.0803 46.5457 14.0803C46.7781 14.0803 47.0015 14.0484 47.2158 13.9846C47.43 13.9208 47.6249 13.8262 47.8004 13.7008C47.9782 13.5732 48.1286 13.4171 48.2517 13.2324C48.377 13.0455 48.4648 12.8313 48.5149 12.5897H49.3628C49.299 12.9475 49.1828 13.2678 49.0141 13.5504C48.8454 13.833 48.6357 14.0735 48.385 14.2718C48.1343 14.4678 47.8528 14.6171 47.5405 14.7197C47.2306 14.8222 46.8989 14.8735 46.5457 14.8735C45.9485 14.8735 45.4174 14.7276 44.9525 14.4359C44.4875 14.1441 44.1217 13.7293 43.855 13.1914C43.5883 12.6535 43.455 12.0153 43.455 11.2768C43.455 10.5384 43.5883 9.90017 43.855 9.36226C44.1217 8.82436 44.4875 8.40954 44.9525 8.11779C45.4174 7.82605 45.9485 7.68017 46.5457 7.68017C46.8989 7.68017 47.2306 7.73146 47.5405 7.83402C47.8528 7.93659 48.1343 8.08702 48.385 8.28532C48.6357 8.48133 48.8454 8.72065 49.0141 9.00328C49.1828 9.28363 49.299 9.60386 49.3628 9.96399ZM52.7569 14.8872C52.2828 14.8872 51.8669 14.7744 51.509 14.5487C51.1535 14.3231 50.8754 14.0074 50.6748 13.6017C50.4765 13.196 50.3774 12.7219 50.3774 12.1794C50.3774 11.6324 50.4765 11.1549 50.6748 10.7469C50.8754 10.3389 51.1535 10.0221 51.509 9.79646C51.8669 9.57082 52.2828 9.45799 52.7569 9.45799C53.231 9.45799 53.6458 9.57082 54.0014 9.79646C54.3592 10.0221 54.6373 10.3389 54.8356 10.7469C55.0362 11.1549 55.1364 11.6324 55.1364 12.1794C55.1364 12.7219 55.0362 13.196 54.8356 13.6017C54.6373 14.0074 54.3592 14.3231 54.0014 14.5487C53.6458 14.7744 53.231 14.8872 52.7569 14.8872ZM52.7569 14.1624C53.117 14.1624 53.4133 14.0701 53.6458 13.8854C53.8783 13.7008 54.0504 13.4581 54.1621 13.1572C54.2738 12.8564 54.3296 12.5304 54.3296 12.1794C54.3296 11.8284 54.2738 11.5013 54.1621 11.1982C54.0504 10.8951 53.8783 10.65 53.6458 10.4631C53.4133 10.2762 53.117 10.1828 52.7569 10.1828C52.3968 10.1828 52.1005 10.2762 51.868 10.4631C51.6355 10.65 51.4634 10.8951 51.3517 11.1982C51.2401 11.5013 51.1842 11.8284 51.1842 12.1794C51.1842 12.5304 51.2401 12.8564 51.3517 13.1572C51.4634 13.4581 51.6355 13.7008 51.868 13.8854C52.1005 14.0701 52.3968 14.1624 52.7569 14.1624ZM56.3681 14.7778V9.52637H57.1476V10.3469H57.216C57.3254 10.0666 57.502 9.84888 57.7459 9.6939C57.9898 9.53663 58.2827 9.45799 58.6246 9.45799C58.971 9.45799 59.2593 9.53663 59.4895 9.6939C59.722 9.84888 59.9032 10.0666 60.0331 10.3469H60.0878C60.2223 10.0757 60.424 9.86028 60.693 9.70073C60.9619 9.53891 61.2845 9.45799 61.6605 9.45799C62.1301 9.45799 62.5141 9.605 62.8127 9.89903C63.1113 10.1908 63.2606 10.6455 63.2606 11.2632V14.7778H62.4537V11.2632C62.4537 10.8757 62.3477 10.5988 62.1358 10.4324C61.9238 10.266 61.6742 10.1828 61.387 10.1828C61.0178 10.1828 60.7317 10.2945 60.5289 10.5178C60.326 10.7389 60.2246 11.0193 60.2246 11.3589V14.7778H59.4041V11.1811C59.4041 10.8825 59.3072 10.6421 59.1135 10.4597C58.9197 10.2751 58.6701 10.1828 58.3647 10.1828C58.155 10.1828 57.959 10.2386 57.7767 10.3503C57.5966 10.462 57.4507 10.617 57.3391 10.8153C57.2297 11.0113 57.175 11.2381 57.175 11.4956V14.7778H56.3681ZM64.7358 14.7778V9.52637H65.5427V14.7778H64.7358ZM65.1461 8.65114C64.9888 8.65114 64.8532 8.59757 64.7392 8.49045C64.6275 8.38332 64.5717 8.25455 64.5717 8.10412C64.5717 7.95369 64.6275 7.82491 64.7392 7.71778C64.8532 7.61066 64.9888 7.55709 65.1461 7.55709C65.3033 7.55709 65.4378 7.61066 65.5495 7.71778C65.6635 7.82491 65.7204 7.95369 65.7204 8.10412C65.7204 8.25455 65.6635 8.38332 65.5495 8.49045C65.4378 8.59757 65.3033 8.65114 65.1461 8.65114ZM67.8273 11.6187V14.7778H67.0205V9.52637H67.8V10.3469H67.8684C67.9914 10.0802 68.1783 9.86598 68.4291 9.70415C68.6798 9.54005 69.0034 9.45799 69.4 9.45799C69.7556 9.45799 70.0667 9.53093 70.3334 9.6768C70.6 9.82039 70.8075 10.0392 70.9556 10.3332C71.1038 10.625 71.1778 10.9942 71.1778 11.4409V14.7778H70.371V11.4956C70.371 11.0831 70.2639 10.7617 70.0496 10.5315C69.8354 10.299 69.5413 10.1828 69.1675 10.1828C68.91 10.1828 68.6798 10.2386 68.4769 10.3503C68.2763 10.462 68.1179 10.625 68.0017 10.8392C67.8855 11.0535 67.8273 11.3133 67.8273 11.6187ZM74.7719 16.8565C74.3822 16.8565 74.0471 16.8063 73.7668 16.706C73.4864 16.608 73.2528 16.4781 73.0659 16.3163C72.8813 16.1567 72.7343 15.9858 72.6249 15.8034L73.2676 15.3521C73.3406 15.4479 73.4329 15.5573 73.5446 15.6804C73.6562 15.8057 73.809 15.914 74.0027 16.0051C74.1987 16.0986 74.4551 16.1453 74.7719 16.1453C75.1959 16.1453 75.5457 16.0428 75.8215 15.8376C76.0973 15.6325 76.2352 15.3111 76.2352 14.8735V13.8068H76.1668C76.1076 13.9025 76.0232 14.0211 75.9138 14.1624C75.8067 14.3014 75.6517 14.4256 75.4489 14.535C75.2483 14.6422 74.9771 14.6957 74.6352 14.6957C74.2112 14.6957 73.8306 14.5954 73.4933 14.3949C73.1582 14.1943 72.8927 13.9025 72.6967 13.5196C72.5029 13.1367 72.4061 12.6717 72.4061 12.1247C72.4061 11.5868 72.5007 11.1184 72.6898 10.7196C72.879 10.3184 73.1423 10.0084 73.4796 9.78962C73.8169 9.56854 74.2067 9.45799 74.6489 9.45799C74.9907 9.45799 75.262 9.51497 75.4625 9.62894C75.6654 9.74062 75.8204 9.86826 75.9275 10.0119C76.0369 10.1532 76.1213 10.2694 76.1805 10.3606H76.2626V9.52637H77.0421V14.9282C77.0421 15.3795 76.9395 15.7465 76.7344 16.0291C76.5315 16.314 76.258 16.5225 75.9138 16.6547C75.572 16.7892 75.1913 16.8565 74.7719 16.8565ZM74.7446 13.9709C75.0682 13.9709 75.3417 13.8968 75.5651 13.7487C75.7885 13.6005 75.9583 13.3874 76.0745 13.1094C76.1908 12.8313 76.2489 12.4985 76.2489 12.111C76.2489 11.7327 76.1919 11.3988 76.0779 11.1093C75.964 10.8198 75.7953 10.5931 75.572 10.429C75.3486 10.2648 75.0728 10.1828 74.7446 10.1828C74.4027 10.1828 74.1178 10.2694 73.8899 10.4426C73.6642 10.6159 73.4944 10.8483 73.3805 11.1401C73.2688 11.4318 73.2129 11.7555 73.2129 12.111C73.2129 12.4757 73.2699 12.7982 73.3839 13.0786C73.5001 13.3567 73.6711 13.5755 73.8967 13.735C74.1246 13.8923 74.4073 13.9709 74.7446 13.9709ZM85.1653 9.52637C85.1243 9.17992 84.9579 8.91097 84.6662 8.71951C84.3744 8.52806 84.0166 8.43233 83.5926 8.43233C83.2827 8.43233 83.0114 8.48247 82.779 8.58276C82.5487 8.68305 82.3687 8.82094 82.2388 8.99644C82.1111 9.17195 82.0473 9.37138 82.0473 9.59475C82.0473 9.78165 82.0918 9.94233 82.1807 10.0768C82.2718 10.209 82.3881 10.3196 82.5294 10.4084C82.6707 10.4951 82.8188 10.5668 82.9738 10.6238C83.1288 10.6785 83.2713 10.723 83.4012 10.7572L84.1123 10.9486C84.2947 10.9965 84.4975 11.0626 84.7209 11.1469C84.9465 11.2313 85.1619 11.3464 85.367 11.4922C85.5745 11.6358 85.7454 11.8204 85.8799 12.0461C86.0144 12.2717 86.0816 12.5487 86.0816 12.8769C86.0816 13.2552 85.9824 13.5971 85.7842 13.9025C85.5881 14.208 85.3009 14.4507 84.9226 14.6308C84.5465 14.8108 84.0895 14.9009 83.5516 14.9009C83.0502 14.9009 82.616 14.8199 82.249 14.6581C81.8843 14.4963 81.5972 14.2706 81.3875 13.9812C81.1801 13.6917 81.0627 13.3555 81.0353 12.9726H81.9106C81.9334 13.237 82.0222 13.4558 82.1772 13.629C82.3345 13.8 82.5328 13.9276 82.7721 14.0119C83.0137 14.094 83.2736 14.135 83.5516 14.135C83.8753 14.135 84.1659 14.0826 84.4234 13.9778C84.681 13.8706 84.885 13.7225 85.0354 13.5333C85.1858 13.3418 85.2611 13.1185 85.2611 12.8632C85.2611 12.6307 85.1961 12.4415 85.0662 12.2957C84.9363 12.1498 84.7653 12.0313 84.5534 11.9401C84.3414 11.8489 84.1123 11.7692 83.8662 11.7008L83.0046 11.4546C82.4576 11.2974 82.0245 11.0728 81.7054 10.7811C81.3863 10.4894 81.2268 10.1076 81.2268 9.63577C81.2268 9.24374 81.3328 8.90185 81.5447 8.61011C81.759 8.31609 82.0462 8.08816 82.4063 7.92633C82.7687 7.76223 83.1733 7.68017 83.62 7.68017C84.0713 7.68017 84.4724 7.76109 84.8234 7.92291C85.1745 8.08246 85.4525 8.30127 85.6577 8.57934C85.8651 8.85741 85.9745 9.17309 85.9859 9.52637H85.1653ZM89.4996 14.8872C89.0255 14.8872 88.6096 14.7744 88.2517 14.5487C87.8962 14.3231 87.6181 14.0074 87.4175 13.6017C87.2192 13.196 87.1201 12.7219 87.1201 12.1794C87.1201 11.6324 87.2192 11.1549 87.4175 10.7469C87.6181 10.3389 87.8962 10.0221 88.2517 9.79646C88.6096 9.57082 89.0255 9.45799 89.4996 9.45799C89.9737 9.45799 90.3885 9.57082 90.7441 9.79646C91.1019 10.0221 91.38 10.3389 91.5783 10.7469C91.7789 11.1549 91.8792 11.6324 91.8792 12.1794C91.8792 12.7219 91.7789 13.196 91.5783 13.6017C91.38 14.0074 91.1019 14.3231 90.7441 14.5487C90.3885 14.7744 89.9737 14.8872 89.4996 14.8872ZM89.4996 14.1624C89.8597 14.1624 90.156 14.0701 90.3885 13.8854C90.621 13.7008 90.7931 13.4581 90.9048 13.1572C91.0165 12.8564 91.0723 12.5304 91.0723 12.1794C91.0723 11.8284 91.0165 11.5013 90.9048 11.1982C90.7931 10.8951 90.621 10.65 90.3885 10.4631C90.156 10.2762 89.8597 10.1828 89.4996 10.1828C89.1395 10.1828 88.8432 10.2762 88.6107 10.4631C88.3782 10.65 88.2061 10.8951 88.0945 11.1982C87.9828 11.5013 87.9269 11.8284 87.9269 12.1794C87.9269 12.5304 87.9828 12.8564 88.0945 13.1572C88.2061 13.4581 88.3782 13.7008 88.6107 13.8854C88.8432 14.0701 89.1395 14.1624 89.4996 14.1624ZM95.2442 14.8872C94.7701 14.8872 94.3541 14.7744 93.9963 14.5487C93.6407 14.3231 93.3627 14.0074 93.1621 13.6017C92.9638 13.196 92.8647 12.7219 92.8647 12.1794C92.8647 11.6324 92.9638 11.1549 93.1621 10.7469C93.3627 10.3389 93.6407 10.0221 93.9963 9.79646C94.3541 9.57082 94.7701 9.45799 95.2442 9.45799C95.7183 9.45799 96.1331 9.57082 96.4887 9.79646C96.8465 10.0221 97.1246 10.3389 97.3229 10.7469C97.5234 11.1549 97.6237 11.6324 97.6237 12.1794C97.6237 12.7219 97.5234 13.196 97.3229 13.6017C97.1246 14.0074 96.8465 14.3231 96.4887 14.5487C96.1331 14.7744 95.7183 14.8872 95.2442 14.8872ZM95.2442 14.1624C95.6043 14.1624 95.9006 14.0701 96.1331 13.8854C96.3656 13.7008 96.5377 13.4581 96.6494 13.1572C96.761 12.8564 96.8169 12.5304 96.8169 12.1794C96.8169 11.8284 96.761 11.5013 96.6494 11.1982C96.5377 10.8951 96.3656 10.65 96.1331 10.4631C95.9006 10.2762 95.6043 10.1828 95.2442 10.1828C94.8841 10.1828 94.5878 10.2762 94.3553 10.4631C94.1228 10.65 93.9507 10.8951 93.839 11.1982C93.7273 11.5013 93.6715 11.8284 93.6715 12.1794C93.6715 12.5304 93.7273 12.8564 93.839 13.1572C93.9507 13.4581 94.1228 13.7008 94.3553 13.8854C94.5878 14.0701 94.8841 14.1624 95.2442 14.1624ZM99.6622 11.6187V14.7778H98.8554V9.52637H99.6349V10.3469H99.7033C99.8263 10.0802 100.013 9.86598 100.264 9.70415C100.515 9.54005 100.838 9.45799 101.235 9.45799C101.59 9.45799 101.902 9.53093 102.168 9.6768C102.435 9.82039 102.642 10.0392 102.791 10.3332C102.939 10.625 103.013 10.9942 103.013 11.4409V14.7778H102.206V11.4956C102.206 11.0831 102.099 10.7617 101.885 10.5315C101.67 10.299 101.376 10.1828 101.002 10.1828C100.745 10.1828 100.515 10.2386 100.312 10.3503C100.111 10.462 99.9528 10.625 99.8366 10.8392C99.7204 11.0535 99.6622 11.3133 99.6622 11.6187ZM109.328 14.8872C108.854 14.8872 108.438 14.7744 108.08 14.5487C107.725 14.3231 107.447 14.0074 107.246 13.6017C107.048 13.196 106.949 12.7219 106.949 12.1794C106.949 11.6324 107.048 11.1549 107.246 10.7469C107.447 10.3389 107.725 10.0221 108.08 9.79646C108.438 9.57082 108.854 9.45799 109.328 9.45799C109.802 9.45799 110.217 9.57082 110.573 9.79646C110.931 10.0221 111.209 10.3389 111.407 10.7469C111.608 11.1549 111.708 11.6324 111.708 12.1794C111.708 12.7219 111.608 13.196 111.407 13.6017C111.209 14.0074 110.931 14.3231 110.573 14.5487C110.217 14.7744 109.802 14.8872 109.328 14.8872ZM109.328 14.1624C109.688 14.1624 109.985 14.0701 110.217 13.8854C110.45 13.7008 110.622 13.4581 110.733 13.1572C110.845 12.8564 110.901 12.5304 110.901 12.1794C110.901 11.8284 110.845 11.5013 110.733 11.1982C110.622 10.8951 110.45 10.65 110.217 10.4631C109.985 10.2762 109.688 10.1828 109.328 10.1828C108.968 10.1828 108.672 10.2762 108.439 10.4631C108.207 10.65 108.035 10.8951 107.923 11.1982C107.811 11.5013 107.756 11.8284 107.756 12.1794C107.756 12.5304 107.811 12.8564 107.923 13.1572C108.035 13.4581 108.207 13.7008 108.439 13.8854C108.672 14.0701 108.968 14.1624 109.328 14.1624ZM113.746 11.6187V14.7778H112.939V9.52637H113.719V10.3469H113.787C113.91 10.0802 114.097 9.86598 114.348 9.70415C114.599 9.54005 114.922 9.45799 115.319 9.45799C115.675 9.45799 115.986 9.53093 116.252 9.6768C116.519 9.82039 116.726 10.0392 116.875 10.3332C117.023 10.625 117.097 10.9942 117.097 11.4409V14.7778H116.29V11.4956C116.29 11.0831 116.183 10.7617 115.969 10.5315C115.754 10.299 115.46 10.1828 115.087 10.1828C114.829 10.1828 114.599 10.2386 114.396 10.3503C114.195 10.462 114.037 10.625 113.921 10.8392C113.804 11.0535 113.746 11.3133 113.746 11.6187Z" fill="white"/>
<defs>
<linearGradient id="paint0_linear_2234_52532" x1="10.6549" y1="14.8321" x2="-5.99661" y2="42.7883" gradientUnits="userSpaceOnUse">
<stop stop-color="#FF3A44"/>
<stop offset="1" stop-color="#C31162"/>
</linearGradient>
</defs>
</svg>
